<?xml version="1.0" standalone="no"?>
<!DOCTYPE svg PUBLIC "-//W3C//DTD SVG 20010904//EN"
 "http://www.w3.org/TR/2001/REC-SVG-20010904/DTD/svg10.dtd">
<svg version="1.0" xmlns="http://www.w3.org/2000/svg"
 width="2514.000000pt" height="1664.000000pt" viewBox="0 0 2514.000000 1664.000000"
 preserveAspectRatio="xMidYMid meet">

<g transform="translate(0.000000,1664.000000) scale(0.100000,-0.100000)"
fill="#000000" stroke="none">
<path d="M1705 15983 c-152 -38 -308 -237 -405 -518 -43 -126 -84 -313 -95
-430 -3 -38 -8 -91 -11 -117 -6 -66 13 -259 35 -348 40 -161 113 -262 211
-295 46 -15 201 -51 262 -60 16 -2 45 -9 65 -15 21 -6 130 -31 243 -56 113
-25 246 -54 295 -65 50 -11 122 -27 160 -35 39 -8 183 -40 320 -71 138 -30
277 -61 310 -68 33 -7 132 -29 220 -49 206 -48 308 -70 478 -106 77 -16 167
-36 200 -44 78 -19 373 -85 627 -141 107 -24 218 -48 245 -55 108 -25 136 -31
295 -65 91 -20 190 -42 220 -50 30 -8 100 -23 155 -35 109 -23 110 -23 365
-81 96 -22 279 -62 405 -90 127 -27 266 -59 310 -69 44 -10 136 -30 205 -45
69 -14 139 -29 155 -34 17 -5 75 -19 130 -30 55 -12 147 -33 205 -46 58 -14
276 -63 485 -109 551 -123 601 -134 695 -157 104 -25 115 -27 366 -83 110 -25
242 -53 292 -63 51 -9 92 -20 92 -23 0 -4 -13 -16 -30 -28 -40 -30 -76 -95
-90 -165 -9 -47 -15 -57 -28 -53 -53 16 -340 82 -547 126 -132 28 -262 56
-290 62 -60 14 -122 16 -191 6 -46 -7 -130 6 -249 38 -47 13 -153 15 -192 5
-44 -12 -71 -40 -111 -116 -97 -185 -106 -302 -36 -434 39 -73 77 -112 123
-126 25 -8 26 -8 86 -20 84 -16 121 -59 145 -170 17 -75 30 -90 97 -105 77
-18 85 -19 179 -21 66 -1 93 3 137 21 l56 23 178 -36 c98 -20 331 -69 518
-108 187 -39 356 -74 375 -78 49 -9 65 -20 87 -66 23 -46 82 -222 113 -339
l21 -79 -29 -36 c-39 -49 -52 -75 -52 -106 0 -44 38 -103 96 -149 49 -38 66
-45 132 -55 131 -20 142 -23 142 -32 0 -5 -3 -8 -8 -7 -11 4 -108 -78 -173
-146 -51 -53 -58 -66 -64 -113 l-6 -53 -63 -29 c-47 -21 -74 -42 -115 -92 -88
-105 -116 -163 -116 -239 l0 -65 -43 -21 c-65 -31 -68 -35 -179 -244 -24 -47
-27 -91 -8 -127 16 -28 16 -39 6 -72 -10 -33 -18 -42 -55 -56 -37 -14 -48 -25
-64 -64 -30 -71 -51 -140 -60 -205 -9 -56 -8 -60 19 -91 45 -51 38 -120 -15
-149 -27 -14 -78 -76 -63 -76 2 0 -2 -26 -9 -57 -20 -85 -19 -227 3 -244 21
-18 43 -71 43 -105 0 -15 -11 -37 -28 -52 -48 -47 -56 -73 -48 -159 15 -179
16 -185 57 -230 46 -50 52 -93 18 -129 -32 -35 -28 -107 15 -233 28 -84 42
-112 76 -146 l41 -42 -16 -41 c-18 -45 -23 -24 52 -225 10 -27 39 -72 65 -100
30 -33 57 -77 74 -121 33 -85 110 -202 171 -258 73 -68 92 -88 191 -196 172
-187 468 -373 737 -461 66 -21 188 -54 270 -72 150 -34 150 -34 420 -34 284 0
297 1 521 55 227 55 281 76 335 131 30 31 56 49 71 49 40 0 92 19 152 55 l59
35 81 -31 c131 -51 185 -62 286 -63 110 -1 163 14 285 79 44 23 128 64 188 90
l107 48 93 -23 c125 -30 280 -27 325 7 26 20 34 21 68 11 56 -16 341 -13 529
6 88 9 183 18 210 21 211 21 538 38 564 30 17 -5 21 -15 21 -45 0 -32 6 -43
33 -64 46 -35 103 -41 230 -22 171 25 195 41 199 132 2 53 17 77 62 93 33 13
98 17 114 7 15 -9 16 -36 2 -36 -5 0 -10 -5 -10 -12 0 -7 -14 -26 -31 -44 -39
-40 -48 -83 -49 -217 0 -133 11 -161 80 -212 50 -36 76 -76 64 -96 -3 -5 -10
-6 -16 -3 -7 4 -8 2 -4 -5 4 -6 -2 -23 -13 -37 -15 -19 -21 -41 -21 -75 0 -62
20 -150 33 -142 6 3 7 1 3 -6 -10 -15 3 -73 15 -66 5 4 6 -1 3 -9 -9 -23 13
-57 69 -108 l51 -47 -23 -47 c-18 -35 -21 -51 -14 -63 6 -9 14 -32 17 -51 9
-48 55 -158 82 -198 13 -18 29 -46 36 -62 7 -17 16 -30 20 -30 5 0 8 -15 8
-34 0 -35 105 -253 141 -292 10 -11 19 -25 19 -30 0 -6 26 -41 57 -79 217
-264 590 -520 933 -642 209 -74 280 -91 474 -114 94 -11 388 -14 473 -4 190
20 231 26 290 41 37 9 103 31 148 49 44 18 98 38 120 45 76 24 160 62 212 97
58 38 120 99 128 124 4 11 22 18 56 22 99 12 275 166 308 268 10 32 18 38 55
48 88 22 258 228 271 329 9 67 9 67 54 81 34 10 50 24 92 84 28 40 67 101 87
137 34 59 37 72 38 145 1 108 0 105 34 105 58 0 114 72 170 218 22 58 26 125
9 169 -8 22 -7 40 7 83 23 71 31 80 64 80 41 0 65 37 100 149 44 139 46 163
21 204 -20 33 -21 37 -6 93 24 91 24 93 53 96 22 2 30 11 43 53 21 61 40 165
42 227 2 36 -3 52 -21 71 -21 22 -22 28 -13 91 9 61 14 72 49 105 49 44 55 71
56 238 l1 123 -29 25 c-26 22 -29 31 -28 77 1 69 27 116 67 123 16 2 113 16
215 29 206 27 1642 231 1900 270 91 14 235 34 320 46 285 38 495 68 540 76 14
2 75 11 135 19 61 8 148 21 195 29 47 8 110 17 140 20 30 3 75 9 98 12 24 4
60 2 80 -4 50 -15 432 -72 483 -72 77 0 109 31 124 125 4 22 11 48 16 57 6 10
71 48 147 85 134 65 138 66 211 64 52 -1 81 3 97 14 l24 15 0 370 c0 355 -1
370 -19 380 -29 15 -88 12 -122 -5 -16 -9 -53 -34 -82 -56 l-52 -40 -106 4
-107 4 -88 78 c-115 101 -140 112 -196 96 -27 -8 -57 -28 -80 -53 -43 -46 -48
-45 -138 31 -97 83 -113 91 -173 91 -67 0 -99 -11 -144 -50 -27 -24 -38 -28
-53 -20 -10 5 -34 10 -52 10 -40 0 -58 11 -62 36 -2 14 -19 24 -62 37 -32 11
-88 33 -123 49 l-64 31 -159 -33 -158 -33 -56 22 c-86 32 -159 26 -227 -22
-27 -18 -34 -19 -120 -8 -121 16 -419 51 -433 51 -6 0 -27 13 -47 28 -33 26
-45 30 -144 36 -141 9 -220 15 -316 26 -63 8 -82 14 -100 34 -18 20 -37 27
-100 36 -100 13 -183 13 -208 -1 -22 -12 -35 -6 -239 103 -69 36 -143 72 -165
78 -62 18 -120 -1 -171 -57 -30 -32 -47 -43 -60 -39 -11 3 -62 10 -114 16 -52
6 -111 12 -130 15 -42 5 -114 13 -190 20 -30 3 -116 12 -190 20 -74 8 -184 19
-244 25 -62 6 -121 18 -136 26 -30 18 -61 69 -54 88 15 39 -210 217 -391 309
-158 80 -358 158 -451 177 -109 21 -137 34 -117 54 4 3 8 14 9 24 2 9 5 28 8
42 30 150 34 367 10 530 -18 116 -54 254 -94 351 -35 86 -112 221 -152 268
-19 22 -27 39 -22 50 9 22 9 105 0 166 -15 95 -53 152 -219 325 l-105 109 -5
-37 c-3 -20 -15 -100 -26 -177 -11 -77 -23 -151 -26 -165 -3 -14 -16 -97 -31
-185 -86 -542 -93 -577 -124 -625 -40 -62 -65 -84 -130 -114 -63 -29 -141 -33
-375 -16 -71 5 -202 12 -290 16 -150 6 -163 6 -201 -14 -91 -47 -174 -166
-189 -272 -22 -155 -30 -197 -38 -207 -6 -9 -5 -13 4 -13 11 0 11 -2 1 -8 -11
-8 -25 -96 -54 -359 -9 -79 -9 -130 2 -231 12 -122 12 -131 -6 -168 -10 -22
-23 -37 -29 -36 -5 2 -9 8 -8 12 1 5 -4 46 -12 92 -8 45 -15 113 -15 151 0 37
-4 67 -9 67 -5 0 -12 21 -16 48 -5 42 9 159 56 467 5 33 12 83 15 110 7 74 41
193 71 247 36 67 115 142 181 175 53 26 66 28 182 28 121 0 363 -11 425 -20
99 -14 199 -15 206 -3 6 9 9 10 9 1 0 -14 60 17 98 51 59 52 82 146 152 616
22 152 70 460 100 655 11 72 23 153 26 180 4 28 8 52 9 55 2 3 15 77 29 165
14 88 30 187 35 220 6 33 15 89 20 125 6 36 22 136 36 222 14 87 23 173 21
191 -7 60 -33 105 -76 133 l-42 28 -1098 4 c-800 3 -1107 1 -1132 -7 -39 -13
-92 -61 -113 -102 -17 -32 -61 -300 -140 -849 -19 -135 -49 -335 -65 -445 -38
-254 -96 -660 -120 -835 -35 -254 -42 -295 -51 -298 -26 -10 -69 -56 -78 -85
-5 -18 -17 -86 -25 -152 -9 -66 -23 -163 -31 -215 -9 -52 -22 -142 -29 -200
-8 -58 -21 -152 -30 -210 -9 -58 -25 -177 -36 -265 -30 -233 -30 -237 -40
-270 -5 -16 -18 -109 -30 -205 -26 -213 -22 -187 -54 -400 -14 -95 -26 -180
-26 -187 0 -15 31 -23 258 -63 l183 -32 65 31 c97 47 153 58 347 66 136 6 177
5 177 -5 0 -7 -12 -34 -27 -61 l-28 -49 -150 0 c-213 0 -305 -28 -392 -118
-55 -59 -127 -214 -135 -296 -2 -24 -10 -32 -43 -43 -48 -17 -130 -22 -130 -8
0 6 8 9 17 8 24 -4 72 69 93 142 24 84 71 185 101 216 l26 27 -34 10 c-18 6
-121 28 -228 48 -107 20 -196 38 -198 40 -3 2 23 215 63 509 8 61 18 130 21
155 6 42 27 176 39 245 3 17 6 37 6 45 1 8 10 64 19 123 10 60 15 117 13 128
-3 11 0 19 6 19 7 0 9 4 6 10 -3 5 -1 46 6 90 6 45 9 83 7 86 -8 7 -230 -161
-383 -290 -77 -65 -156 -125 -175 -134 -19 -8 -88 -28 -154 -43 l-118 -27 -38
38 c-42 42 -118 66 -175 56 -19 -4 -35 -3 -35 2 0 4 26 26 58 48 31 22 104 73
162 114 121 84 456 313 710 485 96 65 183 125 192 134 13 12 25 71 48 221 17
113 34 216 37 229 3 13 25 37 49 54 35 24 41 33 34 48 -6 9 -24 20 -42 24 -38
7 -245 53 -300 67 -21 5 -38 15 -38 22 0 22 -70 44 -243 77 -89 16 -170 34
-179 40 -31 16 -48 11 -48 -17 0 -21 -4 -25 -17 -19 -10 3 -81 20 -158 36 -77
17 -183 41 -235 54 -105 27 -219 53 -355 84 -49 11 -180 40 -290 65 -110 25
-292 65 -405 91 -113 25 -261 59 -330 75 -69 16 -208 48 -310 70 -102 23 -209
47 -239 53 -78 18 -74 32 11 47 99 16 90 17 293 -28 195 -44 378 -84 520 -113
71 -15 263 -56 332 -72 7 -2 16 -6 19 -10 4 -4 24 -7 44 -7 20 0 40 -4 46 -9
5 -6 25 -12 44 -14 20 -2 40 -6 45 -9 6 -3 20 -4 33 -3 12 1 22 -2 22 -6 0 -4
8 -6 18 -5 9 2 24 -1 32 -5 8 -4 112 -29 230 -54 381 -81 713 -155 775 -170
33 -9 72 -17 87 -20 14 -2 64 -13 110 -23 45 -11 116 -26 156 -33 39 -7 72
-17 72 -22 0 -4 4 -6 10 -2 5 3 47 -3 92 -14 46 -11 113 -27 150 -34 l67 -14
6 41 c24 184 37 279 55 396 11 74 25 171 31 215 10 81 45 301 54 343 5 22 4
22 -57 17 -73 -7 -1051 -103 -1118 -110 -81 -9 -343 -35 -450 -45 -111 -11
-461 -48 -520 -55 -19 -2 -138 -16 -265 -31 -126 -14 -241 -27 -255 -29 -92
-11 -160 -17 -160 -12 0 3 17 11 38 18 157 51 308 202 421 425 71 140 67 187
-28 336 -31 48 -76 119 -101 158 -25 40 -65 93 -90 119 -54 55 -209 150 -300
181 -36 13 -69 28 -75 33 -17 16 116 -3 162 -23 34 -15 53 -17 115 -10 40 4
119 11 176 15 56 4 102 10 102 14 0 10 -55 29 -179 61 -356 95 -420 112 -461
125 -25 7 -67 18 -95 24 -27 6 -120 29 -205 51 -85 23 -267 70 -405 105 -137
35 -302 79 -365 97 l-115 33 4 50 c1 28 4 51 5 52 1 1 22 -4 46 -12 25 -7 185
-50 355 -94 325 -84 853 -222 1040 -273 61 -17 144 -38 186 -48 41 -9 97 -24
125 -33 27 -8 72 -20 99 -27 28 -6 59 -16 70 -20 57 -25 177 -52 225 -52 74 0
124 5 130 14 3 3 39 8 80 11 41 2 82 7 90 10 8 3 38 8 65 11 170 16 240 30
256 49 22 27 110 34 170 14 25 -9 63 -14 85 -11 21 2 100 10 174 19 74 8 263
29 419 46 l284 30 28 30 c15 16 34 29 42 29 35 0 197 -43 197 -51 0 -6 4 -7
10 -4 15 9 98 -31 147 -71 25 -20 48 -33 52 -28 5 5 11 26 14 46 5 30 2 40
-12 48 -70 37 -630 213 -1226 385 -203 59 -424 124 -490 145 -33 10 -163 49
-290 85 -126 37 -284 82 -350 102 -66 19 -165 47 -220 63 -168 47 -332 96
-510 150 -93 29 -217 65 -275 81 -160 45 -273 78 -410 120 -476 143 -536 161
-836 246 -97 28 -102 31 -165 94 -104 106 -217 145 -349 121 -39 -7 -56 -7
-59 1 -11 31 -88 97 -140 121 -82 36 -154 37 -244 1 l-68 -28 -152 43 c-167
47 -387 112 -457 135 -25 8 -211 62 -415 120 -203 58 -399 115 -434 125 -77
24 -161 26 -207 4 -188 -89 -309 -405 -245 -638 20 -73 59 -145 94 -175 17
-13 269 -88 527 -156 91 -24 202 -55 248 -70 46 -14 140 -41 210 -60 70 -18
186 -50 257 -69 72 -20 158 -43 193 -52 41 -11 62 -21 62 -31 0 -43 -34 -193
-44 -193 -6 0 -27 4 -46 9 -206 53 -644 166 -715 185 -143 39 -503 133 -710
186 -197 51 -527 138 -795 211 -85 23 -220 58 -300 79 -80 21 -215 57 -300 80
-85 23 -180 48 -210 56 -30 8 -131 36 -225 61 -93 25 -219 58 -280 74 -60 16
-177 47 -260 69 -82 21 -229 60 -325 85 -96 25 -265 70 -375 100 -110 29 -252
67 -315 84 -63 16 -200 52 -305 80 -104 27 -233 61 -285 75 -52 13 -131 34
-175 46 -161 44 -304 81 -470 124 -197 51 -570 150 -665 176 -110 30 -360 97
-470 125 -122 32 -234 62 -375 100 -186 51 -268 63 -330 48z m320 -118 c97
-26 116 -36 139 -74 20 -33 65 -161 82 -236 10 -47 13 -314 3 -380 -5 -33 -11
-78 -14 -100 -18 -127 -100 -368 -162 -476 l-32 -56 -38 8 c-83 18 -133 33
-133 39 0 7 25 68 56 137 8 17 23 60 33 95 125 410 126 815 1 1011 -35 55 -36
60 -12 53 9 -3 44 -12 77 -21z m-289 -225 c120 -42 139 -371 41 -697 -51 -170
-159 -323 -226 -323 -102 0 -165 210 -134 446 34 257 139 494 248 560 47 28
36 26 71 14z m7101 -646 c23 -36 42 -136 37 -192 -9 -90 -43 -171 -93 -223
-52 -53 -87 -63 -129 -33 -78 55 -73 258 11 384 43 65 75 90 119 90 29 0 41
-6 55 -26z m99 -3 c32 -10 118 -35 189 -55 72 -19 236 -65 365 -101 129 -36
269 -75 310 -86 78 -22 112 -32 145 -45 11 -4 29 -9 40 -11 11 -2 31 -7 45
-12 14 -6 97 -31 185 -56 278 -80 323 -95 335 -110 18 -22 -4 -20 -97 9 -43
13 -141 41 -218 61 -77 21 -270 73 -430 117 -159 44 -330 91 -380 105 -397
108 -554 161 -563 191 -5 16 4 15 74 -7z m1313 -77 c52 -26 91 -71 91 -106 0
-10 9 -22 19 -28 12 -6 23 -29 30 -60 16 -76 14 -100 -8 -100 -35 0 -51 12
-51 39 0 89 -78 192 -176 231 -49 20 -53 24 -37 36 28 21 74 16 132 -12z m404
-135 c53 -14 102 -61 137 -130 16 -33 30 -63 30 -67 0 -4 -16 -8 -34 -8 -30 0
-37 5 -51 36 -9 19 -43 64 -75 100 -77 83 -78 89 -7 69z m-102 -140 c48 -16
78 -46 105 -106 46 -99 51 -173 29 -393 -3 -25 -7 -81 -10 -125 -4 -70 -24
-345 -40 -545 -9 -112 -26 -352 -30 -424 -3 -38 -7 -76 -9 -85 -4 -14 -12
-150 -21 -336 -1 -33 -5 -91 -9 -130 -3 -38 -8 -108 -11 -155 -4 -47 -8 -92
-10 -100 -2 -8 -7 -67 -10 -130 -14 -277 -46 -449 -111 -586 -40 -86 -82 -125
-181 -171 -40 -18 -86 -46 -101 -61 -47 -46 -177 -338 -207 -466 -20 -84 -20
-205 0 -212 20 -8 19 -34 0 -34 -9 0 -29 7 -45 15 -26 14 -30 21 -31 63 -1 43
2 290 5 390 0 24 -2 46 -5 48 -8 4 -173 23 -176 20 -1 -1 5 -56 13 -122 9 -68
13 -147 10 -184 -3 -36 -6 -90 -6 -120 0 -47 -2 -52 -14 -40 -10 10 -18 58
-25 149 -6 74 -15 139 -20 145 -5 6 -13 29 -17 51 -6 33 -72 238 -100 309 -7
19 -5 18 24 -2 84 -61 228 -68 303 -17 47 33 109 122 109 156 0 15 4 19 16 15
9 -3 25 -6 35 -6 11 0 18 -3 16 -7 -3 -5 47 -9 110 -11 112 -3 115 -3 151 25
56 43 79 72 117 150 87 177 63 419 -48 478 -38 20 -38 20 -31 71 6 55 -14 123
-38 125 -7 0 -22 3 -33 5 -47 11 -214 11 -255 1 -35 -9 -50 -21 -69 -50 l-25
-37 -35 34 c-58 57 -112 76 -217 76 -76 0 -98 -4 -140 -25 -27 -13 -61 -36
-76 -50 -24 -22 -28 -23 -28 -8 0 29 30 256 34 260 2 2 51 -10 110 -26 98 -28
141 -51 203 -108 30 -27 115 -45 193 -41 92 5 154 32 245 105 208 168 349 556
332 915 -8 164 -52 298 -134 411 -25 33 -32 51 -25 60 14 17 24 71 28 141 l3
60 58 26 c72 33 117 87 149 179 26 73 32 178 13 246 -10 35 -72 115 -90 115
-3 0 -30 11 -60 24 l-53 23 29 16 c36 19 61 21 106 6z m539 -223 c4 -13 10
-32 12 -42 2 -11 6 -21 9 -24 8 -5 15 -46 23 -130 6 -58 12 -298 22 -870 3
-190 7 -376 9 -415 2 -38 7 -163 11 -277 l7 -208 -24 1 c-69 2 -334 47 -332
56 1 6 19 39 39 73 46 79 78 176 103 319 42 232 17 452 -71 639 -24 50 -28 65
-18 77 7 8 17 66 23 128 l10 114 35 13 c58 21 116 89 137 161 20 65 31 298 15
309 -12 9 -39 100 -29 100 5 0 14 -11 19 -24z m-1240 -281 c36 -9 85 -22 110
-30 l45 -15 -3 -89 c-2 -49 0 -97 6 -107 14 -29 4 -44 -31 -44 -38 0 -238 49
-251 61 -6 6 -3 44 8 101 22 116 37 163 45 150 3 -6 35 -18 71 -27z m2614
-1184 c22 -24 17 -53 -9 -57 -11 -2 -121 -14 -245 -29 -365 -42 -410 -48 -410
-56 0 -5 14 -16 31 -25 63 -32 163 -149 273 -316 l109 -167 46 5 c25 3 69 10
96 14 28 5 75 12 105 15 30 3 82 10 115 15 124 20 422 59 470 62 46 3 50 1 59
-24 5 -15 7 -30 4 -33 -8 -8 -749 -119 -852 -127 -24 -2 -33 -11 -50 -48 -19
-39 -58 -100 -99 -150 -7 -9 -25 -36 -41 -60 -16 -25 -38 -58 -48 -73 -11 -16
-18 -31 -15 -33 6 -6 168 11 347 37 186 26 195 26 198 -9 l2 -28 -147 -22
c-82 -12 -168 -24 -193 -27 -218 -25 -273 -34 -293 -49 -145 -104 -224 -149
-283 -161 -61 -13 -167 -18 -161 -8 4 6 21 13 38 17 61 12 215 79 279 121 81
53 108 83 202 227 169 258 175 275 126 359 -39 67 -222 320 -255 353 -63 64
-229 158 -360 206 -35 12 -63 24 -63 26 0 2 34 3 75 2 41 -2 75 -5 75 -9 0 -3
6 -6 13 -7 17 -1 69 -12 84 -17 7 -2 37 0 65 5 29 5 80 12 113 15 33 3 71 8
85 10 14 2 93 11 175 20 120 14 227 29 316 44 3 1 14 -8 23 -18z m-778 -483
c89 -92 184 -215 184 -239 0 -5 -74 -9 -164 -9 l-163 0 -22 59 c-21 59 -67
111 -97 111 -8 0 -14 4 -14 10 0 10 160 169 171 170 3 0 51 -46 105 -102z
m-871 -27 c44 -6 116 -12 160 -16 44 -3 92 -8 107 -11 l27 -5 -34 -44 c-62
-81 -70 -229 -18 -307 14 -20 23 -41 22 -46 -4 -7 -263 30 -296 43 -19 6 -16
80 3 99 10 10 34 16 67 16 84 0 94 6 100 53 2 23 1 46 -3 50 -9 11 -214 57
-251 57 -37 0 -42 11 -34 70 7 48 8 50 39 50 17 0 67 -4 111 -9z m-1073 -243
c75 -22 118 -112 118 -247 0 -127 -56 -276 -129 -346 -28 -26 -40 -30 -102
-33 -82 -5 -107 8 -62 32 101 52 180 241 171 409 -4 61 -11 89 -36 137 -34 66
-31 70 40 48z m-961 -33 c85 -20 264 -58 399 -85 208 -41 257 -48 320 -43 96
6 111 -4 118 -79 7 -85 -29 -138 -93 -138 -36 0 -91 25 -118 53 -19 21 -50 30
-212 62 -104 20 -286 57 -403 83 l-213 46 6 51 c9 69 14 85 29 85 7 0 82 -16
167 -35z m9686 -1082 c49 -113 114 -326 116 -382 2 -69 -1 -70 -142 -46 -121
21 -144 36 -135 87 13 73 59 193 84 222 35 40 45 80 25 100 -16 16 -19 35 -9
60 12 31 35 15 61 -41z m-7772 37 c0 -1 9 -3 20 -5 61 -11 432 -89 445 -93 8
-3 -31 -11 -88 -18 -128 -16 -392 -77 -492 -113 l-75 -28 0 78 1 79 59 53 c49
45 64 53 94 51 20 -1 36 -2 36 -4z m-258 -206 c7 -19 -23 -120 -38 -130 -5 -3
-16 -4 -23 -1 -16 6 -5 110 14 133 16 19 39 18 47 -2z m1408 -24 c713 -133
1019 -192 1026 -199 4 -3 -8 -106 -26 -228 -37 -257 -9 -209 -226 -374 -128
-98 -392 -307 -482 -382 -80 -68 -140 -225 -108 -285 11 -21 10 -22 -26 -22
-59 1 -86 18 -168 108 l-76 83 7 68 6 67 -55 43 c-31 23 -74 62 -96 86 -33 36
-40 50 -35 72 7 39 48 407 80 708 14 138 27 256 29 263 6 16 21 15 150 -8z
m1600 -305 c102 -22 128 -27 143 -28 13 0 -25 -40 -550 -572 l-266 -270 -8
-55 c-9 -55 -9 -55 -66 -82 -77 -37 -83 -66 -63 -289 l8 -87 -93 19 c-160 33
-340 79 -369 94 -37 18 -89 79 -97 111 -10 39 3 111 28 157 22 40 189 176 789
649 96 75 239 189 319 252 80 63 147 115 150 115 3 0 37 -6 75 -14z m5080 -94
c37 -10 72 -24 78 -30 18 -18 -29 -321 -55 -346 -2 -2 -30 -1 -61 2 -67 7 -63
1 -133 175 -35 88 -44 122 -44 170 l0 61 74 -7 c40 -4 104 -15 141 -25z m-472
-44 c-10 -11 -12 -17 -5 -13 10 6 12 0 7 -31 -12 -71 -90 -288 -103 -288 -15
0 -116 211 -109 228 3 7 31 26 63 42 32 17 69 39 83 51 56 45 101 53 64 11z
m153 -119 c9 -29 30 -81 46 -116 17 -35 27 -66 23 -70 -4 -4 -42 -9 -85 -10
l-79 -4 9 33 c24 85 40 163 40 190 0 48 27 35 46 -23z m-575 -33 l86 2 18 -56
c9 -31 28 -74 41 -97 13 -22 24 -44 24 -47 0 -4 -15 -7 -32 -7 -62 -1 -263
-68 -345 -116 l-43 -25 0 23 c0 13 7 48 15 78 8 31 15 99 15 155 l0 100 68 -6
c37 -4 106 -6 153 -4z m859 -274 c73 -20 130 -48 253 -120 100 -60 154 -110
186 -176 14 -28 28 -53 33 -56 5 -3 12 -25 15 -48 l6 -41 -76 0 -76 0 -43 73
c-83 141 -142 194 -308 277 -133 67 -180 80 -286 80 -88 0 -94 -1 -113 -26
-30 -39 -14 -56 81 -88 101 -34 259 -114 311 -157 36 -30 123 -137 115 -144
-1 -1 -39 -18 -83 -37 l-81 -35 -83 89 c-79 84 -151 136 -231 168 -19 7 -57
23 -85 35 -143 62 -164 68 -228 62 -124 -12 -179 -48 -164 -109 9 -33 46 -56
180 -112 133 -54 240 -115 307 -174 l51 -44 -48 -33 c-26 -18 -63 -47 -81 -65
l-34 -32 -26 24 c-14 12 -33 29 -41 37 -20 18 -118 81 -126 81 -4 0 -74 30
-158 67 -170 74 -218 81 -332 49 -94 -27 -105 -38 -105 -97 0 -66 28 -94 135
-138 186 -75 422 -208 412 -232 -1 -3 -34 -41 -74 -84 l-71 -77 -44 30 c-65
44 -132 76 -306 145 -142 56 -163 62 -227 61 -84 -1 -178 -34 -202 -70 -20
-31 -13 -129 11 -166 20 -30 36 -38 201 -95 189 -66 355 -154 355 -188 0 -13
-117 -195 -125 -195 -2 0 -32 13 -67 29 -105 47 -412 141 -480 147 -60 6 -67
4 -148 -38 l-85 -43 0 -55 c1 -118 53 -167 237 -219 131 -37 270 -87 313 -111
77 -44 105 -63 105 -70 0 -4 -18 -46 -40 -93 -22 -47 -43 -99 -46 -117 -4 -17
-12 -29 -18 -27 -46 18 -316 107 -336 111 -14 3 -61 15 -105 27 -174 46 -165
46 -236 12 -35 -17 -82 -46 -104 -65 -32 -29 -39 -41 -38 -70 1 -44 42 -126
85 -168 41 -42 71 -54 221 -90 117 -28 421 -116 435 -126 2 -2 -7 -31 -21 -66
-13 -35 -32 -93 -42 -130 -10 -38 -22 -68 -28 -68 -9 0 -389 86 -513 115 -33
8 -78 15 -100 15 -85 0 -224 -99 -224 -159 0 -57 82 -191 132 -217 33 -17 280
-77 408 -99 52 -9 131 -24 175 -34 l80 -18 -3 -48 c-1 -26 -7 -54 -12 -60 -6
-7 -13 -46 -16 -89 l-7 -76 -34 0 c-34 0 -99 9 -393 57 -91 14 -179 28 -196
30 -18 3 -45 -2 -63 -11 -17 -9 -31 -13 -31 -9 0 4 -6 -1 -13 -12 -9 -12 -19
-15 -28 -10 -8 5 -11 5 -7 0 5 -5 -14 -23 -40 -40 -45 -31 -105 -91 -127 -129
-9 -15 -14 -15 -75 2 -105 30 -220 82 -236 108 -13 18 -14 39 -9 99 4 41 11
78 16 81 5 3 7 9 5 13 -2 3 38 -4 90 -17 104 -26 123 -24 176 23 53 46 68 83
68 169 0 94 -25 155 -77 187 -18 12 -73 28 -121 36 -48 8 -89 17 -91 19 -15
14 16 220 38 262 12 23 16 23 139 21 101 -2 133 0 157 13 37 20 67 53 90 97
36 71 -1 202 -70 247 -14 9 -54 18 -93 21 -104 7 -114 10 -107 36 12 44 59
153 77 178 19 28 53 37 216 58 47 6 88 19 118 36 114 67 148 209 68 289 -31
31 -49 33 -147 22 -42 -5 -80 -6 -83 -3 -3 2 15 45 39 93 53 106 59 110 237
154 189 48 232 70 281 148 35 56 37 97 5 137 -21 26 -29 29 -79 28 -31 -1 -82
-7 -112 -13 -31 -7 -59 -10 -61 -7 -2 2 24 41 58 87 70 94 69 93 253 140 160
41 221 65 272 106 53 44 77 92 64 127 -5 13 -17 27 -26 31 -28 10 -99 7 -148
-8 -26 -8 -47 -11 -47 -8 0 4 21 27 47 50 67 61 153 98 296 127 205 42 315 93
305 142 -3 15 -16 18 -96 21 -50 1 -92 7 -92 11 0 28 338 110 535 130 l60 6 1
35 c0 31 3 35 35 42 18 4 68 10 109 14 41 4 77 8 79 10 2 2 90 4 195 4 156 0
203 -3 256 -19z m487 -87 c123 -51 236 -127 273 -183 37 -59 66 -126 74 -174
6 -34 5 -38 -11 -34 -10 3 -38 9 -63 12 -25 4 -51 10 -58 14 -7 4 -25 43 -41
87 -35 102 -68 152 -122 189 -99 67 -171 125 -155 125 9 0 56 -16 103 -36z
m-8345 -154 c124 -39 227 -165 215 -266 -8 -77 -59 -164 -158 -268 -99 -104
-102 -115 -49 -154 17 -13 30 -29 30 -36 0 -8 -18 -38 -41 -66 -48 -60 -50
-60 -183 -9 -43 17 -84 28 -91 25 -7 -2 -17 -24 -23 -48 -19 -74 -74 -163
-156 -253 -82 -89 -193 -171 -249 -185 -18 -5 -57 -18 -87 -29 -105 -40 -243
-19 -281 43 -10 17 -19 46 -19 63 0 31 25 109 40 126 4 4 21 -21 38 -58 21
-44 42 -71 64 -85 93 -57 278 13 403 152 67 75 85 115 85 191 0 77 -25 122
-85 151 l-39 18 29 15 c24 13 39 14 97 4 l69 -11 54 56 c41 44 58 55 72 49 10
-4 25 -9 33 -11 8 -3 45 22 82 54 37 32 90 74 118 93 50 33 60 49 62 99 1 14
6 31 11 38 6 8 6 12 -2 12 -6 0 -11 7 -11 15 0 8 5 15 10 15 6 0 10 7 10 16 0
9 -5 12 -12 8 -8 -5 -9 6 -5 40 6 45 5 50 -26 81 -48 48 -228 95 -283 74 -37
-13 -48 22 -16 48 9 8 11 11 3 7 -10 -5 -12 -3 -6 6 12 20 213 7 297 -20z
m2889 -30 c42 -13 69 -26 69 -35 0 -29 -197 -85 -301 -85 -54 0 -214 25 -233
37 -5 3 -1 10 8 15 9 5 14 13 11 18 -5 8 20 17 150 54 78 22 215 20 296 -4z
m232 -86 c48 -9 87 -21 87 -26 0 -4 8 -8 18 -8 35 0 -12 -20 -183 -76 -341
-111 -489 -135 -724 -115 -135 11 -264 46 -269 73 -2 10 19 24 65 43 37 15 82
34 98 41 17 8 55 22 85 33 30 10 63 22 73 26 15 6 17 1 17 -44 0 -61 14 -73
110 -95 104 -24 254 -15 395 26 115 33 121 38 119 97 -2 34 1 49 9 46 7 -2 51
-11 100 -21z m5828 -91 c63 -66 67 -73 44 -73 -13 0 -42 7 -64 16 -34 13 -45
26 -75 86 -20 38 -36 72 -36 74 0 15 71 -41 131 -103z m-5403 -60 c49 -38 85
-112 90 -184 7 -97 -15 -137 -93 -166 -150 -57 -342 -129 -393 -149 -35 -14
-67 -24 -72 -22 -5 2 0 21 11 43 30 61 21 151 -25 251 -20 43 -43 82 -51 87
-20 11 -19 27 0 27 9 0 26 6 38 14 12 8 85 35 161 61 76 26 153 54 170 61 49
22 120 12 164 -23z m5477 17 c3 -5 2 -10 -4 -10 -5 0 -13 5 -16 10 -3 6 -2 10
4 10 5 0 13 -4 16 -10z m990 -216 c30 -4 55 -9 55 -13 0 -4 -33 -36 -72 -71
-40 -36 -125 -115 -188 -176 -227 -220 -257 -244 -310 -244 -47 0 -90 44 -90
92 0 32 14 47 182 199 100 90 188 171 196 179 8 8 27 23 41 33 27 18 29 18
186 1z m-345 -87 c-8 -7 -62 -56 -120 -107 -58 -52 -117 -105 -131 -118 l-27
-23 -42 78 c-23 43 -55 92 -72 110 l-30 31 43 6 c24 3 105 11 179 17 74 6 136
12 137 13 1 1 19 3 40 4 33 3 36 1 23 -11z m-10532 -9 c39 -39 -18 -127 -114
-174 -51 -25 -55 -25 -79 -10 -31 21 -31 29 3 91 21 38 39 55 81 77 58 30 90
35 109 16z m11576 -78 c-3 -100 -4 -110 -13 -110 -11 0 -115 69 -119 79 -1 4
13 23 31 44 19 20 31 39 28 42 -3 4 12 5 34 3 l40 -3 -1 -55z m2101 -143 c66
-25 69 -33 39 -105 -13 -32 -16 -33 -51 -28 -21 3 -126 13 -233 21 -290 23
-282 21 -278 53 4 38 43 40 108 7 29 -15 60 -24 69 -22 9 3 75 26 146 51 72
25 132 46 135 45 3 0 32 -10 65 -22z m-10285 -27 c88 -10 97 -13 130 -45 46
-45 97 -65 163 -65 l53 0 4 -272 c2 -150 4 -293 4 -318 l1 -45 -55 -8 c-75
-12 -221 -2 -300 20 l-65 18 -2 50 c-6 113 -34 545 -39 608 -4 37 -3 67 2 67
5 0 52 -5 104 -10z m8470 -65 c122 -10 615 -55 660 -60 90 -10 257 -25 335
-30 44 -3 98 -7 120 -10 40 -5 257 -24 350 -30 27 -2 88 -8 135 -14 47 -6 119
-13 160 -16 41 -3 120 -10 175 -15 55 -5 156 -14 225 -19 69 -6 204 -17 300
-25 96 -8 213 -18 260 -22 47 -3 106 -9 131 -13 89 -14 291 11 327 41 7 6 15
8 19 4 9 -9 -23 -33 -87 -64 -50 -25 -65 -27 -175 -27 -123 0 -225 8 -395 30
-19 3 -145 14 -280 25 -135 11 -321 27 -415 35 -321 29 -490 45 -535 50 -25 3
-175 16 -335 30 -159 14 -339 29 -400 35 -60 5 -220 19 -355 30 -291 25 -288
24 -331 56 l-34 26 40 -6 c22 -3 69 -8 105 -11z m2493 -113 l48 -29 -42 -12
c-44 -13 -189 -6 -189 10 0 4 16 11 35 15 19 3 44 15 56 25 29 25 35 24 92 -9z
m-11095 -315 c2 -42 0 -77 -3 -77 -9 0 -205 49 -241 61 -21 6 -52 36 -95 89
-35 44 -67 80 -71 80 -5 0 -8 6 -8 13 0 9 60 -2 208 -38 l207 -51 3 -77z
m11908 97 c139 -41 150 -109 29 -175 -88 -49 -281 -95 -833 -200 -159 -31
-163 -31 -178 -13 -9 11 -13 14 -10 8 3 -7 0 -17 -8 -23 -12 -10 -157 -37
-386 -71 -77 -11 -246 -12 -313 -1 -45 8 -49 6 -68 -21 -23 -32 -35 -35 -61
-11 -28 25 -25 104 6 139 l23 28 49 -21 c27 -11 78 -23 114 -27 111 -10 482
23 495 45 3 4 -15 18 -40 30 -25 13 -51 30 -58 38 -25 30 164 -10 221 -47 16
-11 26 -12 30 -5 4 6 71 21 149 34 120 18 140 24 136 38 -5 12 -3 13 6 5 17
-15 475 77 499 100 3 3 -10 6 -28 6 -18 0 -30 3 -27 7 4 3 2 12 -4 19 -16 20
-3 44 23 44 62 -1 94 -31 61 -56 -10 -7 -13 -14 -7 -14 23 0 58 36 51 54 -4
10 -11 15 -16 12 -5 -4 -11 -2 -13 3 -1 5 -25 18 -53 29 l-50 20 65 21 c71 22
132 24 196 5z m-10634 -33 c33 -31 35 -61 8 -86 -20 -18 -26 -51 -12 -71 16
-24 57 -36 136 -38 46 -2 88 -6 95 -10 21 -13 11 -35 -16 -38 l-28 -3 0 -142
c0 -77 -3 -144 -7 -148 -4 -4 -14 -5 -23 -2 -11 5 -15 23 -16 79 -1 173 -15
227 -56 211 -12 -5 -14 -30 -13 -142 1 -75 1 -142 1 -148 -1 -7 -12 -13 -25
-13 -23 0 -24 2 -25 98 -2 134 -10 190 -29 197 -31 12 -36 -13 -33 -160 l3
-145 -25 0 c-24 0 -24 2 -26 83 -2 101 -11 191 -21 207 -4 7 -16 9 -29 5 -21
-6 -21 -11 -19 -156 3 -145 3 -150 -17 -147 -19 3 -20 13 -27 137 -6 139 -17
171 -53 157 -15 -5 -16 -24 -15 -144 2 -171 4 -162 -19 -162 -21 0 -26 27 -30
168 -2 99 -13 132 -41 132 -19 0 -20 -6 -20 -150 0 -127 -2 -152 -15 -157 -9
-3 -18 -4 -20 -1 -2 2 -7 60 -10 128 -7 151 -10 166 -31 174 -39 15 -44 -9
-38 -160 l7 -144 -26 0 -25 0 -1 108 c-1 60 -4 122 -7 138 -7 37 -28 59 -49
50 -16 -6 -17 -22 -14 -154 4 -136 3 -147 -14 -147 -10 0 -22 -7 -27 -15 -10
-15 -12 15 -14 235 -1 95 1 104 38 190 21 50 43 93 48 96 5 3 60 9 123 12 119
6 144 13 181 56 15 17 33 27 56 28 18 1 49 6 68 11 65 18 122 12 152 -17z
m-2122 -141 c59 -68 216 -244 278 -312 l24 -27 -63 21 c-183 57 -262 79 -276
74 -12 -5 -14 -27 -12 -123 3 -131 -5 -147 -51 -98 -24 25 -26 36 -37 228 -6
111 -12 247 -12 302 l-1 100 43 -45 c23 -25 71 -79 107 -120z m3016 -208 c-4
-11 -25 -27 -50 -36 -132 -51 -106 -121 41 -113 58 3 87 11 139 37 89 46 105
79 48 100 -33 13 -21 44 15 37 14 -3 67 -13 118 -23 54 -10 90 -22 86 -27 -4
-6 3 -8 15 -5 12 4 22 2 22 -4 0 -6 7 -8 15 -4 8 3 15 1 15 -4 0 -6 10 -10 23
-11 12 0 -5 -9 -38 -19 -182 -56 -388 -150 -417 -190 -13 -18 -19 -54 -23
-135 -4 -60 -10 -130 -15 -155 -5 -25 -12 -112 -16 -193 -4 -94 -11 -150 -18
-153 -9 -3 -209 44 -409 97 l-38 10 6 182 c4 100 11 223 16 274 5 51 9 117 9
146 l0 54 43 16 c23 9 56 19 72 23 17 4 35 10 40 15 6 4 12 7 15 8 3 0 14 3
24 7 56 22 261 90 264 88 2 -1 1 -11 -2 -22z m3705 8 c160 -49 308 -177 415
-357 77 -130 145 -320 176 -493 16 -90 22 -164 24 -345 2 -220 0 -263 -27
-435 -49 -321 -200 -694 -382 -947 -377 -522 -895 -589 -1216 -158 -129 172
-209 405 -246 710 -40 339 18 747 160 1105 114 289 230 476 408 658 122 125
250 209 379 251 35 11 70 22 78 25 40 12 172 5 231 -14z m-5296 -171 c5 -83 3
-129 -3 -133 -6 -3 -13 -2 -17 3 -9 15 -19 237 -11 257 14 37 25 -5 31 -127z
m-440 120 c4 -5 9 -49 11 -97 l5 -87 -21 24 c-16 19 -20 37 -20 97 0 68 9 90
25 63z m374 -186 c1 -41 -4 -75 -10 -78 -6 -4 -12 -5 -14 -4 -2 2 -6 60 -10
128 -5 97 -3 126 7 132 15 10 25 -57 27 -178z m-277 42 c4 -71 5 -131 2 -134
-2 -3 -11 2 -18 10 -10 9 -17 51 -21 126 -6 113 -3 137 18 130 8 -2 15 -49 19
-132z m89 23 c1 -57 2 -116 3 -133 1 -20 -4 -31 -15 -33 -18 -3 -29 67 -29
194 0 67 2 74 20 74 19 0 20 -7 21 -102z m99 -18 c5 -114 0 -140 -26 -140 -10
0 -12 15 -9 65 3 36 1 65 -3 65 -4 0 -8 29 -9 66 -1 61 1 65 21 62 20 -3 21
-10 26 -118z m8988 -23 c28 0 66 7 86 17 59 28 105 -13 54 -48 -15 -11 -45
-16 -92 -16 -62 0 -73 -3 -97 -26 -16 -15 -34 -24 -43 -21 -20 8 -31 88 -16
117 l12 22 23 -22 c17 -16 36 -22 73 -23z m-12186 -111 c51 -68 172 -245 208
-303 l33 -53 -26 -32 c-53 -70 -158 -167 -202 -188 -85 -41 -177 -14 -233 69
-58 87 -65 192 -19 284 26 50 187 267 198 267 5 0 23 -20 41 -44z m1166 -191
c85 -19 161 -35 170 -35 10 0 24 -5 32 -10 12 -8 9 -15 -21 -39 -20 -17 -49
-56 -65 -88 -24 -49 -28 -70 -29 -140 0 -45 -3 -79 -6 -77 -4 2 -19 25 -34 52
-25 42 -156 240 -221 331 -30 42 -30 55 -1 47 12 -3 91 -22 175 -41z m1217
-160 c222 -55 327 -83 333 -89 2 -3 -9 -8 -24 -11 -16 -4 -71 -20 -122 -37
-72 -23 -105 -40 -142 -73 -57 -51 -119 -69 -235 -70 -78 0 -83 2 -196 59 -64
32 -129 69 -145 81 -27 22 -28 24 -9 31 120 42 360 145 360 154 0 0 81 -20
180 -45z m-696 17 c56 -22 67 -43 17 -35 -55 9 -121 -35 -152 -100 -36 -79
-28 -149 25 -204 37 -39 -19 -34 -75 7 -32 23 -44 54 -44 112 0 98 34 171 99
215 40 27 70 28 130 5z m2363 -144 c-10 -10 -318 -115 -422 -144 l-62 -17 -29
31 c-37 39 -75 59 -127 68 -42 7 -70 19 -61 28 6 6 299 34 409 39 143 7 301 4
292 -5z m-597 -164 c37 -40 25 -48 -41 -29 -32 10 -91 -46 -107 -102 -25 -84
5 -183 55 -183 11 0 16 -4 13 -10 -3 -5 -21 -10 -40 -10 -66 0 -116 94 -99
186 24 136 151 221 219 148z m-582 -91 c13 -37 13 -51 4 -60 -7 -6 -187 -71
-402 -143 -214 -73 -419 -143 -454 -156 -72 -27 -93 -30 -85 -11 2 7 -7 24
-21 37 -24 22 -33 43 -17 38 4 -2 45 11 92 29 47 17 202 74 345 127 143 53
314 116 380 140 66 24 125 45 131 45 7 1 19 -20 27 -46z m1781 -73 c5 -5 13
-83 18 -172 4 -90 14 -255 22 -368 7 -113 13 -206 12 -206 0 -1 -129 -9 -286
-18 -157 -10 -352 -23 -435 -31 -372 -33 -464 -38 -569 -30 -96 6 -112 10
-133 31 -33 33 -33 112 2 151 22 25 24 26 25 8 0 -11 9 -31 20 -45 l19 -25
306 3 305 3 62 -30 c34 -17 72 -31 85 -31 35 0 78 25 106 61 19 25 34 33 64
35 21 2 86 6 146 9 82 5 112 11 130 25 l22 18 -3 308 c-2 238 1 310 10 316 14
9 58 2 72 -12z m-4080 -116 c84 -35 87 -37 121 -98 19 -35 35 -67 34 -72 0 -9
-123 -116 -140 -122 -5 -2 -9 5 -9 16 0 25 -62 118 -103 154 -16 15 -50 35
-74 44 -23 9 -43 21 -43 26 0 4 19 29 42 54 48 52 43 52 172 -2z m830 -319
c-57 -65 -58 -65 -111 -65 -29 0 -53 2 -53 4 0 2 22 20 49 40 27 20 68 62 92
93 59 78 63 79 72 33 8 -39 6 -42 -49 -105z m1588 125 c37 -11 74 -31 89 -46
l24 -26 -24 -19 c-13 -10 -29 -19 -36 -19 -7 0 -32 -11 -56 -24 -61 -33 -300
-79 -401 -77 -93 2 -145 -17 -201 -73 -51 -51 -71 -123 -62 -227 4 -43 4 -79
0 -79 -15 0 -38 33 -46 68 -20 87 -3 182 46 253 37 53 48 59 335 180 79 33
158 68 175 77 16 8 44 19 60 23 17 4 31 7 31 8 1 1 31 -8 66 -19z"/>
<path d="M8730 14947 c-34 -16 -87 -124 -96 -194 -9 -78 11 -143 50 -156 48
-16 89 11 125 84 26 52 31 74 31 135 0 92 -10 119 -51 133 -17 6 -32 11 -33
11 -1 0 -12 -6 -26 -13z"/>
<path d="M10073 11423 c9 -2 25 -2 35 0 9 3 1 5 -18 5 -19 0 -27 -2 -17 -5z"/>
<path d="M18584 8016 c-80 -20 -233 -99 -306 -160 -160 -132 -320 -376 -423
-645 -43 -111 -104 -361 -116 -476 -28 -257 -11 -557 40 -700 5 -16 22 -64 36
-105 40 -114 125 -253 199 -325 116 -113 276 -175 410 -160 333 38 652 393
810 900 149 479 138 960 -31 1298 -145 292 -377 432 -619 373z m153 -772 c145
-110 191 -424 103 -704 -35 -114 -86 -203 -158 -277 -132 -135 -274 -135 -369
0 -134 192 -136 470 -3 742 115 237 296 339 427 239z"/>
<path d="M10175 7700 c-60 -25 -98 -93 -99 -176 -1 -51 3 -66 26 -96 27 -35
37 -39 97 -39 99 0 157 149 99 253 -32 57 -77 78 -123 58z"/>
<path d="M15280 13213 c0 -6 21 -23 46 -39 25 -16 63 -52 85 -81 41 -55 82
-139 76 -156 -4 -12 -70 92 -70 110 0 7 -5 11 -11 10 -6 -1 -10 4 -8 11 1 8
-2 11 -7 8 -5 -3 -15 2 -22 11 -12 14 -12 16 1 8 9 -5 12 -5 7 1 -5 5 -12 9
-15 9 -4 0 -32 14 -62 31 -59 34 -124 58 -140 52 -6 -2 14 -22 45 -46 60 -47
120 -126 109 -144 -4 -7 -3 -8 4 -4 8 4 12 0 12 -11 0 -11 4 -23 9 -28 13 -15
24 -55 14 -55 -4 0 -19 20 -31 44 -13 24 -47 70 -75 102 -29 32 -46 54 -38 50
10 -6 12 -5 7 3 -4 6 -11 9 -16 6 -5 -3 -15 1 -22 9 -24 23 -72 44 -125 54
l-50 9 81 -81 c60 -59 91 -99 115 -149 18 -38 31 -71 28 -74 -3 -2 -28 28 -56
69 -68 99 -96 129 -165 173 -49 31 -136 59 -136 43 0 -2 22 -21 50 -42 27 -21
66 -60 85 -87 37 -50 90 -169 75 -169 -4 0 -23 26 -40 58 -65 113 -132 176
-230 213 -58 22 -76 9 -33 -23 55 -43 104 -103 138 -171 51 -101 43 -114 -15
-25 -62 99 -127 163 -193 194 -46 21 -97 32 -97 20 0 -2 27 -31 59 -63 57 -58
95 -117 112 -175 13 -45 -3 -32 -41 34 -38 67 -112 139 -172 168 -96 46 -148
31 -68 -20 62 -40 125 -129 150 -211 17 -56 77 -166 102 -187 9 -7 53 -4 143
8 451 63 675 97 682 103 8 8 42 219 43 263 0 39 -65 109 -133 142 -52 26 -207
44 -207 25z"/>
<path d="M14100 13105 c0 -7 22 -24 50 -39 81 -44 165 -141 195 -225 20 -58 5
-49 -47 29 -23 35 -68 85 -100 110 -63 50 -175 96 -209 85 -19 -7 -18 -9 18
-31 44 -26 124 -118 154 -175 20 -41 41 -119 30 -119 -3 0 -14 20 -24 45 -27
63 -76 124 -142 174 -86 65 -205 112 -205 81 0 -5 8 -15 17 -22 9 -7 42 -38
73 -69 57 -55 101 -139 100 -192 -1 -18 -4 -16 -19 13 -11 19 -17 38 -14 42 2
5 0 8 -5 8 -5 0 -28 24 -50 54 -56 74 -126 122 -200 140 -68 16 -94 4 -51 -23
13 -8 52 -42 85 -76 58 -57 77 -90 109 -195 8 -24 7 -23 -16 5 -13 17 -32 46
-43 65 -25 47 -99 123 -163 167 -41 28 -65 37 -108 40 -64 5 -70 -6 -20 -37
46 -28 127 -120 121 -136 -3 -8 0 -13 7 -11 7 1 11 -4 9 -11 -1 -6 7 -32 19
-57 11 -24 19 -50 16 -57 -4 -8 -6 -6 -6 5 -1 9 -5 17 -11 17 -5 0 -16 15 -25
33 -20 43 -102 151 -118 156 -6 2 -30 16 -52 31 -22 14 -53 31 -70 37 -41 16
-115 23 -115 12 0 -5 4 -9 9 -9 22 0 150 -133 166 -172 9 -24 22 -50 29 -58 7
-8 18 -30 25 -49 l11 -34 -23 25 c-12 13 -40 50 -62 82 -70 103 -172 180 -257
196 -52 10 -56 -12 -9 -43 59 -39 139 -147 170 -229 17 -46 -10 -29 -42 25
-37 64 -141 167 -202 201 -52 29 -86 36 -124 27 -22 -6 -20 -9 30 -46 29 -22
71 -67 92 -99 40 -59 100 -188 72 -152 -8 11 -15 25 -15 30 0 6 -5 4 -11 -4
-9 -13 -10 -13 -8 0 3 27 -1 44 -8 37 -3 -4 -21 14 -39 41 -17 26 -49 63 -70
83 -47 44 -154 114 -154 100 0 -6 23 -32 51 -58 47 -44 279 -377 279 -400 0
-6 6 -15 13 -21 14 -12 26 -11 277 28 69 10 163 24 210 30 47 6 126 18 175 26
89 14 249 36 555 74 85 10 171 22 192 25 34 6 37 4 43 -25 4 -17 5 -33 2 -36
-2 -2 -31 -9 -63 -14 -111 -18 -402 -61 -476 -70 -120 -14 -377 -50 -468 -64
-47 -8 -159 -24 -250 -36 -171 -23 -190 -30 -190 -74 0 -35 -74 -190 -123
-257 -61 -85 -90 -116 -161 -173 -52 -42 -56 -48 -30 -42 16 3 115 17 219 31
105 14 269 37 365 51 96 13 191 26 210 29 93 12 294 39 475 66 211 31 553 79
745 104 105 14 218 31 375 55 177 28 205 34 206 47 1 7 2 16 3 21 2 4 6 30 10
57 14 96 26 180 31 220 3 23 8 52 11 65 15 70 16 97 3 102 -8 3 -97 -7 -199
-23 -102 -15 -201 -30 -220 -32 -19 -3 -110 -15 -202 -28 l-167 -23 -7 -30
c-3 -17 -20 -60 -36 -96 -17 -36 -39 -87 -50 -115 -10 -27 -35 -71 -55 -98
-35 -47 -162 -157 -182 -157 -6 0 25 35 68 78 62 61 86 94 119 162 73 155 97
221 93 260 -3 31 -22 81 -36 97 -7 6 -27 35 -45 65 -132 213 -179 268 -265
310 -103 50 -275 77 -275 43z m295 -165 c10 -11 16 -20 13 -20 -3 0 -13 9 -23
20 -10 11 -16 20 -13 20 3 0 13 -9 23 -20z m50 -71 c22 -41 11 -36 -14 7 -12
19 -16 32 -11 29 6 -3 17 -19 25 -36z m-418 -151 c-3 -8 -6 -5 -6 6 -1 11 2
17 5 13 3 -3 4 -12 1 -19z"/>
<path d="M15230 13087 c0 -2 15 -16 33 -33 l32 -29 -29 33 c-28 30 -36 37 -36
29z"/>
</g>
</svg>
