<?xml version="1.0" standalone="no"?>
<!DOCTYPE svg PUBLIC "-//W3C//DTD SVG 20010904//EN"
 "http://www.w3.org/TR/2001/REC-SVG-20010904/DTD/svg10.dtd">
<svg version="1.0" xmlns="http://www.w3.org/2000/svg"
 width="2804.000000pt" height="1536.000000pt" viewBox="0 0 2804.000000 1536.000000"
 preserveAspectRatio="xMidYMid meet">

<g transform="translate(0.000000,1536.000000) scale(0.100000,-0.100000)"
fill="#000000" stroke="none">
<path d="M2201 11515 l-1 -1745 225 0 225 0 0 1745 0 1745 -225 0 -224 0 0
-1745z"/>
<path d="M25510 11515 l0 -1745 225 0 225 0 0 1745 0 1745 -225 0 -225 0 0
-1745z"/>
<path d="M2050 13189 c-36 -33 -114 -103 -175 -156 -373 -323 -399 -352 -429
-470 -15 -56 -16 -173 -14 -1070 3 -947 4 -1011 21 -1058 28 -77 74 -133 204
-246 65 -57 123 -108 129 -114 32 -30 215 -196 253 -230 25 -22 55 -48 66 -58
20 -18 20 -18 26 10 11 49 5 3446 -6 3449 -5 2 -39 -24 -75 -57z"/>
<path d="M26030 12738 c0 -282 0 -839 0 -1238 -1 -1884 -3 -1733 20 -1717 24
17 71 58 155 136 33 31 96 88 140 127 290 256 323 291 360 381 19 47 20 78 23
1057 2 880 1 1016 -13 1069 -31 119 -58 153 -270 338 -71 62 -132 115 -135
118 -16 19 -270 241 -274 241 -3 0 -6 -231 -6 -512z"/>
<path d="M18025 12709 c-22 -5 -68 -19 -102 -30 l-63 -21 0 -1148 c0 -833 3
-1151 11 -1156 6 -3 43 -16 83 -27 68 -20 96 -21 786 -24 793 -3 736 -7 900
67 l90 40 280 0 280 0 0 1105 0 1105 -272 0 c-255 0 -318 5 -373 30 -159 72
-131 70 -893 69 -378 -1 -705 -5 -727 -10z m1436 -158 c20 -20 29 -39 29 -61
0 -22 -9 -41 -29 -61 l-29 -29 -652 0 c-428 0 -658 4 -671 10 -24 14 -49 62
-44 88 5 29 26 59 50 71 12 6 260 10 668 10 l649 1 29 -29z m-20 -452 c55 -22
65 -96 18 -140 l-31 -29 -652 0 -651 0 -27 23 c-24 20 -32 44 -29 88 1 9 13
28 27 42 26 26 28 27 193 29 375 6 1126 -2 1152 -13z m-1 -504 c59 -31 68 -98
20 -145 l-31 -30 -649 0 -650 0 -31 28 c-52 47 -39 126 26 153 11 4 305 8 653
8 546 1 637 -1 662 -14z m24 -524 c28 -26 35 -76 16 -112 -27 -49 -23 -49
-710 -49 l-642 0 -29 29 c-47 47 -39 119 16 150 14 7 210 10 672 8 l651 -2 26
-24z m-5 -470 c41 -38 43 -87 5 -125 -22 -22 -36 -26 -83 -27 -97 0 -1184 -1
-1221 0 -48 1 -93 41 -92 81 1 48 11 69 40 85 23 12 127 14 673 15 l647 0 31
-29z"/>
<path d="M18122 12518 c-17 -17 -15 -31 8 -56 l20 -22 636 3 c546 2 636 5 644
17 15 24 11 49 -9 60 -30 15 -1283 14 -1299 -2z"/>
<path d="M18133 12052 c-14 -9 -18 -32 -9 -54 8 -17 48 -18 652 -18 l644 0 12
25 c8 19 8 28 -2 40 -11 13 -90 15 -649 15 -350 0 -641 -4 -648 -8z"/>
<path d="M18128 11543 c-17 -20 -14 -42 10 -60 22 -18 1272 -19 1290 -1 17 17
15 44 -4 62 -14 14 -86 16 -648 16 -590 0 -634 -1 -648 -17z"/>
<path d="M18133 11043 c-20 -7 -16 -61 5 -71 13 -6 1211 -9 1280 -3 18 2 15
68 -4 75 -19 7 -1263 7 -1281 -1z"/>
<path d="M18132 10571 c-8 -5 -12 -21 -10 -37 l3 -29 647 -3 c637 -2 647 -2
658 18 8 14 7 25 -2 40 -13 20 -21 20 -648 20 -349 0 -641 -4 -648 -9z"/>
<path d="M17417 12703 c-3 -7 -2 -2330 2 -2375 1 -16 17 -18 186 -18 l185 0 0
1200 0 1200 -184 0 c-102 0 -187 -3 -189 -7z"/>
<path d="M2730 11510 l0 -1180 135 0 135 0 0 1180 0 1180 -135 0 -135 0 0
-1180z"/>
<path d="M25160 11510 l0 -1180 135 0 135 0 0 1180 0 1180 -135 0 -135 0 0
-1180z"/>
<path d="M6256 12631 c-8 -12 -8 -2229 -1 -2241 3 -5 51 -8 107 -7 l102 2 1
1125 0 1125 -102 3 c-59 1 -104 -1 -107 -7z"/>
<path d="M17137 12634 c-4 -4 -7 -511 -7 -1126 l0 -1118 110 0 110 0 -2 1123
-3 1122 -100 3 c-55 2 -104 0 -108 -4z"/>
<path d="M3077 12613 c-4 -3 -7 -501 -7 -1105 l0 -1098 1560 0 1560 0 0 165
c0 160 -1 165 -21 165 -11 0 -93 -10 -182 -21 -188 -25 -184 -26 -432 51 -247
75 -296 90 -335 102 -53 15 -529 158 -580 174 -68 21 -451 135 -485 144 -16 5
-52 16 -80 25 -71 23 -267 79 -350 101 -91 23 -139 55 -166 111 -26 55 -22
118 12 167 34 50 48 56 304 132 50 15 137 42 195 60 220 70 584 183 755 235
55 17 118 37 140 44 22 7 63 20 90 28 105 32 413 130 485 154 164 56 263 79
305 71 119 -21 337 -50 342 -45 3 4 6 82 7 174 l1 168 -1556 3 c-856 1 -1559
-1 -1562 -5z"/>
<path d="M6517 12614 c-4 -4 -7 -501 -7 -1105 l0 -1099 5285 0 5285 0 0 683
c0 375 1 871 1 1102 l1 420 -5279 3 c-2904 1 -5283 -1 -5286 -4z"/>
<path d="M20360 11515 l0 -1105 190 0 190 0 0 1105 0 1105 -190 0 -190 0 0
-1105z"/>
<path d="M20810 11515 l0 -1105 2140 0 2140 0 0 1105 0 1105 -2140 0 -2140 0
0 -1105z"/>
<path d="M5685 12236 c-38 -13 -104 -34 -145 -46 -41 -12 -84 -26 -95 -31 -11
-4 -74 -24 -140 -44 -66 -20 -138 -42 -160 -50 -46 -16 -191 -61 -320 -100
-49 -15 -144 -44 -210 -65 -66 -21 -187 -59 -270 -85 -82 -25 -161 -50 -175
-55 -14 -5 -71 -23 -127 -40 l-103 -31 2 -189 c2 -161 4 -189 17 -193 9 -3
138 -42 286 -87 149 -45 308 -93 355 -106 47 -14 189 -57 315 -95 127 -39 268
-81 315 -95 47 -14 96 -30 110 -35 26 -9 430 -129 436 -129 2 0 4 338 4 750 0
594 -3 750 -12 749 -7 0 -44 -11 -83 -23z"/>
<path d="M5830 11512 c0 -412 2 -751 5 -754 5 -5 79 3 250 27 82 11 97 14 101
18 9 8 7 1398 -2 1406 -9 9 -282 51 -328 51 l-26 0 0 -748z"/>
<path d="M3763 11640 c-51 -16 -103 -34 -115 -41 -59 -30 -75 -99 -37 -163 16
-28 32 -39 82 -55 100 -33 196 -59 202 -53 3 3 5 81 5 174 0 197 12 185 -137
138z"/>
<path d="M9128 10241 l3 -99 89 -86 89 -86 3683 0 3683 0 84 84 84 84 2 101 3
101 -3862 0 -3861 0 3 -99z"/>
<path d="M11682 9888 c-24 -11 -55 -37 -70 -56 l-27 -35 -3 -1536 -2 -1536 22
-45 c13 -24 36 -53 51 -64 l28 -21 2563 -3 2562 -2 41 26 c22 15 49 41 59 58
18 30 19 80 19 1572 l0 1540 -27 41 c-16 24 -44 49 -70 62 l-44 21 -2530 0
-2529 -1 -43 -21z m4437 -1710 c68 -13 176 -56 247 -100 65 -39 164 -125 164
-142 0 -6 -26 -37 -57 -68 l-58 -57 -59 56 c-152 143 -327 212 -511 200 -153
-10 -299 -74 -413 -181 -29 -27 -55 -46 -59 -43 -11 11 66 114 125 168 165
151 391 212 621 167z m-3353 -306 c122 -39 254 -123 254 -161 0 -18 -74 -101
-91 -101 -5 0 -42 27 -81 61 -131 110 -260 155 -412 146 -132 -8 -304 -74
-385 -148 -51 -46 -48 -26 4 30 72 77 199 147 340 187 72 20 290 12 371 -14z
m3278 13 c130 -34 262 -140 320 -256 45 -90 60 -163 53 -271 -4 -77 -10 -99
-46 -174 -88 -184 -246 -283 -451 -284 -93 0 -135 11 -229 58 -294 147 -357
556 -121 792 122 122 314 177 474 135z m-3422 -306 c164 -64 256 -205 246
-376 -6 -99 -37 -170 -104 -239 -119 -122 -304 -146 -450 -58 -78 47 -107 75
-143 143 -103 193 -23 419 183 517 60 29 81 34 143 34 50 0 89 -7 125 -21z"/>
<path d="M15885 7830 c-5 -15 -19 -21 -66 -26 -37 -4 -67 -14 -77 -24 -29 -29
-68 -51 -84 -45 -17 7 -63 -39 -53 -55 7 -11 -41 -90 -55 -90 -15 0 -42 -52
-32 -62 13 -13 -8 -98 -25 -98 -8 0 -13 -13 -13 -35 0 -23 5 -35 14 -35 16 0
42 -92 31 -110 -9 -15 4 -50 19 -50 16 0 66 -70 66 -91 0 -24 30 -60 48 -57
21 3 60 -18 86 -44 13 -14 26 -18 43 -14 33 9 103 -11 103 -29 0 -10 11 -15
35 -15 24 0 35 5 35 14 0 17 26 27 72 28 19 1 52 14 77 31 24 16 56 31 70 32
14 1 29 3 33 3 4 1 12 19 18 40 5 22 29 59 55 87 32 33 42 51 36 59 -13 16 18
116 36 116 18 0 17 59 -2 66 -17 7 -39 78 -32 106 4 12 -3 28 -16 41 -37 36
-67 87 -67 110 0 29 -18 47 -47 47 -27 0 -71 25 -94 53 -9 12 -31 20 -55 21
-21 2 -49 3 -60 4 -12 1 -24 11 -27 22 -7 28 -63 28 -72 0z"/>
<path d="M12450 7531 c-59 -12 -123 -46 -164 -87 -95 -96 -118 -235 -57 -358
57 -116 155 -171 291 -164 139 8 227 80 272 223 19 61 20 76 10 123 -15 73
-44 129 -89 176 -64 66 -179 104 -263 87z"/>
<path d="M9450 8765 l0 -956 103 3 102 3 0 950 0 950 -102 3 -103 3 0 -956z"/>
<path d="M11316 8813 c1 -450 2 -839 3 -865 l1 -48 89 0 c62 0 90 4 93 13 2 6
5 396 6 865 l2 852 -98 0 -99 0 3 -817z"/>
<path d="M9724 8771 c0 -462 3 -842 6 -845 3 -3 143 -6 310 -7 l305 -3 3 847
2 847 -314 0 -313 0 1 -839z"/>
<path d="M10408 8863 c-3 -702 1 -918 15 -896 4 6 35 31 70 55 l62 43 340 5
340 5 3 693 2 692 -343 0 -343 0 -66 50 c-37 28 -69 50 -72 50 -3 0 -7 -314
-8 -697z"/>
<path d="M17249 9437 l-106 -102 2 -321 1 -320 113 -109 c86 -84 114 -106 124
-96 9 9 12 140 12 519 1 279 -1 513 -3 520 -9 27 -42 6 -143 -91z"/>
<path d="M17000 9010 l0 -321 47 3 47 3 0 315 0 315 -47 3 -47 3 0 -321z"/>
<path d="M17000 7430 l0 -320 58 -1 c85 -2 164 1 173 7 10 6 12 593 3 618 -5
13 -25 16 -120 16 l-114 0 0 -320z"/>
<path d="M11043 7641 c-68 -49 -73 -74 -73 -366 0 -241 1 -258 22 -301 38 -81
50 -85 298 -82 l215 3 0 385 0 385 -211 3 -210 2 -41 -29z m387 -46 l0 -25
-175 0 c-163 0 -175 1 -175 18 0 10 3 22 7 25 3 4 82 7 175 7 l168 0 0 -25z
m-4 -127 c3 -20 9 -19 -216 -21 -122 -1 -125 -1 -128 21 l-3 22 172 -2 c155
-3 172 -5 175 -20z m2 -125 l3 -23 -175 0 c-164 0 -176 1 -176 18 0 10 2 21 5
24 3 3 81 5 173 4 165 -1 167 -1 170 -23z m0 -130 l3 -23 -175 0 -176 0 0 25
0 25 173 -2 c170 -3 172 -3 175 -25z m0 -125 c-3 -23 -5 -23 -175 -26 l-173
-3 0 26 0 25 176 0 175 0 -3 -22z m2 -128 c0 -19 -7 -20 -175 -20 -168 0 -175
1 -175 20 0 19 7 20 175 20 168 0 175 -1 175 -20z"/>
<path d="M13044 6428 c-31 -46 -66 -93 -77 -105 -11 -13 -19 -24 -16 -25 8 -2
2139 -5 2139 -2 0 1 -31 47 -70 100 -38 54 -70 102 -70 106 0 4 -416 8 -924 8
l-925 0 -57 -82z"/>
<path d="M15996 6429 c-87 -10 -86 -1 -86 -396 l0 -342 26 -20 c23 -18 41 -21
125 -21 89 0 100 2 126 24 l28 24 2 317 c1 315 -3 365 -32 394 -18 18 -117 29
-189 20z"/>
<path d="M12582 6232 l-22 -3 2 -187 3 -187 1449 -3 c953 -1 1453 1 1460 8 14
14 16 359 2 367 -10 7 -2849 11 -2894 5z"/>
<path d="M15588 6132 l-38 -3 0 -95 0 -94 150 0 150 0 0 95 0 95 -62 1 c-35 0
-85 1 -113 2 -27 1 -67 1 -87 -1z"/>
<path d="M12716 5755 c3 -22 10 -44 14 -50 4 -5 13 -39 19 -75 7 -36 14 -73
17 -83 5 -16 71 -17 1257 -15 l1252 3 11 65 c6 36 15 81 21 100 6 19 14 47 17
62 l6 28 -1310 2 -1311 3 7 -40z"/>
<path d="M12970 5452 c-19 -2 -39 -7 -45 -12 -5 -4 -98 -34 -205 -65 -324 -96
-408 -148 -461 -284 -72 -184 8 -427 168 -513 119 -64 213 -62 453 10 316 94
220 87 1135 87 l810 0 90 -28 c50 -15 99 -32 110 -37 42 -21 322 -128 360
-139 22 -6 69 -11 105 -11 193 0 360 198 361 429 1 89 -20 150 -72 216 -44 56
-110 95 -266 160 -223 91 -398 167 -412 179 -10 8 -295 11 -1055 11 -573 0
-1057 -1 -1076 -3z m-249 -397 c38 -20 69 -71 69 -113 0 -46 -35 -109 -70
-127 -35 -18 -96 -19 -130 -2 -59 30 -88 125 -57 187 31 61 123 88 188 55z
m2765 -65 c2 0 15 -17 29 -37 61 -91 1 -213 -105 -213 -74 0 -130 61 -130 142
0 88 90 153 169 121 18 -7 35 -13 37 -13z"/>
<path d="M12305 5381 c-98 -35 -460 -172 -620 -236 -37 -15 -59 -29 -57 -37 2
-7 37 -98 79 -203 67 -169 187 -484 248 -650 12 -34 31 -79 41 -102 l19 -42
305 123 c168 67 328 134 355 149 51 28 152 113 144 122 -3 2 -21 0 -40 -5 -18
-5 -53 -13 -75 -19 -57 -15 -101 -14 -181 5 -170 39 -281 145 -336 319 -46
147 -14 309 84 418 61 68 109 98 227 140 49 18 91 37 93 42 2 6 -31 11 -86 12
-82 2 -100 -1 -200 -36z"/>
<path d="M15851 5103 c84 -133 82 -321 -5 -475 -59 -104 -169 -194 -269 -218
l-58 -13 173 -69 c95 -37 179 -68 186 -68 7 0 19 15 27 33 27 60 284 684 287
697 3 12 -83 54 -193 95 -20 7 -62 25 -93 39 -83 38 -91 35 -55 -21z"/>
<path d="M11430 5048 c-69 -27 -271 -109 -450 -183 -179 -73 -487 -199 -686
-278 -198 -80 -381 -154 -407 -166 -25 -12 -48 -21 -51 -21 -2 0 -25 -9 -50
-19 l-45 -20 75 -183 c160 -391 160 -393 113 -437 -23 -22 -200 -98 -759 -329
-107 -44 -343 -142 -525 -218 -206 -86 -343 -138 -366 -138 -62 -1 -80 20
-136 160 -81 201 -87 214 -98 210 -5 -3 -48 -21 -95 -41 -47 -20 -145 -61
-219 -91 -73 -30 -167 -70 -210 -89 -42 -18 -152 -66 -246 -105 -508 -212
-605 -254 -605 -261 0 -4 34 -84 75 -178 40 -93 93 -215 116 -271 24 -59 47
-99 53 -96 97 43 671 289 821 351 110 46 263 110 340 143 77 32 223 94 325
136 102 42 226 95 275 116 50 21 155 65 235 98 152 63 410 170 545 227 666
281 883 372 1105 464 63 26 248 103 410 171 179 74 320 127 357 133 62 11 147
6 413 -23 201 -22 200 -22 200 -8 0 13 -79 227 -106 285 -8 17 -14 34 -14 38
0 5 -76 205 -213 555 -22 58 -43 108 -46 112 -3 3 -62 -16 -131 -44z"/>
<path d="M16217 4872 c-5 -7 -96 -225 -181 -431 -26 -62 -46 -115 -44 -116 2
-2 154 -66 338 -143 184 -77 439 -184 565 -237 127 -54 288 -122 358 -151 70
-30 142 -60 160 -68 18 -8 88 -38 157 -66 69 -29 217 -92 330 -140 113 -48
315 -133 450 -189 135 -56 274 -115 310 -131 36 -16 115 -49 175 -73 61 -24
157 -65 215 -89 58 -25 175 -75 260 -111 535 -225 707 -298 1070 -454 223 -96
410 -176 416 -179 12 -5 37 47 135 281 103 246 111 267 102 275 -4 4 -33 17
-63 29 -30 13 -74 32 -97 42 -23 11 -44 19 -48 19 -3 0 -24 8 -48 19 -23 10
-64 27 -92 39 -27 11 -86 36 -130 55 -44 20 -120 52 -170 72 -49 20 -191 80
-315 132 -124 52 -326 138 -450 190 -124 52 -281 119 -350 148 -69 29 -244
104 -390 165 -146 61 -317 133 -380 160 -63 27 -137 57 -165 68 -86 34 -390
164 -512 218 -17 8 -34 14 -37 14 -3 0 -29 11 -58 24 -52 23 -357 152 -763
323 -110 46 -209 88 -220 93 -37 16 -470 199 -497 209 -15 6 -29 7 -31 3z"/>
<path d="M13470 4455 l0 -155 550 0 550 0 1 23 c1 26 1 161 0 235 l-1 52 -550
0 -550 0 0 -155z"/>
<path d="M9450 4244 c-113 -47 -365 -150 -560 -229 -195 -79 -391 -160 -435
-180 -104 -48 -134 -45 -280 26 -150 72 -180 71 -385 -19 -25 -11 -130 -56
-235 -100 -283 -120 -505 -214 -640 -272 -66 -28 -147 -62 -180 -76 -33 -14
-73 -32 -90 -40 -16 -7 -97 -43 -180 -78 -82 -35 -175 -75 -206 -89 -72 -33
-115 -84 -124 -148 -8 -54 21 -144 117 -374 31 -71 75 -179 100 -240 121 -297
153 -367 166 -373 15 -5 24 -2 203 70 112 46 139 62 139 84 0 7 -15 48 -34 91
-19 43 -64 150 -101 238 -83 195 -151 356 -176 413 -28 62 -34 99 -18 119 19
23 583 287 1237 579 222 100 231 96 323 -131 60 -149 116 -286 146 -357 24
-57 -11 -67 453 127 168 70 359 149 425 177 132 55 180 75 210 88 11 5 132 55
269 110 260 104 296 122 296 144 0 7 -45 123 -101 257 -55 134 -103 250 -106
257 -3 6 -10 12 -17 12 -6 -1 -103 -39 -216 -86z"/>
<path d="M13730 3135 l0 -1105 65 0 c36 -1 101 -1 145 -1 44 0 148 0 230 1
l150 0 0 1105 0 1105 -295 0 -295 0 0 -1105z"/>
<path d="M20171 3675 c-17 -20 -31 -44 -31 -54 0 -32 37 -67 112 -104 120 -59
451 -217 454 -217 2 0 75 -34 161 -76 87 -42 189 -89 227 -105 70 -30 95 -51
96 -81 0 -9 -29 -84 -64 -165 -35 -81 -94 -220 -130 -308 -36 -88 -83 -203
-106 -255 -23 -53 -39 -104 -36 -115 4 -16 42 -35 158 -82 84 -33 160 -63 169
-66 17 -6 17 -5 105 203 13 30 64 156 114 280 50 124 101 250 114 280 74 171
80 231 33 301 -33 49 -54 60 -502 249 -88 38 -248 107 -355 155 -233 103 -456
195 -475 195 -7 0 -27 -16 -44 -35z"/>
<path d="M5840 2494 c-184 -79 -373 -160 -420 -179 -178 -74 -193 -89 -199
-206 l-3 -79 163 -1 c90 0 348 0 573 1 l408 1 33 26 32 26 -34 81 c-161 383
-200 470 -209 472 -5 1 -160 -63 -344 -142z"/>
<path d="M21490 2578 c-13 -35 -66 -162 -116 -283 l-93 -220 27 -22 c21 -17
41 -23 92 -24 147 -3 1056 -4 1073 0 14 3 17 15 17 76 0 116 -10 125 -246 227
-21 9 -82 35 -134 58 -91 40 -293 128 -484 211 -49 22 -94 39 -100 39 -6 0
-22 -28 -36 -62z"/>
<path d="M13630 2523 c-54 -10 -60 -26 -60 -158 0 -134 8 -155 63 -155 l27 0
0 160 c0 88 -1 159 -2 159 -2 -1 -14 -4 -28 -6z"/>
<path d="M14375 2364 l0 -156 63 5 c35 3 66 8 70 12 13 13 7 262 -7 279 -9 11
-31 16 -70 16 l-56 0 0 -156z"/>
<path d="M4764 1945 c-7 -16 31 -72 81 -119 45 -44 140 -103 202 -126 54 -20
70 -21 613 -18 l557 3 94 47 c52 25 111 63 132 84 35 35 38 42 35 89 l-3 50
-853 3 c-754 2 -853 0 -858 -13z"/>
<path d="M13570 1875 l0 -85 48 -24 c100 -50 266 -86 402 -86 144 0 321 39
415 93 l40 23 0 79 0 80 -452 3 -453 2 0 -85z"/>
<path d="M21237 1954 c-3 -4 -4 -29 -1 -58 4 -44 10 -56 47 -89 22 -21 80 -57
127 -80 l85 -42 560 -3 c553 -3 561 -2 620 19 33 12 85 38 115 58 76 50 172
150 168 176 -3 20 -7 20 -859 23 -470 1 -858 -1 -862 -4z"/>
</g>
</svg>
