<?xml version="1.0" standalone="no"?>
<!DOCTYPE svg PUBLIC "-//W3C//DTD SVG 20010904//EN"
 "http://www.w3.org/TR/2001/REC-SVG-20010904/DTD/svg10.dtd">
<svg version="1.0" xmlns="http://www.w3.org/2000/svg"
 width="2208.000000pt" height="1920.000000pt" viewBox="0 0 2208.000000 1920.000000"
 preserveAspectRatio="xMidYMid meet">

<g transform="translate(0.000000,1920.000000) scale(0.100000,-0.100000)"
fill="#000000" stroke="none">
<path d="M19637 18573 c-33 -26 -254 -291 -457 -549 -105 -134 -368 -462 -556
-694 -77 -97 -149 -190 -158 -207 -21 -42 -20 -97 3 -167 l19 -58 -42 -58
c-22 -32 -70 -93 -106 -137 -57 -69 -192 -236 -502 -623 -46 -58 -139 -175
-207 -260 -67 -85 -153 -193 -191 -240 -37 -47 -99 -123 -136 -170 -322 -403
-314 -394 -364 -401 -58 -8 -93 -30 -130 -84 -38 -55 -78 -63 -170 -35 -142
43 -182 23 -188 -92 -6 -97 7 -107 136 -108 50 0 92 -4 92 -8 0 -5 -24 -39
-54 -76 l-54 -68 -90 -2 c-81 -1 -96 -4 -158 -36 -57 -29 -87 -56 -187 -165
-114 -124 -224 -248 -276 -311 -14 -16 -72 -82 -130 -148 -248 -278 -343 -393
-373 -455 -54 -108 -49 -217 16 -344 l24 -49 -21 -26 c-12 -14 -36 -42 -53
-61 -28 -33 -406 -504 -513 -640 -70 -90 -113 -131 -137 -131 -13 0 -32 14
-49 36 -36 47 -95 74 -166 74 -49 0 -63 -5 -105 -35 -27 -20 -62 -43 -79 -53
-41 -23 -88 -75 -210 -227 -57 -71 -129 -161 -160 -200 -233 -291 -335 -426
-341 -454 -11 -52 -123 -394 -166 -507 -10 -28 -41 -84 -68 -124 -28 -40 -50
-85 -51 -99 -1 -69 -7 -102 -23 -123 -71 -97 -114 -152 -201 -258 l-100 -121
-60 8 c-132 17 -176 10 -284 -46 -55 -28 -106 -51 -115 -51 -12 0 -302 197
-392 268 -30 23 -275 199 -330 236 -16 12 -52 38 -80 59 -70 54 -188 140 -206
152 -32 21 -448 318 -518 370 -19 14 -82 60 -140 102 -58 42 -127 93 -155 113
-93 68 -140 101 -210 150 -38 27 -74 53 -80 57 -5 5 -47 37 -93 71 -45 35 -80
67 -77 72 8 13 -50 66 -134 123 -42 28 -119 83 -171 121 -53 39 -130 94 -172
121 -42 28 -77 55 -77 62 -1 6 18 14 42 18 93 14 96 16 122 59 13 23 58 82 99
131 80 95 89 122 56 155 -36 36 -53 27 -182 -98 -68 -64 -81 -73 -104 -68 -14
4 -59 1 -100 -5 -72 -12 -74 -12 -98 10 -20 19 -40 25 -98 29 -51 3 -82 11
-102 25 -39 27 -114 34 -153 13 -43 -22 -86 -80 -139 -185 -25 -50 -48 -91
-52 -91 -4 0 -20 24 -34 53 -37 75 -105 99 -150 53 -10 -10 -53 -15 -158 -18
l-143 -4 -24 -29 c-13 -17 -44 -75 -69 -130 -91 -200 -105 -271 -59 -301 18
-12 25 -25 25 -48 0 -54 10 -73 52 -96 21 -12 42 -29 45 -37 3 -8 -21 -66 -53
-129 l-59 -114 -40 2 -40 3 -6 85 c-3 47 -10 96 -16 110 -14 33 -61 80 -93 92
-41 16 -111 -1 -182 -43 -36 -21 -71 -39 -76 -39 -5 0 -21 -11 -36 -25 -23
-21 -26 -32 -26 -87 0 -74 -8 -108 -24 -108 -6 0 -49 25 -94 55 -96 63 -134
70 -172 30 -20 -21 -22 -30 -16 -76 7 -48 5 -56 -28 -105 -61 -92 -53 -118 69
-223 34 -30 40 -41 42 -79 1 -24 8 -54 16 -66 20 -30 144 -156 154 -156 29 -1
32 -17 19 -97 -7 -44 -14 -114 -15 -154 -1 -40 -4 -76 -7 -81 -3 -4 -21 -10
-42 -14 -63 -11 -95 -37 -132 -106 -25 -47 -29 -178 -5 -198 8 -7 15 -20 15
-30 0 -22 60 -68 98 -76 21 -4 36 -19 56 -52 15 -26 44 -59 63 -74 33 -25 44
-28 119 -28 97 0 89 14 100 -177 l7 -133 -54 0 c-30 -1 -124 -5 -210 -9 -221
-13 -236 -22 -364 -231 -100 -164 -136 -221 -200 -320 -74 -113 -203 -317
-219 -345 -6 -11 -31 -49 -55 -85 -65 -97 -111 -195 -111 -235 0 -20 10 -52
24 -74 14 -21 35 -61 47 -87 13 -27 26 -51 29 -54 4 -3 28 -44 53 -92 25 -47
56 -103 68 -125 11 -21 46 -83 76 -138 30 -55 59 -107 64 -115 5 -8 14 -25 19
-38 6 -13 33 -61 60 -108 28 -47 50 -87 50 -89 0 -3 18 -35 41 -71 22 -37 45
-77 50 -88 5 -12 13 -28 18 -36 5 -8 40 -69 77 -135 37 -66 77 -138 90 -161
29 -51 74 -86 139 -107 126 -42 337 -2 381 72 18 31 31 35 131 47 l63 7 -6
-49 c-3 -27 -7 -54 -9 -60 -4 -12 -131 -30 -281 -40 l-101 -6 4 -77 c3 -42 9
-93 14 -113 12 -48 34 -49 99 -8 45 29 122 50 183 50 l30 0 -7 -63 c-4 -34
-11 -75 -16 -92 -4 -16 -11 -56 -15 -87 -4 -32 -11 -58 -17 -58 -6 0 -41 12
-77 27 -54 22 -81 27 -151 27 -74 -1 -94 -5 -153 -33 -37 -17 -86 -48 -108
-68 -40 -36 -41 -37 -67 -20 -71 44 -340 170 -452 211 -41 16 -88 34 -105 41
-16 7 -42 17 -58 20 -15 4 -30 11 -33 16 -3 5 -16 9 -29 9 -13 0 -27 4 -30 10
-3 5 -14 10 -24 10 -22 0 -30 16 -76 155 -60 181 -66 193 -109 237 -56 58 -73
71 -126 90 -75 29 -201 38 -507 38 l-292 1 -20 67 c-80 275 -121 442 -109 442
22 0 145 54 165 73 47 43 37 168 -19 220 -41 38 -76 36 -301 -22 -215 -55
-376 -85 -547 -101 -305 -29 -302 -28 -326 -51 -36 -34 -38 -67 -8 -150 15
-41 32 -80 37 -87 23 -29 75 -46 162 -51 l89 -6 47 -155 c26 -85 57 -181 68
-213 19 -54 19 -58 3 -63 -188 -60 -341 -205 -317 -302 13 -53 53 -98 126
-143 138 -84 289 -254 248 -280 -8 -5 -22 -9 -32 -9 -45 0 -87 -54 -87 -112 0
-14 -17 -37 -47 -63 -43 -38 -46 -43 -39 -77 10 -53 45 -65 133 -45 136 31
125 34 167 -36 97 -161 169 -266 211 -304 54 -49 145 -96 230 -118 77 -21 315
-38 427 -32 101 5 97 7 148 -93 18 -36 46 -91 63 -123 16 -32 28 -59 26 -61
-2 -2 -121 -11 -264 -20 -143 -10 -386 -26 -540 -37 -154 -11 -347 -22 -430
-25 -146 -6 -152 -5 -220 21 -151 58 -248 52 -281 -18 l-16 -34 -105 -7 c-57
-4 -116 -9 -132 -12 l-28 -6 -12 89 c-24 171 -33 208 -53 226 -11 9 -28 17
-38 17 -14 0 -18 13 -23 92 -4 54 -11 96 -19 104 -23 24 -123 29 -167 9 -35
-15 -39 -22 -45 -62 -3 -25 -6 -68 -6 -94 0 -46 -2 -50 -35 -63 -37 -16 -37
-17 -59 -134 -8 -40 -16 -76 -19 -79 -3 -3 -36 2 -74 11 -133 32 -149 35 -233
50 -401 72 -746 101 -930 78 -100 -13 -237 -51 -265 -74 -11 -9 -34 -28 -52
-42 -51 -42 -172 -301 -227 -486 -24 -79 -31 -197 -16 -261 17 -77 85 -173
181 -255 84 -72 208 -161 262 -188 18 -9 41 -22 52 -29 62 -39 107 -63 236
-127 79 -40 175 -87 213 -106 37 -19 72 -34 76 -34 4 0 46 -18 92 -39 45 -21
117 -53 158 -71 70 -29 110 -47 202 -88 21 -9 38 -23 38 -29 0 -15 -3 -15
-175 -43 -221 -36 -329 -81 -367 -153 -23 -44 -24 -166 -1 -214 32 -68 129
-122 303 -168 36 -10 85 -23 110 -31 70 -20 142 -32 305 -50 210 -23 674 -15
815 15 52 11 103 20 114 21 27 0 196 69 228 93 15 11 32 33 37 49 12 33 -2 34
191 -17 258 -69 448 -118 535 -137 238 -51 283 -59 407 -73 172 -19 290 -19
386 1 128 26 234 105 289 215 45 91 153 381 153 412 0 22 14 21 46 0 27 -17
101 -22 142 -9 34 11 42 58 42 263 l0 194 23 -6 c12 -4 82 -30 155 -59 115
-44 136 -55 149 -81 24 -47 42 -63 101 -90 100 -46 179 -65 268 -65 57 0 114
-8 180 -25 126 -33 232 -33 524 1 198 22 263 25 540 24 326 -1 597 -12 735
-30 44 -6 148 -17 230 -25 83 -9 197 -20 255 -26 58 -5 148 -14 200 -19 385
-36 654 -62 765 -75 172 -20 279 -32 460 -50 83 -8 184 -19 225 -25 41 -5 127
-14 190 -20 63 -6 158 -15 210 -20 52 -6 129 -13 170 -16 87 -6 455 -46 860
-93 47 -6 126 -13 175 -16 125 -9 120 -6 123 -72 2 -43 10 -68 30 -97 l27 -39
0 -341 0 -340 -115 -26 c-126 -28 -165 -42 -223 -77 -25 -16 -78 -31 -150 -44
-62 -11 -123 -24 -137 -28 -14 -5 -52 -17 -85 -27 -33 -10 -71 -26 -84 -36
-13 -10 -29 -18 -35 -18 -20 0 -73 -63 -85 -101 -20 -62 -22 -81 -22 -181 0
-103 10 -136 53 -174 40 -36 111 -79 168 -103 30 -12 64 -26 75 -31 29 -13
218 -65 305 -83 482 -103 1030 -102 1430 4 68 18 104 33 172 71 40 22 98 81
98 99 0 10 5 21 10 24 14 9 13 214 -2 256 -22 65 -74 112 -178 164 -30 14 -64
31 -74 37 -11 6 -31 14 -45 18 -151 48 -225 82 -269 124 -26 25 -53 46 -61 46
-8 0 -37 11 -65 24 -28 13 -97 32 -154 42 l-103 18 3 341 3 341 28 33 c16 20
27 45 28 64 1 63 6 73 50 115 38 36 74 58 154 92 11 5 50 23 88 39 l67 30 83
-14 c214 -35 451 -26 697 27 52 11 106 22 120 25 50 10 336 104 395 129 85 37
130 57 209 93 38 17 75 31 82 31 8 0 14 5 14 10 0 6 4 10 10 10 17 0 271 150
395 233 125 83 166 113 301 219 161 126 330 291 431 421 43 55 86 108 95 118
9 10 26 35 38 56 11 21 34 61 50 88 113 188 160 361 160 580 0 111 -3 128 -35
218 -30 86 -83 194 -210 432 -91 169 -225 291 -382 347 -32 11 -65 24 -74 28
-29 16 -213 49 -309 55 -192 14 -579 -39 -810 -111 -334 -103 -803 -312 -1032
-460 -21 -13 -40 -24 -43 -24 -3 0 -5 20 -5 43 0 33 -13 69 -49 142 -28 54
-55 103 -60 108 -6 6 -11 18 -11 26 0 8 -12 27 -26 42 l-25 26 103 51 c57 28
122 56 146 64 23 7 42 16 42 19 0 4 35 19 78 34 42 15 86 31 97 36 20 8 56 18
145 38 63 15 193 31 246 31 44 0 91 -19 164 -65 19 -13 53 -29 74 -35 42 -13
31 -14 391 30 83 10 177 21 210 25 72 8 115 38 115 83 0 37 -38 68 -188 153
-94 53 -100 66 -67 128 38 69 73 105 90 91 8 -6 41 -10 76 -8 57 3 65 6 79 30
19 34 8 54 -43 81 -39 20 -131 33 -169 24 -13 -4 -40 -23 -60 -44 -20 -21 -59
-62 -86 -91 -48 -50 -52 -52 -79 -40 -15 7 -46 24 -68 39 -39 25 -238 125
-340 169 -27 12 -59 26 -70 31 -42 19 -213 71 -339 103 -190 48 -290 65 -476
77 -91 6 -167 13 -169 15 -8 7 112 115 167 151 122 78 152 92 204 98 111 11
489 44 623 55 227 18 358 29 565 50 407 41 408 41 458 115 14 22 45 65 67 95
22 30 49 69 60 86 21 34 86 128 120 175 23 31 167 242 205 299 40 60 93 135
100 140 4 3 19 24 34 47 42 68 37 115 -25 232 -28 53 -70 125 -94 161 -50 78
-149 239 -158 260 -10 20 -114 192 -124 205 -10 11 -68 108 -94 155 -9 16 -28
45 -43 64 -14 19 -26 39 -26 44 0 11 -61 51 -105 69 -19 7 -65 10 -130 7 -153
-7 -897 -33 -1013 -36 l-103 -2 -25 32 c-24 30 -29 32 -92 32 -83 -1 -151 -16
-177 -39 -33 -31 -57 -38 -141 -45 l-81 -6 -6 36 c-5 30 -1 43 22 73 15 20 68
92 116 161 49 69 155 215 235 325 l145 200 2 83 2 83 68 97 c37 53 108 153
158 222 50 69 136 188 190 265 54 77 131 183 169 235 39 52 93 129 121 171 27
41 142 203 255 358 226 312 476 658 573 793 l62 87 238 1 c218 0 241 2 277 20
48 24 86 79 99 140 5 25 18 91 30 148 11 56 29 119 40 140 25 49 275 364 466
586 55 64 119 141 143 171 l43 55 132 0 c173 1 206 14 244 97 57 124 40 236
-53 340 l-55 62 75 -2 c67 -2 78 1 98 21 32 31 32 118 2 159 -19 25 -28 28
-98 33 l-77 5 98 121 c113 140 245 303 341 423 37 46 101 125 142 175 41 51
126 155 187 232 62 76 187 231 279 344 91 113 211 261 266 330 129 159 166
199 187 195 9 -2 44 -6 78 -10 109 -13 125 -1 283 194 41 51 164 202 274 335
109 132 223 272 255 311 92 114 299 363 386 465 100 116 105 125 105 193 0 85
-52 178 -146 265 -102 94 -185 136 -280 140 -62 4 -77 1 -103 -17 -29 -21 -95
-99 -366 -431 -66 -81 -189 -232 -274 -335 -390 -476 -520 -644 -531 -687 -11
-40 -9 -65 17 -165 6 -24 -17 -56 -175 -248 -40 -49 -106 -130 -145 -178 -40
-49 -102 -126 -139 -170 -185 -227 -360 -442 -420 -518 -57 -73 -385 -479
-503 -624 -101 -124 -136 -155 -174 -155 -31 0 -44 -8 -99 -67 -78 -83 -110
-135 -127 -210 -14 -58 -44 -95 -88 -107 -10 -2 -51 12 -95 35 -58 30 -87 39
-126 39 -28 0 -56 4 -62 8 -21 13 -52 86 -58 137 l-5 50 115 145 c63 80 139
174 168 210 29 36 106 133 171 215 65 83 144 182 175 220 78 94 688 858 772
967 37 47 73 88 80 91 7 2 54 2 103 -1 87 -4 91 -4 123 23 29 25 204 233 339
404 29 36 84 104 123 151 39 47 158 193 264 325 107 132 249 305 316 385 67
80 128 160 136 179 43 96 -56 275 -213 387 -134 96 -247 119 -316 67z m212
-112 c60 -31 137 -104 183 -175 81 -125 29 -169 -117 -100 -103 48 -251 227
-232 278 15 39 87 37 166 -3z m1009 -135 c99 -50 215 -190 216 -260 1 -40 0
-41 -37 -44 -55 -5 -132 35 -211 108 -87 82 -139 184 -109 213 15 16 96 6 141
-17z m-4575 -4163 c-83 -103 -234 -294 -337 -423 -466 -586 -430 -544 -437
-518 -11 38 -10 108 3 131 23 44 494 583 747 856 89 96 159 156 169 146 2 -2
-63 -89 -145 -192z m535 -13 c17 -16 41 -30 54 -30 13 -1 35 -6 50 -13 l27
-12 -112 -141 c-62 -77 -143 -181 -182 -230 -84 -108 -482 -618 -539 -692
l-41 -52 -110 6 c-60 4 -112 8 -114 10 -4 4 58 89 130 179 79 97 414 517 469
588 25 32 72 93 105 136 126 164 222 281 230 281 2 0 17 -13 33 -30z m952
-146 c0 -3 -32 -43 -71 -90 -231 -276 -469 -585 -496 -641 -13 -28 -33 -100
-44 -160 -10 -59 -26 -123 -34 -140 -13 -29 -20 -33 -52 -33 -90 0 -233 14
-233 22 0 11 83 131 116 168 17 20 335 461 394 547 18 27 150 209 202 281 l39
52 89 0 c50 0 90 -3 90 -6z m-1997 -1191 c5 -3 -10 -14 -33 -25 -28 -14 -75
-61 -148 -147 -59 -69 -136 -160 -172 -202 -36 -41 -99 -116 -140 -166 -41
-51 -77 -90 -79 -88 -2 2 28 44 66 92 38 48 149 189 246 312 97 122 177 227
177 232 0 9 64 2 83 -8z m-4 -220 c-24 -32 -98 -125 -164 -208 -66 -82 -136
-173 -155 -201 -33 -47 -170 -222 -294 -374 -29 -36 -104 -132 -166 -215 -63
-82 -126 -166 -142 -185 -74 -92 -250 -317 -307 -391 l-64 -84 7 40 c3 22 6
54 6 71 0 33 37 95 92 155 18 20 112 132 208 250 266 324 420 508 585 701 277
323 360 421 394 465 18 24 36 41 39 39 3 -3 -15 -31 -39 -63z m-1274 -478 c32
-31 31 -40 -7 -85 -69 -78 -131 -174 -146 -224 -21 -74 -50 -114 -353 -486
-47 -58 -121 -150 -163 -205 -109 -140 -153 -185 -182 -185 -31 0 -30 12 2 97
14 37 30 85 36 106 6 22 23 46 40 59 17 11 65 64 107 117 42 53 84 105 93 116
9 11 76 94 149 185 73 91 169 209 213 264 117 143 111 131 98 173 -13 43 -11
48 36 73 47 25 48 25 77 -5z m-5675 -85 c50 -72 78 -119 72 -124 -3 -3 -68 -6
-144 -6 l-138 0 -29 58 c-54 108 -61 100 90 98 129 -1 133 -2 149 -26z m521
-8 c13 -11 35 -22 49 -25 14 -4 70 -41 125 -83 116 -88 161 -121 387 -289 125
-92 178 -125 208 -130 22 -4 42 -11 45 -15 3 -5 56 -44 118 -86 61 -43 166
-118 232 -167 66 -49 129 -95 140 -102 28 -20 263 -189 305 -220 19 -14 80
-58 135 -97 55 -39 170 -123 255 -186 85 -63 173 -128 195 -144 95 -69 352
-254 372 -268 37 -26 367 -264 387 -280 11 -8 38 -31 59 -51 l40 -36 -23 -39
c-43 -69 -127 -178 -171 -221 -30 -28 -64 -48 -109 -63 -36 -12 -119 -52 -184
-88 -96 -54 -137 -84 -211 -157 -50 -49 -120 -131 -156 -181 l-64 -90 -23 28
c-13 15 -61 85 -107 155 -47 71 -112 169 -145 218 -151 225 -230 346 -246 377
-19 38 -51 79 -94 124 l-30 31 -150 7 c-123 5 -155 4 -179 -8 -31 -16 -80 -84
-129 -181 -18 -33 -40 -70 -51 -83 l-20 -23 -67 36 c-89 46 -130 46 -173 3
-17 -18 -36 -49 -41 -70 -6 -20 -25 -56 -44 -80 -26 -34 -38 -42 -57 -39 -13
2 -95 4 -181 3 l-157 -2 -43 30 c-25 17 -72 37 -113 46 -38 9 -75 18 -82 19
-9 3 -11 45 -7 167 3 90 7 169 10 176 2 8 15 10 42 6 44 -7 60 6 69 58 7 46
-16 68 -68 68 -28 0 -39 4 -39 15 0 38 99 204 136 227 6 4 24 26 40 50 80 121
148 208 160 208 7 0 16 -4 19 -10 3 -5 27 -10 52 -10 39 0 50 5 83 38 66 66
72 141 15 202 -13 15 -28 49 -35 83 -6 32 -22 70 -35 85 -21 24 -31 27 -105
31 l-83 3 -62 -66 c-39 -41 -70 -66 -84 -66 -20 0 -21 4 -21 108 0 99 -2 112
-31 172 -16 35 -45 83 -63 105 -39 47 -127 95 -206 111 -30 6 -54 16 -53 21 2
11 39 148 56 207 16 57 43 85 112 116 51 23 64 34 74 60 18 52 13 94 -15 135
-20 31 -24 45 -19 74 14 79 18 82 56 53z m-669 -276 c31 -39 82 -53 133 -36
33 11 50 33 39 51 -3 5 -1 9 3 9 5 0 29 -28 53 -62 24 -35 61 -84 83 -110 l39
-48 -154 0 -154 0 -26 53 c-14 28 -44 76 -66 106 -23 30 -39 58 -36 63 13 21
60 7 86 -26z m395 -550 c49 -25 102 -87 122 -141 36 -96 26 -249 -22 -341 -24
-45 -83 -110 -122 -133 -43 -25 -44 -19 -4 27 74 84 88 191 37 288 -20 38 -37
55 -78 77 -80 42 -168 31 -247 -29 -19 -14 -38 -24 -42 -22 -5 2 1 36 14 77
17 53 35 85 62 113 90 93 200 126 280 84z m-804 -13 c-7 -2 -19 -2 -25 0 -7 3
-2 5 12 5 14 0 19 -2 13 -5z m47 -7 c0 -2 -7 -7 -16 -10 -8 -3 -12 -2 -9 4 6
10 25 14 25 6z m-453 -48 c-13 -18 -27 -42 -31 -52 -3 -10 -9 -16 -13 -13 -3
4 2 27 11 52 13 32 23 45 37 45 19 0 19 -2 -4 -32z m287 -59 c49 -18 84 -35
78 -37 -19 -6 -144 35 -177 59 -36 25 -25 23 99 -22z m116 -181 c38 -22 51
-38 31 -38 -13 0 -121 49 -121 55 0 13 55 3 90 -17z m-128 -27 c57 -22 111
-42 120 -45 16 -5 16 -8 3 -33 -8 -15 -15 -34 -15 -40 0 -17 -5 -16 -43 4 -18
9 -68 29 -112 43 l-80 27 -3 41 c-4 53 -1 53 130 3z m6178 -56 c-5 -38 -6 -73
-3 -78 3 -5 -8 -23 -25 -40 -17 -18 -59 -68 -94 -113 -93 -118 -222 -262 -230
-257 -5 2 -8 20 -8 38 0 26 10 46 43 83 174 201 252 304 272 361 13 39 44 86
51 78 1 -1 -1 -34 -6 -72z m-711 15 c-26 -53 -24 -93 6 -149 24 -43 46 -61
119 -99 32 -17 106 -18 136 -2 31 16 42 3 26 -29 -23 -44 -41 -53 -102 -52
-144 1 -274 124 -274 256 0 66 39 114 92 115 15 0 14 -4 -3 -40z m-5523 -61
c78 -24 149 -61 158 -84 8 -21 5 -20 -95 25 -49 22 -91 40 -93 40 -19 0 -56
22 -51 30 8 13 1 14 81 -11z m237 -26 c-5 -48 -22 -93 -35 -93 -5 0 -7 8 -4
18 2 9 7 33 11 52 10 56 16 71 25 65 4 -3 6 -22 3 -42z m6424 -223 c4 0 24
-14 43 -30 47 -40 118 -63 185 -58 30 1 55 1 55 -1 0 -24 -28 -71 -44 -75 -48
-13 -116 -5 -171 19 -61 27 -159 117 -176 162 -14 39 -11 104 7 124 15 17 19
13 55 -61 21 -44 42 -80 46 -80z m-938 -103 c38 -18 49 -30 61 -65 14 -40 13
-45 -5 -80 -20 -35 -23 -37 -65 -34 -25 1 -67 14 -94 28 -48 25 -50 25 -63 8
-13 -19 -140 -185 -243 -319 -71 -92 -264 -340 -358 -458 -39 -51 -84 -110
-100 -131 -15 -22 -31 -40 -37 -40 -5 -1 -12 16 -16 36 -7 43 -13 33 121 218
52 72 102 141 110 153 19 29 72 100 235 317 72 96 149 202 172 235 81 120 150
171 212 159 14 -3 45 -15 70 -27z m-4964 -85 c121 -29 210 -42 293 -43 66 -1
92 -5 92 -14 0 -6 -25 -49 -55 -94 -49 -74 -55 -88 -55 -134 0 -65 21 -99 58
-95 l27 3 -4 -125 c-2 -69 -6 -128 -10 -133 -4 -4 -25 -1 -47 6 l-39 14 -6
159 c-7 179 -12 210 -45 275 -32 63 -74 83 -157 74 -42 -5 -72 -15 -94 -31
-33 -25 -50 -29 -70 -16 -9 5 -9 26 -3 80 5 40 12 78 16 84 6 10 21 8 99 -10z
m4075 -315 c0 -2 -18 -28 -40 -57 -33 -44 -40 -62 -40 -99 0 -60 34 -148 72
-187 35 -37 36 -77 1 -82 -54 -8 -118 74 -154 198 -12 44 -27 80 -33 80 -16 0
-177 -168 -292 -305 -135 -162 -212 -256 -228 -275 -6 -8 -61 -75 -121 -149
-61 -73 -126 -153 -145 -176 -115 -140 -223 -265 -230 -265 -12 0 -26 22 -38
58 -11 32 -9 35 74 140 47 59 97 121 112 138 15 17 38 46 52 64 14 18 51 65
82 104 32 39 61 76 66 81 4 6 23 30 43 55 194 245 242 306 300 375 37 44 81
104 99 133 32 53 84 94 185 145 43 22 63 26 143 27 50 0 92 -1 92 -3z m-2230
-149 c21 0 30 -10 58 -71 18 -40 32 -77 32 -84 0 -7 6 -16 13 -20 15 -10 117
-217 117 -238 0 -8 4 -15 10 -15 5 0 22 -26 38 -58 31 -64 45 -81 112 -133 24
-18 51 -39 60 -46 32 -25 217 -210 250 -250 118 -144 200 -269 279 -428 108
-218 158 -337 209 -505 196 -633 169 -1455 -65 -1985 -130 -296 -255 -499
-397 -648 l-36 -37 0 65 c0 50 6 77 25 115 13 27 29 51 35 55 6 3 17 21 25 38
8 18 26 50 39 72 34 57 106 203 123 250 33 89 109 356 128 448 57 274 79 652
56 930 -25 290 -103 657 -181 842 -4 11 -16 43 -25 70 -110 312 -312 639 -540
869 -93 94 -118 115 -214 181 -39 27 -71 52 -71 57 0 4 -5 8 -11 8 -6 0 -44
16 -85 36 -118 57 -254 94 -424 117 -14 2 5 7 41 11 119 14 313 -23 487 -93
30 -12 52 -18 50 -13 -1 5 -17 37 -35 73 -44 88 -73 153 -73 165 0 11 -61 158
-85 205 l-17 32 24 -8 c12 -4 34 -7 48 -7z m-2258 -48 c36 0 126 -106 115
-134 -5 -12 -138 -61 -142 -53 -22 43 -58 137 -62 164 l-6 36 39 -6 c21 -4 47
-7 56 -7z m6600 -308 c20 -31 51 -84 68 -117 17 -33 41 -78 54 -100 87 -151
97 -180 69 -189 -10 -2 -61 -7 -113 -11 -52 -3 -144 -10 -205 -15 -60 -5 -170
-14 -242 -20 -385 -30 -729 -58 -868 -71 -205 -19 -292 -22 -299 -10 -20 32
-62 -15 -133 -151 -8 -16 -19 -28 -24 -28 -5 0 -9 -7 -9 -15 0 -9 -12 -34 -27
-58 -15 -23 -34 -54 -43 -69 -49 -87 -127 -218 -150 -253 -15 -22 -45 -74 -68
-115 -23 -41 -53 -93 -67 -115 -28 -47 -43 -73 -78 -137 -14 -26 -34 -59 -43
-73 -21 -33 -46 -76 -76 -134 -13 -24 -43 -59 -68 -77 -25 -19 -50 -38 -56
-42 -5 -5 -30 -22 -55 -37 -24 -16 -48 -34 -54 -40 -5 -6 -27 -21 -47 -33 -63
-39 -160 -153 -186 -219 -27 -69 -24 -113 15 -180 20 -36 22 -46 12 -65 -12
-22 -216 -327 -226 -338 -3 -3 -3 63 -1 145 5 169 -6 409 -26 565 -17 131 -15
147 26 210 38 59 60 68 113 46 39 -17 100 -20 155 -10 43 9 79 64 81 125 2 54
-30 120 -72 147 l-28 17 62 82 c34 44 91 118 127 163 96 120 204 258 253 319
23 29 60 75 82 102 22 26 54 66 70 89 17 23 40 53 52 68 13 15 46 56 73 90 28
35 56 69 63 76 6 7 32 41 57 76 25 35 52 71 60 79 8 9 28 36 44 59 27 39 28
46 21 100 -14 106 -21 97 79 100 76 2 98 -1 157 -24 45 -17 74 -34 82 -49 23
-44 86 -85 130 -85 75 0 96 47 57 128 -11 22 -20 50 -20 61 0 21 3 19 160 -73
128 -75 302 -96 396 -48 45 23 100 72 124 110 l15 23 50 -18 c37 -14 53 -26
63 -48 35 -81 33 -80 99 -83 76 -4 91 12 73 80 -10 36 -9 45 7 67 25 35 118
81 162 81 33 0 39 -5 73 -58z m1335 33 c12 -9 48 -59 79 -113 31 -53 107 -178
169 -277 62 -99 121 -196 131 -215 11 -19 27 -46 37 -60 24 -33 122 -200 151
-258 30 -60 22 -87 -31 -101 -21 -5 -121 -15 -223 -21 -102 -5 -302 -19 -445
-30 -143 -10 -370 -26 -505 -35 -135 -8 -330 -22 -435 -30 -104 -8 -208 -16
-230 -18 -45 -3 -131 26 -127 43 1 6 9 22 17 34 17 26 -35 20 550 61 198 14
479 32 625 40 290 16 635 43 663 51 23 7 22 57 -1 92 -39 56 -90 140 -143 232
-29 52 -57 100 -62 105 -18 22 -117 195 -117 205 0 5 -4 10 -10 10 -5 0 -23
26 -40 58 -47 87 -63 112 -92 145 l-27 30 -163 -6 c-90 -4 -280 -12 -423 -17
-143 -5 -293 -12 -332 -15 -63 -4 -73 -2 -73 12 0 15 -2 14 -13 -2 -11 -14
-22 -17 -56 -12 -47 6 -91 31 -91 51 0 16 37 18 500 36 151 6 291 12 310 14
19 1 114 3 210 4 143 2 180 -1 197 -13z m-6434 -169 c23 -25 56 -71 72 -102
17 -32 45 -80 64 -108 18 -28 44 -71 57 -96 14 -25 56 -94 94 -155 72 -113
109 -177 122 -207 6 -14 0 -19 -26 -23 -72 -14 -73 -13 -196 191 -63 105 -148
246 -188 312 -54 89 -80 124 -98 128 -13 3 -112 1 -220 -5 -107 -6 -286 -16
-397 -21 -111 -6 -263 -14 -337 -20 -74 -5 -189 -12 -255 -15 -66 -3 -273 -15
-459 -25 -187 -11 -353 -20 -371 -20 -17 0 -40 -6 -51 -14 -19 -14 -19 -15 1
-53 10 -21 27 -49 36 -63 9 -14 32 -54 51 -90 37 -69 148 -267 184 -329 34
-58 193 -340 232 -411 19 -36 52 -90 72 -120 l36 -55 84 0 85 0 17 -35 c9 -19
17 -47 18 -62 l0 -28 -122 0 c-141 1 -151 5 -202 95 -16 28 -40 70 -54 95 -14
25 -39 68 -56 95 -17 28 -44 75 -60 105 -16 30 -35 62 -42 71 -8 8 -14 19 -14
24 0 4 -29 59 -65 121 -36 62 -65 118 -65 123 0 5 -4 11 -8 13 -5 2 -15 15
-23 29 -30 56 -91 167 -134 244 -89 159 -100 181 -116 224 -18 49 -10 94 18
105 25 10 537 42 1063 66 124 6 349 17 500 26 496 29 534 31 623 32 l89 2 41
-44z m6334 -94 c53 -66 83 -109 83 -122 0 -5 -22 -10 -49 -10 l-48 0 -31 68
c-16 37 -33 78 -37 92 -4 14 -9 34 -12 44 -5 18 -3 18 25 -3 17 -11 47 -42 69
-69z m-318 10 c65 -68 111 -129 111 -149 0 -9 -14 -13 -45 -13 -45 0 -45 0
-75 60 -47 94 -71 160 -58 160 6 0 36 -26 67 -58z m-313 10 c34 -30 134 -166
134 -182 0 -5 -21 -10 -46 -10 l-45 0 -38 83 c-37 79 -55 137 -42 137 3 0 20
-13 37 -28z m-264 -44 c45 -47 108 -140 108 -160 0 -5 -20 -8 -44 -8 l-44 0
-35 74 c-41 86 -60 146 -46 146 6 0 33 -24 61 -52z m-5669 -110 c60 -41 135
-139 158 -204 8 -22 39 -63 70 -94 31 -31 66 -74 78 -95 12 -22 33 -55 46 -74
14 -19 24 -35 23 -36 -2 -1 -22 -5 -44 -9 -40 -6 -42 -5 -70 39 -17 27 -35 45
-47 45 -10 0 -15 5 -12 10 3 6 14 10 23 10 9 0 23 4 31 9 33 21 -54 91 -113
91 -34 0 -39 13 -16 40 23 26 24 31 9 28 -6 -2 -35 36 -63 83 -28 47 -66 103
-83 123 -50 56 -44 72 10 34z m-335 -22 c30 -16 112 -100 112 -115 0 -5 3 -11
8 -13 4 -1 20 -32 37 -67 16 -35 46 -78 66 -95 19 -17 59 -67 89 -111 29 -44
62 -92 72 -107 21 -31 17 -35 -37 -39 -39 -4 -40 -3 -74 58 -29 53 -39 62 -65
65 -29 3 -28 5 19 20 l50 15 -38 36 c-42 40 -111 58 -153 38 -36 -16 -29 -5
15 25 36 23 39 28 28 47 -7 12 -15 24 -18 27 -3 3 -20 35 -38 71 -18 37 -50
84 -72 105 -53 52 -53 67 -1 40z m7039 -46 c53 -52 90 -110 182 -282 18 -34
42 -76 53 -91 11 -16 19 -30 17 -31 -2 -2 -36 -6 -76 -9 -83 -7 -78 -10 -147
108 -26 44 -51 87 -56 95 -6 8 -18 31 -28 50 -10 19 -23 44 -30 55 -6 11 -20
46 -30 78 l-19 57 26 6 c14 3 31 7 36 9 6 2 12 4 16 4 3 1 28 -21 56 -49z
m-7337 -3 c53 -49 74 -79 121 -167 19 -35 52 -82 75 -105 48 -47 77 -86 132
-177 61 -102 62 -105 6 -104 l-46 1 -38 70 c-33 61 -42 71 -71 76 l-34 6 46
13 46 13 -16 28 c-22 39 -79 63 -136 57 -25 -3 -45 -2 -45 2 0 5 17 18 37 30
32 19 35 23 20 31 -9 6 -17 16 -17 23 0 20 -98 177 -132 214 -50 51 -4 42 52
-11z m7047 -9 c24 -23 43 -46 43 -52 0 -5 11 -23 23 -40 13 -17 43 -67 67
-111 23 -44 58 -105 76 -136 19 -31 34 -62 34 -68 0 -7 -28 -11 -79 -11 l-80
0 -46 83 c-25 45 -50 89 -55 97 -54 88 -91 168 -87 188 3 16 -3 32 -16 45
l-21 21 30 13 c48 20 66 15 111 -29z m-7390 0 c41 -31 115 -138 158 -229 9
-19 30 -44 45 -54 16 -11 44 -40 63 -65 44 -59 147 -222 147 -232 0 -4 -12 -8
-27 -8 -16 0 -37 -3 -48 -5 -17 -5 -27 7 -60 71 -41 79 -67 106 -91 97 -8 -3
-14 -1 -14 5 0 5 21 14 46 18 l46 9 -22 28 c-12 15 -35 34 -51 43 -34 17 -105
22 -134 9 -37 -16 4 23 42 42 27 12 31 18 20 24 -8 5 -35 46 -61 92 -26 46
-65 105 -87 132 -21 26 -39 49 -39 51 0 12 28 0 67 -28z m7099 -23 c52 -59 69
-84 108 -157 44 -82 66 -122 106 -186 18 -29 30 -55 27 -58 -3 -4 -39 -7 -79
-8 l-72 -1 -33 50 c-66 100 -163 283 -163 308 0 14 -4 29 -10 32 -23 14 -10
44 23 54 50 14 52 14 93 -34z m-7443 0 c22 -19 44 -35 49 -35 4 0 8 -7 8 -15
0 -8 11 -25 25 -37 14 -12 25 -30 25 -40 0 -10 5 -18 11 -18 5 0 21 -24 34
-53 13 -29 43 -70 65 -92 51 -49 114 -136 169 -233 45 -81 50 -102 24 -102
-10 0 -28 -3 -40 -6 -18 -5 -28 5 -67 74 -59 102 -90 136 -118 129 -12 -4 -17
-2 -12 3 5 5 27 11 49 13 21 2 40 8 42 13 2 6 -15 28 -37 49 -39 38 -44 40
-105 40 -36 0 -65 3 -65 8 0 4 6 7 13 7 8 0 23 10 34 23 l21 22 -62 101 c-33
55 -73 115 -88 133 -27 31 -35 51 -22 51 3 0 24 -16 47 -35z m7204 -78 c6 -8
23 -36 37 -63 14 -27 44 -80 65 -119 66 -116 85 -154 80 -159 -2 -2 -36 -5
-75 -8 l-71 -4 -29 50 c-16 27 -41 70 -56 95 -15 25 -36 62 -46 81 -11 19 -31
56 -46 82 -15 26 -25 52 -21 58 3 5 -1 20 -9 32 -21 29 -20 38 2 38 9 1 28 7
42 15 24 14 27 12 70 -34 25 -27 50 -55 57 -64z m-7521 46 c22 -21 47 -49 57
-63 9 -14 30 -44 47 -67 16 -24 30 -48 30 -53 0 -18 32 -63 85 -120 52 -55
125 -153 125 -168 0 -4 22 -44 48 -89 70 -119 79 -150 57 -207 -10 -26 -21
-43 -26 -39 -7 8 -45 78 -147 273 -54 103 -70 123 -96 116 -11 -3 -15 -1 -10
4 5 5 27 13 48 17 l39 8 -27 32 c-36 43 -98 66 -156 59 -44 -6 -45 -6 -24 11
12 10 30 23 39 28 17 10 15 15 -15 70 -18 33 -49 84 -69 113 -68 100 -74 112
-59 112 8 0 32 -17 54 -37z m7275 -140 c23 -43 64 -121 92 -173 l49 -95 -39
-8 c-21 -4 -54 -7 -73 -5 -37 3 -36 1 -143 198 l-25 46 35 57 c20 31 42 57 49
57 7 0 31 -35 55 -77z m-5541 -27 c0 -3 -4 -8 -10 -11 -5 -3 -10 -1 -10 4 0 6
5 11 10 11 6 0 10 -2 10 -4z m5381 -257 c6 -3 -18 -9 -52 -12 -35 -3 -66 -4
-70 -2 -3 3 8 32 24 65 l30 61 29 -53 c16 -29 33 -55 39 -59z m-4479 -21 c137
-208 238 -375 238 -393 0 -8 -42 -14 -142 -19 -79 -4 -233 -13 -343 -21 -110
-8 -272 -20 -360 -25 -262 -17 -601 -41 -835 -60 -74 -5 -193 -14 -263 -20
-200 -15 -197 -13 -263 -128 -31 -53 -99 -161 -150 -239 -52 -78 -94 -147 -94
-152 0 -6 -6 -14 -14 -18 -7 -4 -22 -23 -32 -42 -25 -45 -29 -50 -139 -221
-236 -363 -261 -397 -307 -413 -14 -5 -18 -1 -18 18 0 13 6 28 13 32 8 4 16
15 20 23 3 8 33 58 66 110 33 52 70 114 82 136 12 23 32 54 45 70 14 15 27 38
30 51 4 13 10 23 15 23 5 0 13 8 16 18 4 9 19 35 34 57 75 114 119 185 119
192 0 5 10 21 23 36 12 16 31 43 42 61 11 18 51 80 89 137 80 119 106 166 106
190 0 10 -19 61 -42 114 l-42 97 24 45 c29 54 47 67 121 86 49 13 346 66 619
111 176 29 334 56 440 76 58 10 155 28 215 39 61 12 199 37 308 57 109 20 210
40 225 44 15 5 43 9 64 9 35 1 38 -2 90 -81z m4174 -255 c18 -24 17 -68 -1
-83 -8 -6 -17 -21 -21 -32 -3 -11 -23 -46 -44 -77 -20 -31 -63 -96 -95 -146
-32 -49 -74 -114 -94 -143 -20 -28 -47 -70 -61 -91 -67 -106 -122 -180 -136
-185 -48 -18 -67 10 -34 51 11 16 38 55 60 88 21 33 73 114 116 180 42 66 90
142 106 168 15 26 32 53 38 60 20 24 140 212 140 219 0 13 12 9 26 -9z m-499
-95 c21 -24 103 -161 103 -173 0 -4 -6 -2 -13 4 -8 6 -66 24 -131 41 -184 48
-340 110 -322 128 9 8 134 19 247 21 87 1 97 -1 116 -21z m-2215 -212 c158
-22 227 -57 214 -111 -7 -28 -23 -31 -76 -14 -19 6 -93 21 -165 33 -128 22
-130 23 -137 52 -3 16 -9 39 -13 51 -7 20 -5 21 32 12 21 -5 86 -15 145 -23z
m-2195 -84 c88 -74 111 -87 189 -102 52 -10 78 -9 189 9 72 12 177 32 235 45
58 14 158 27 222 31 129 8 144 15 134 65 -6 33 -2 35 52 24 17 -3 40 -15 52
-26 19 -18 21 -27 15 -79 -7 -58 -6 -61 29 -103 56 -68 96 -149 96 -193 0 -89
-23 -109 -142 -124 -185 -23 -214 -47 -401 -317 -41 -60 -95 -137 -247 -350
-123 -174 -183 -192 -383 -115 -81 32 -103 57 -55 67 17 3 40 6 52 6 38 0 88
35 112 78 22 40 23 45 9 72 -8 16 -15 34 -15 40 0 14 50 12 98 -4 31 -11 44
-12 55 -3 8 7 53 71 100 142 95 145 202 304 216 321 5 7 15 30 21 53 9 35 8
46 -10 80 -29 57 -26 68 25 92 29 14 55 36 75 67 34 51 37 77 14 110 -20 29
-63 29 -196 -2 -213 -48 -283 -58 -344 -47 -67 13 -132 48 -192 105 -51 48
-104 121 -95 130 4 3 9 3 12 -2 3 -4 39 -36 78 -70z m3931 -24 c27 -24 57 -48
68 -55 19 -11 19 -11 -1 -18 -49 -16 -157 -73 -233 -123 -124 -82 -210 -174
-382 -407 -149 -201 -210 -274 -248 -294 -12 -6 -37 0 -87 21 -38 16 -79 32
-90 35 -65 20 -205 104 -252 150 -67 65 -72 102 -19 127 93 44 230 18 420 -80
27 -14 52 -22 56 -17 15 17 167 225 210 288 99 145 187 234 310 313 77 50 174
102 192 102 4 0 29 -19 56 -42z m472 -359 c0 -5 -4 -9 -10 -9 -5 0 -10 7 -10
16 0 8 5 12 10 9 6 -3 10 -10 10 -16z m228 -95 c21 -6 32 -34 12 -34 -5 0 -26
-11 -47 -25 -186 -122 -287 -221 -453 -441 -58 -76 -135 -177 -171 -224 -36
-47 -83 -110 -103 -140 -21 -30 -47 -66 -59 -80 -12 -14 -32 -38 -45 -55 -12
-16 -32 -41 -43 -55 -12 -14 -40 -50 -63 -81 -22 -31 -90 -120 -151 -198 -60
-79 -117 -153 -125 -164 -8 -12 -41 -56 -73 -97 -81 -105 -91 -117 -145 -185
-27 -33 -91 -116 -143 -184 -52 -68 -105 -138 -119 -156 -96 -125 -139 -184
-155 -207 -31 -50 -76 -70 -150 -66 -37 1 -72 6 -78 10 -8 5 -6 8 6 8 9 0 17
3 17 8 0 4 12 14 28 23 15 8 53 53 84 100 52 76 129 180 175 235 19 23 46 59
140 184 31 41 78 103 105 137 26 34 48 66 48 70 0 4 9 16 20 28 12 11 39 45
61 75 22 30 49 66 60 80 36 46 270 355 287 380 9 14 57 78 107 144 49 65 97
128 105 140 8 11 26 35 40 52 14 16 36 45 50 64 14 19 64 85 112 147 48 62 95
125 105 140 9 16 32 45 50 65 39 45 49 79 34 116 -11 25 -42 46 -182 119 -60
31 -55 41 23 47 289 22 592 31 636 20z m-9056 -76 c9 -35 26 -99 38 -143 57
-209 68 -260 56 -267 -6 -4 -36 -8 -67 -8 -48 0 -141 -10 -321 -36 l-47 -7
-16 39 c-9 21 -26 74 -40 119 -13 44 -35 118 -49 165 -35 118 -36 115 33 117
57 3 268 50 321 71 14 6 37 11 51 11 23 1 27 -5 41 -61z m9103 -399 c200 -26
432 -88 612 -165 17 -8 34 -14 38 -14 11 0 147 -60 200 -87 17 -9 67 -36 112
-59 l82 -43 -42 -6 c-281 -37 -344 -37 -385 -2 -39 33 -307 168 -385 193 -29
10 -66 23 -84 31 -17 7 -35 13 -41 13 -12 0 -111 29 -137 41 -34 15 -206 39
-285 40 -41 0 -83 4 -93 8 -17 6 -16 8 5 27 45 41 58 44 193 38 72 -2 166 -9
210 -15z m-8115 -175 c66 -22 104 -65 150 -169 40 -92 50 -132 29 -119 -34 21
-218 37 -408 37 -223 -1 -201 -6 -285 68 -58 50 -128 99 -142 99 -11 0 -25 28
-39 77 -5 19 -1 22 32 26 21 3 168 3 328 1 224 -4 300 -8 335 -20z m2686 -22
c7 -46 64 -220 109 -334 109 -276 201 -421 335 -522 74 -57 134 -91 198 -111
38 -13 52 -22 52 -36 0 -25 -39 -25 -121 1 -34 10 -67 16 -72 13 -6 -3 -7 -1
-3 5 4 8 0 12 -10 12 -10 0 -56 12 -103 26 -47 14 -117 35 -156 46 -66 20
-115 50 -115 71 0 6 -29 69 -64 141 -36 72 -72 149 -81 171 -9 22 -26 58 -36
81 -10 22 -19 47 -19 55 0 8 -4 19 -9 25 -18 19 -62 158 -103 323 -2 9 14 17
52 25 30 7 70 22 89 34 19 11 38 19 42 16 5 -3 11 -21 15 -42z m-3510 -23 c6
-44 6 -45 -27 -56 -84 -28 -146 -55 -201 -88 -48 -28 -70 -35 -111 -35 -52 0
-52 0 -71 43 -26 61 -50 136 -44 142 12 13 428 55 440 45 4 -3 11 -26 14 -51z
m8884 -9 c140 -37 176 -49 215 -65 17 -8 65 -28 108 -45 43 -18 84 -38 92 -46
7 -8 19 -14 25 -14 6 0 30 -10 53 -22 l42 -22 -65 -18 c-157 -45 -207 -60
-230 -72 -14 -8 -54 -23 -89 -35 -86 -29 -339 -153 -490 -239 -67 -39 -134
-73 -149 -77 -40 -8 -122 -15 -122 -10 0 2 10 28 21 57 69 174 134 404 176
627 l4 24 147 -6 c121 -5 167 -11 262 -37z m-9449 -133 c20 -67 51 -160 69
-207 46 -121 60 -170 50 -170 -13 0 -40 42 -40 62 0 10 -4 18 -10 18 -5 0 -28
27 -50 60 -42 62 -104 114 -203 170 -31 18 -64 42 -72 53 -14 20 -12 23 33 51
26 17 49 33 52 37 4 5 117 48 130 49 3 0 21 -55 41 -123z m1464 -242 c39 -9
95 -23 125 -30 67 -17 150 -45 212 -74 26 -11 49 -21 52 -21 13 0 232 -105
331 -158 64 -35 215 -133 216 -141 1 -3 3 -46 4 -96 2 -94 29 -185 78 -259 30
-45 113 -113 175 -144 28 -14 52 -29 52 -32 0 -15 -129 -32 -260 -34 -80 -1
-150 -1 -157 2 -6 2 -56 54 -111 116 -151 170 -303 306 -521 464 -32 23 -199
114 -289 158 -75 36 -142 59 -280 96 -100 26 -358 36 -499 18 -119 -14 -329
-61 -400 -88 -29 -11 -53 -18 -53 -16 0 11 197 101 299 136 117 40 153 50 336
90 159 34 188 36 410 33 154 -2 229 -7 280 -20z m1484 -289 c59 -31 101 -111
101 -195 0 -118 -46 -202 -130 -240 -39 -17 -47 -18 -88 -6 -147 45 -199 239
-101 376 50 70 150 100 218 65z m3441 0 c0 -14 -45 -84 -114 -176 -40 -52 -57
-85 -105 -191 -11 -25 -34 -122 -51 -215 -17 -93 -37 -205 -45 -249 -22 -117
-44 -256 -60 -378 -20 -146 -46 -192 -123 -215 -44 -13 -155 -33 -382 -68 -91
-14 -190 -29 -220 -34 -193 -31 -251 -41 -295 -50 -27 -5 -122 -21 -210 -35
-88 -14 -168 -27 -177 -29 -22 -5 -22 -2 -4 16 7 8 29 54 49 103 40 103 50
173 72 495 22 322 48 447 124 595 61 117 217 259 310 282 14 3 31 9 36 13 30
22 132 41 310 60 190 19 235 23 350 36 28 2 75 9 105 15 66 12 304 36 378 38
38 1 52 -3 52 -13z m-5175 -52 c63 -19 118 -41 123 -47 13 -16 52 -340 43
-350 -18 -18 -337 -45 -476 -40 -189 7 -287 27 -415 87 -38 17 -102 86 -132
141 -16 28 -33 58 -40 67 -7 9 -10 19 -7 22 2 3 115 14 249 25 135 12 272 27
305 33 55 11 166 65 180 88 11 17 54 11 170 -26z m2527 -81 c47 -34 66 -75 67
-145 1 -37 -5 -53 -26 -80 -47 -56 -71 -74 -303 -228 -124 -82 -238 -159 -255
-170 -16 -12 -77 -50 -135 -85 -58 -35 -135 -82 -171 -104 -66 -41 -99 -51
-99 -30 0 19 -66 0 -239 -68 -157 -62 -220 -94 -268 -137 -13 -11 -26 -17 -29
-13 -12 11 37 61 94 95 31 19 71 46 88 61 37 31 193 137 244 166 19 11 37 23
40 27 7 9 79 58 86 58 3 0 28 17 57 38 59 44 116 74 127 67 14 -8 150 31 200
58 45 24 91 68 84 79 -11 17 96 106 210 174 26 16 65 43 85 61 35 31 35 33 18
50 -15 15 -38 18 -150 21 -73 2 -167 -1 -209 -6 l-78 -8 0 42 c0 23 -3 49 -6
57 -4 12 16 17 108 27 62 6 142 15 178 20 36 5 104 8 152 6 80 -2 91 -5 130
-33z m-2083 -142 c46 -31 51 -37 36 -46 -9 -5 -37 -25 -60 -43 -24 -17 -46
-29 -48 -25 -3 5 -8 43 -12 86 -8 89 -9 89 84 28z m9496 -15 c117 -25 209 -89
256 -176 21 -39 24 -59 24 -145 0 -105 -7 -132 -67 -265 -62 -136 -273 -389
-428 -512 -104 -82 -255 -193 -310 -227 -79 -48 -331 -176 -398 -202 -54 -20
-252 -88 -317 -108 -146 -46 -460 -62 -539 -28 -21 10 -46 17 -54 17 -9 0 -32
11 -52 25 l-36 25 -14 153 -13 152 -33 32 -34 32 27 82 c43 134 84 189 143
189 10 0 34 7 53 15 20 8 39 15 41 15 3 0 -17 -44 -44 -98 -57 -113 -74 -181
-68 -267 10 -122 70 -190 207 -234 19 -6 91 -11 160 -11 125 0 239 17 371 55
30 9 64 19 75 22 11 3 34 11 52 19 17 8 35 14 41 14 26 0 324 146 330 161 2 5
8 9 13 9 10 0 134 77 159 98 8 7 33 26 55 42 97 69 225 181 288 250 80 88 127
145 127 154 0 4 11 19 25 34 14 15 25 32 25 38 0 6 8 22 18 35 10 13 26 49 36
79 56 178 20 313 -105 387 -71 42 -128 53 -279 54 -167 0 -311 -26 -505 -94
l-70 -25 -22 26 c-12 15 -19 30 -15 34 13 12 197 78 219 78 12 0 24 4 27 9 10
15 137 45 276 66 106 16 259 12 355 -9z m-1056 -107 c26 -9 31 -16 31 -43 0
-26 -8 -39 -38 -63 -73 -59 -164 -74 -190 -32 -23 37 33 105 112 136 40 15 47
15 85 2z m-8256 -30 c23 -12 177 -159 177 -169 0 -9 -68 -40 -89 -40 -15 0
-20 -14 -29 -94 -7 -52 -12 -117 -12 -145 0 -27 -3 -52 -8 -55 -4 -2 -54 -10
-111 -16 -80 -10 -105 -10 -111 0 -8 13 -50 262 -50 298 0 13 6 22 15 22 23 0
45 42 52 97 4 41 11 53 35 69 77 49 92 53 131 33z m8454 -205 c31 -63 40 -91
33 -103 -16 -30 -100 -106 -117 -106 -11 0 -24 20 -40 59 -12 32 -29 66 -38
76 -8 9 -15 23 -15 30 0 12 118 130 130 130 3 0 24 -39 47 -86z m-459 -16 c23
-23 14 -48 -17 -48 -15 0 -42 -5 -59 -11 -53 -18 -53 -6 0 34 56 41 59 42 76
25z m-8424 -54 c11 -42 34 -258 29 -266 -2 -5 -26 -8 -53 -8 -44 0 -52 4 -73
33 -27 36 -127 223 -127 236 0 8 116 26 186 30 26 1 33 -3 38 -25z m7513 -116
c-3 -29 -23 -105 -44 -168 l-39 -115 -70 -11 c-71 -12 -519 -69 -606 -77 -46
-4 -47 -4 -53 27 -13 62 -48 116 -106 162 -58 46 -76 71 -62 84 4 4 46 12 93
18 178 23 370 53 497 77 156 30 303 52 357 54 l39 1 -6 -52z m1024 -10 c14
-13 44 -32 67 -42 27 -12 42 -25 42 -38 0 -10 5 -18 10 -18 17 0 11 -76 -7
-98 -19 -21 -72 -42 -106 -42 -26 0 -85 39 -92 61 -3 9 -18 29 -33 46 l-27 30
-90 -13 c-49 -8 -184 -25 -300 -39 -115 -14 -240 -30 -277 -35 -37 -6 -83 -10
-103 -10 -41 0 -42 7 -11 82 15 34 18 36 88 46 40 6 102 14 138 17 36 4 182
19 325 36 143 16 278 30 300 32 22 2 43 4 46 5 3 1 17 -8 30 -20z m543 -129
c33 -67 35 -75 25 -115 -9 -34 -25 -57 -71 -100 -33 -30 -67 -54 -75 -52 -8 2
-32 31 -53 65 l-40 62 45 36 c52 43 119 140 111 161 -3 8 1 14 9 14 8 0 30
-32 49 -71z m-12464 -44 c194 -26 314 -47 415 -70 33 -7 123 -28 200 -45 77
-18 187 -45 245 -60 58 -16 140 -36 184 -45 44 -10 73 -21 66 -25 -7 -4 9 -11
36 -15 27 -4 85 -18 129 -32 180 -56 331 -106 340 -113 6 -4 26 -11 45 -15 19
-4 41 -11 50 -16 8 -4 98 -40 200 -79 102 -40 218 -87 258 -106 41 -19 78 -34
83 -34 5 0 17 -4 27 -10 9 -5 76 -37 147 -71 180 -85 262 -125 320 -159 28
-16 56 -32 63 -36 210 -109 440 -271 584 -410 75 -73 185 -221 173 -233 -4 -3
-11 3 -18 14 -29 53 -166 174 -277 247 -147 95 -208 134 -240 151 -19 11 -37
23 -40 27 -3 4 -16 11 -30 15 -14 4 -32 13 -40 20 -17 15 -269 142 -405 205
-205 95 -208 97 -370 168 -49 21 -101 43 -115 47 -28 8 -288 109 -335 130 -16
7 -70 27 -120 43 -49 17 -171 59 -270 92 -99 34 -211 70 -250 81 -38 10 -97
27 -130 38 -211 68 -401 121 -440 121 -12 0 -25 4 -30 9 -6 5 -30 14 -55 19
-25 6 -72 17 -105 26 -171 42 -530 106 -695 122 -136 14 -176 20 -150 26 66
13 362 -1 550 -27z m5756 -55 c283 -46 326 -68 339 -175 12 -89 2 -238 -17
-267 l-16 -25 51 8 c59 10 341 65 381 75 36 9 35 -17 -4 -94 -38 -77 -86 -105
-152 -89 -94 23 -272 78 -285 88 -10 9 -13 48 -13 158 0 210 3 206 -245 246
-119 19 -201 19 -261 -1 -59 -20 -155 -90 -299 -218 -59 -53 -114 -96 -123
-96 -17 0 -112 58 -112 69 0 3 22 7 50 7 56 2 79 16 179 104 9 8 39 33 65 54
27 22 62 52 80 68 17 17 40 34 51 39 11 5 35 18 54 29 70 43 117 46 277 20z
m2608 -183 c75 -78 102 -115 144 -198 27 -54 27 -54 104 -76 210 -60 594 -57
999 8 138 22 280 63 346 100 47 27 113 89 113 106 0 7 8 17 18 22 19 10 233
34 240 26 2 -2 5 -22 6 -43 0 -32 -6 -47 -34 -79 -71 -80 -238 -166 -392 -202
-320 -75 -1012 -120 -1305 -85 -58 7 -129 70 -143 127 -27 105 -61 164 -161
278 -101 114 -135 168 -125 196 4 10 23 -3 63 -47 32 -34 89 -94 127 -133z
m-5004 147 c-76 -43 -89 -80 -47 -141 30 -45 131 -93 372 -176 105 -36 228
-79 275 -96 47 -17 92 -31 102 -31 9 0 18 -4 20 -8 7 -19 383 -147 465 -159
24 -3 40 -9 38 -13 -3 -4 12 -10 33 -14 20 -3 55 -10 77 -15 213 -47 338 -69
645 -110 340 -45 389 -50 600 -66 107 -8 260 -19 340 -25 672 -52 1945 -52
2605 0 563 44 1040 135 1211 231 53 31 176 132 184 153 24 61 67 77 251 95 90
9 103 8 205 -20 60 -16 142 -36 182 -46 39 -10 72 -20 72 -24 0 -3 -19 -9 -42
-12 -24 -3 -87 -13 -140 -21 -126 -21 -277 -44 -354 -55 -111 -16 -132 -46
-68 -97 20 -16 46 -37 57 -47 12 -10 35 -27 53 -38 18 -11 34 -26 37 -33 9
-23 -13 -88 -45 -132 -37 -52 -47 -96 -48 -210 0 -65 -4 -95 -14 -103 -7 -6
-55 -25 -106 -41 l-93 -30 -326 30 c-179 17 -423 39 -541 50 -274 24 -486 45
-775 76 -126 13 -448 44 -715 69 -267 24 -570 54 -675 65 -186 19 -338 32
-815 67 -226 16 -501 18 -1330 10 l-165 -2 -65 32 c-65 33 -300 113 -460 158
-47 13 -116 33 -155 45 -67 20 -88 27 -215 64 -30 9 -86 25 -125 36 -38 10
-113 32 -165 48 -110 33 -415 125 -510 154 -36 11 -110 24 -165 29 -118 11
-219 26 -295 44 -30 7 -84 16 -119 20 -58 7 -68 11 -115 56 -63 60 -137 89
-232 90 -42 1 -70 -3 -72 -10 -7 -22 -52 -11 -177 44 -16 8 -39 17 -50 21
l-20 8 20 2 c11 2 130 10 265 19 135 8 297 19 360 25 63 5 223 17 355 26 132
8 274 19 315 24 41 4 91 8 110 9 l35 1 -45 -26z m7440 -689 l25 -13 -30 -12
c-40 -15 -185 -3 -185 15 0 18 21 23 100 23 38 1 75 -4 90 -13z m36 -132 c4
-27 8 -51 8 -56 1 -4 16 -16 34 -27 43 -27 52 -53 59 -185 l6 -112 -79 -12
c-43 -7 -94 -14 -111 -17 l-33 -5 0 211 c0 115 -1 213 -2 217 -3 7 65 30 93
32 12 1 19 -12 25 -46z m-10986 -174 c130 -20 366 -72 484 -106 67 -19 137
-39 156 -45 116 -33 338 -100 355 -107 11 -5 99 -34 195 -66 96 -31 184 -60
195 -65 21 -8 272 -101 405 -150 82 -30 278 -111 383 -159 37 -17 70 -31 73
-31 14 0 276 -137 359 -187 113 -68 165 -117 165 -155 0 -23 -6 -29 -37 -37
-56 -16 -95 -14 -259 14 -141 23 -519 113 -649 154 -145 46 -352 110 -375 116
-14 4 -29 11 -35 15 -5 4 -26 11 -45 15 -19 4 -102 33 -185 63 -82 30 -179 65
-215 77 -176 61 -550 211 -737 296 -24 11 -53 24 -65 29 -13 6 -30 14 -38 19
-8 5 -44 24 -80 42 -191 95 -305 173 -328 224 -11 24 7 48 45 58 22 7 146 -1
233 -14z m3723 -119 c34 -11 68 -24 75 -28 8 -6 14 -50 19 -140 5 -118 4 -132
-11 -138 -19 -7 -31 6 -91 92 -22 33 -59 78 -83 102 l-43 42 20 45 c12 26 27
45 36 45 9 0 44 -9 78 -20z m7500 -36 c26 -25 47 -50 47 -56 0 -15 -90 -3
-101 13 -11 18 -12 89 -1 89 4 0 29 -21 55 -46z m555 -65 c218 -10 498 -23
622 -29 353 -16 440 -32 453 -79 8 -32 -4 -71 -28 -87 -45 -30 -501 -79 -1550
-169 -88 -8 -266 -24 -395 -36 -301 -27 -464 -27 -590 0 -126 26 -431 131
-565 193 -11 5 -54 19 -95 32 -71 21 -75 24 -75 51 0 48 37 62 126 47 40 -7
77 -16 83 -21 6 -4 47 -20 91 -36 44 -15 125 -45 180 -66 161 -62 330 -106
430 -113 95 -6 273 6 660 48 247 27 262 28 815 81 201 20 397 39 435 43 l70 8
-130 8 c-71 4 -179 11 -240 16 -60 5 -209 14 -330 20 -361 18 -361 18 -374 46
-14 32 -15 77 0 69 6 -4 189 -15 407 -26z m-788 -1466 l-5 -267 -25 -7 c-14
-4 -35 -7 -47 -8 l-23 -1 0 254 c0 208 3 256 14 265 14 12 59 28 81 30 7 1 8
-91 5 -266z m597 -494 c72 -25 84 -30 154 -63 31 -14 60 -26 65 -26 5 0 24
-16 42 -36 39 -42 36 -49 -41 -92 -90 -51 -270 -93 -481 -113 -143 -13 -610
-7 -731 10 -245 35 -339 55 -465 98 -102 35 -179 83 -180 111 0 6 3 12 6 12
10 0 49 -23 55 -32 3 -5 21 -13 40 -18 19 -5 84 -23 144 -39 164 -46 336 -51
458 -15 24 7 22 53 -5 81 l-21 23 84 -8 c131 -11 396 -8 482 5 114 19 234 61
266 94 32 34 53 35 128 8z"/>
<path d="M3070 3834 c0 -14 20 -31 63 -56 83 -48 286 -150 367 -183 36 -15 83
-35 105 -45 22 -10 76 -32 120 -49 44 -18 89 -35 100 -40 47 -20 217 -82 305
-112 52 -17 109 -37 125 -44 17 -8 118 -41 225 -75 107 -34 204 -66 215 -71
40 -17 473 -118 555 -128 131 -18 153 -19 178 -12 l24 6 -21 23 c-21 26 -316
178 -446 231 -44 18 -93 39 -110 46 -32 14 -159 63 -295 114 -47 18 -112 43
-145 56 -60 24 -475 160 -635 208 -230 70 -524 135 -642 144 -83 6 -88 5 -88
-13z"/>
</g>
</svg>
