<?xml version="1.0" standalone="no"?>
<!DOCTYPE svg PUBLIC "-//W3C//DTD SVG 20010904//EN"
 "http://www.w3.org/TR/2001/REC-SVG-20010904/DTD/svg10.dtd">
<svg version="1.0" xmlns="http://www.w3.org/2000/svg"
 width="2804.000000pt" height="1536.000000pt" viewBox="0 0 2804.000000 1536.000000"
 preserveAspectRatio="xMidYMid meet">

<g transform="translate(0.000000,1536.000000) scale(0.100000,-0.100000)"
fill="#000000" stroke="none">
<path d="M5132 9059 c-19 -4 -39 -12 -45 -18 -6 -6 -26 -11 -44 -11 -18 0 -33
-4 -33 -10 0 -5 -13 -10 -30 -10 -16 0 -47 -6 -67 -14 -21 -8 -55 -17 -77 -21
-21 -3 -46 -10 -55 -15 -18 -10 -159 -49 -206 -57 -16 -2 -44 -11 -62 -19 -17
-8 -43 -14 -57 -14 -14 0 -26 -4 -26 -9 0 -5 -23 -11 -51 -13 -28 -3 -54 -10
-58 -15 -3 -6 -26 -13 -50 -16 -24 -3 -47 -10 -50 -15 -3 -5 -22 -12 -41 -15
-66 -11 -182 -37 -193 -44 -6 -3 -27 -10 -46 -14 -59 -13 -254 -66 -281 -77
-44 -17 -101 -34 -133 -39 -17 -3 -58 -13 -92 -24 -33 -10 -69 -19 -81 -19
-11 0 -24 -3 -28 -7 -7 -8 -25 -12 -76 -20 -19 -3 -41 -10 -48 -16 -7 -6 -32
-14 -55 -18 -23 -4 -73 -17 -112 -29 -38 -12 -88 -24 -110 -27 -22 -3 -44 -9
-49 -14 -6 -5 -20 -9 -33 -9 -13 0 -31 -4 -41 -9 -23 -13 -120 -42 -157 -48
-16 -3 -38 -9 -47 -14 -9 -5 -28 -9 -42 -9 -14 0 -28 -4 -31 -10 -3 -5 -21
-10 -38 -10 -18 0 -41 -6 -52 -14 -11 -7 -42 -17 -70 -21 -27 -4 -54 -10 -60
-15 -5 -4 -37 -13 -70 -20 -33 -6 -68 -16 -78 -21 -19 -10 -86 -26 -147 -36
-19 -3 -39 -9 -45 -13 -5 -5 -28 -11 -50 -15 -22 -4 -44 -11 -50 -15 -5 -4
-23 -10 -40 -13 -48 -8 -156 -35 -205 -50 l-45 -14 -3 -256 -2 -255 31 -11
c18 -6 46 -11 64 -11 17 0 40 -7 51 -15 10 -8 35 -15 54 -15 20 0 45 -7 57
-15 12 -8 43 -18 70 -21 26 -4 53 -10 58 -14 6 -4 32 -10 59 -14 28 -3 53 -11
57 -17 3 -6 26 -13 50 -16 24 -3 68 -14 97 -24 29 -10 62 -19 73 -19 11 0 30
-6 42 -12 12 -7 45 -18 72 -24 85 -19 179 -45 200 -54 11 -5 49 -15 85 -24 36
-8 79 -19 95 -25 17 -5 66 -17 110 -26 44 -10 94 -23 110 -30 17 -8 51 -16 78
-20 26 -3 47 -10 47 -14 0 -4 39 -16 88 -26 48 -10 98 -23 112 -28 14 -6 48
-16 75 -22 99 -24 190 -50 195 -57 3 -3 28 -9 55 -13 28 -4 59 -13 70 -19 11
-7 61 -21 110 -31 50 -10 101 -23 115 -30 14 -7 44 -15 68 -19 24 -3 51 -11
60 -16 18 -10 103 -34 182 -51 25 -6 54 -14 65 -19 11 -5 36 -11 55 -14 19 -3
71 -17 115 -30 44 -13 100 -29 125 -35 25 -7 62 -16 83 -22 21 -5 45 -13 55
-19 9 -5 38 -12 65 -15 26 -3 47 -10 47 -15 0 -4 27 -11 60 -15 33 -4 67 -13
75 -21 7 -8 31 -14 53 -14 22 0 45 -6 51 -13 6 -8 26 -14 46 -15 l35 -1 0
1233 c0 982 -2 1235 -12 1238 -7 3 -28 1 -46 -3z"/>
<path d="M5270 7831 l0 -1240 183 5 c100 3 256 10 347 16 163 11 337 19 745
36 116 5 219 12 230 15 22 7 234 15 545 23 112 3 207 9 210 14 3 5 82 11 175
14 94 3 247 9 340 14 94 6 244 13 335 17 91 4 197 10 235 14 39 5 148 9 243
10 l173 2 82 35 c45 19 143 65 217 102 l135 67 3 838 c1 566 -1 844 -8 858 -6
11 -21 19 -35 19 -14 0 -25 4 -25 10 0 5 -13 16 -30 25 -16 9 -30 12 -30 9 0
-4 -8 0 -17 8 -10 9 -42 24 -70 34 -29 10 -53 22 -53 26 0 5 -11 8 -24 8 -14
0 -32 7 -40 16 -9 8 -26 17 -38 19 -12 3 -26 9 -32 15 -6 6 -61 10 -128 10
-65 0 -118 4 -118 9 0 4 -96 11 -212 14 -224 6 -390 14 -473 23 -67 7 -408 24
-627 31 -98 3 -178 9 -178 13 0 4 -78 10 -172 14 -95 3 -234 10 -308 15 -74 5
-234 12 -355 16 -121 4 -229 10 -240 15 -11 5 -103 11 -205 14 -102 3 -263 9
-358 15 -95 5 -229 13 -298 17 l-124 6 0 -1241z"/>
<path d="M10653 8696 c-62 -19 -113 -32 -113 -29 0 2 -10 -3 -22 -11 -12 -9
-32 -16 -43 -16 -11 0 -44 -9 -73 -20 -29 -11 -61 -20 -71 -20 -10 0 -32 -7
-47 -15 -16 -8 -38 -15 -50 -15 -33 0 -87 -21 -111 -42 -20 -18 -32 -20 -140
-15 -65 3 -145 10 -178 16 -33 6 -77 11 -98 13 -21 1 -41 6 -43 10 -3 4 -29 8
-57 8 l-53 0 1 -741 0 -741 35 6 c19 3 67 13 105 21 39 9 122 20 185 25 63 5
133 12 156 16 32 4 52 0 90 -19 27 -13 72 -30 99 -37 28 -7 55 -17 61 -21 6
-5 14 -6 17 -2 4 3 7 1 7 -5 0 -5 24 -15 53 -21 28 -6 79 -20 112 -30 33 -11
89 -27 125 -36 36 -10 82 -24 103 -31 27 -10 90 -14 222 -14 l186 0 -3 148 -3
147 -410 6 c-225 3 -422 9 -438 13 -33 10 -44 25 -26 37 8 5 209 9 447 9 l433
0 -3 118 -3 117 -207 3 c-127 1 -208 6 -208 12 0 6 -22 10 -50 10 -27 0 -89 6
-137 14 -49 8 -108 17 -133 20 -25 2 -67 12 -94 22 -43 15 -46 18 -28 25 34
13 319 -6 462 -30 30 -5 133 -10 228 -10 l172 -1 0 241 0 241 -172 -6 c-95 -3
-225 -12 -288 -20 -221 -30 -363 -39 -394 -27 -61 24 -6 41 199 60 55 6 132
17 170 26 46 11 141 19 275 23 l205 7 3 118 3 117 -436 0 -435 0 0 23 c0 13 6
24 13 24 34 3 647 13 745 13 l113 0 -3 148 -3 147 -170 2 c-166 2 -173 1 -282
-31z"/>
<path d="M27040 7835 l0 -685 83 0 c92 0 105 7 127 65 16 40 39 129 51 190 5
28 13 70 19 95 13 60 13 530 0 654 -10 101 -60 288 -88 339 -16 26 -19 27
-104 27 l-88 0 0 -685z"/>
<path d="M11190 8203 c-1 -137 -2 -416 -3 -621 l-2 -372 73 0 72 0 0 620 0
620 -69 0 -70 0 -1 -247z"/>
<path d="M11419 8408 c0 -42 0 -1176 1 -1190 0 -5 3496 -8 7770 -8 l7770 0 0
620 0 620 -7770 0 -7770 0 -1 -42z"/>
<path d="M1445 8070 c-16 -5 -75 -20 -130 -35 -55 -14 -113 -31 -130 -39 -16
-7 -57 -19 -90 -25 -33 -7 -71 -18 -85 -24 -14 -6 -38 -12 -55 -15 -16 -2 -32
-7 -35 -12 -3 -4 -20 -11 -38 -15 -39 -8 -52 -30 -52 -88 0 -43 2 -46 43 -65
23 -11 79 -29 125 -41 45 -11 86 -22 91 -25 4 -3 21 -8 38 -10 17 -3 43 -13
59 -21 16 -8 43 -15 59 -15 17 0 42 -7 57 -14 16 -8 49 -18 75 -22 27 -4 50
-11 53 -15 4 -5 20 -11 37 -15 l31 -6 -1 256 c-1 164 -6 256 -12 255 -5 -1
-23 -5 -40 -9z"/>
</g>
</svg>
