<?xml version="1.0" standalone="no"?>
<!DOCTYPE svg PUBLIC "-//W3C//DTD SVG 20010904//EN"
 "http://www.w3.org/TR/2001/REC-SVG-20010904/DTD/svg10.dtd">
<svg version="1.0" xmlns="http://www.w3.org/2000/svg"
 width="605.000000pt" height="413.000000pt" viewBox="0 0 605.000000 413.000000"
 preserveAspectRatio="xMidYMid meet">

<g transform="translate(0.000000,413.000000) scale(0.100000,-0.100000)"
fill="#000000" stroke="none">
<path d="M2891 4115 c-54 -17 -107 -66 -122 -114 -6 -20 -19 -45 -29 -56 -21
-24 -63 -185 -54 -208 3 -9 24 -22 47 -30 27 -9 43 -21 46 -33 5 -25 36 -65
45 -57 3 3 6 -5 6 -19 0 -17 -7 -27 -20 -31 -11 -3 -22 -12 -25 -21 -3 -9 -7
-23 -10 -32 -4 -14 -7 -14 -27 0 -46 33 -108 7 -108 -44 0 -26 -6 -31 -60 -51
-77 -28 -132 -77 -204 -181 -32 -46 -84 -119 -116 -163 -33 -44 -72 -102 -87
-130 -54 -99 -31 -239 50 -299 28 -21 85 -27 125 -13 l22 8 0 -130 c0 -117 2
-133 20 -151 21 -21 59 -34 86 -28 14 2 29 20 40 46 1 2 13 0 28 -4 29 -7 34
-25 11 -44 -11 -9 -15 -32 -15 -79 1 -303 1 -307 -14 -288 -7 9 -18 17 -24 17
-13 0 -22 24 -22 58 0 40 -13 54 -46 50 -27 -3 -29 -6 -32 -52 -2 -34 -9 -54
-23 -65 -20 -16 -20 -19 -4 -226 19 -238 20 -240 93 -232 32 3 45 1 49 -10 3
-8 0 -116 -7 -241 -10 -189 -16 -239 -36 -301 -26 -80 -30 -122 -13 -152 8
-16 3 -30 -35 -80 -25 -34 -46 -66 -46 -73 0 -16 48 -60 88 -80 l32 -17 0 -79
c0 -73 -2 -80 -20 -80 -24 0 -26 -25 -3 -39 15 -8 10 -16 -35 -59 -29 -28 -52
-55 -52 -61 0 -6 -27 -18 -61 -28 -33 -9 -64 -24 -68 -32 -15 -29 -20 -100 -7
-110 6 -5 50 -15 97 -21 89 -11 178 -1 206 22 8 6 40 12 71 13 31 1 67 7 80
14 22 12 23 16 16 84 -4 40 -11 82 -15 95 -12 32 -11 151 2 212 9 44 14 52 39
57 51 10 64 34 56 105 -10 92 -10 226 -2 368 6 95 14 140 32 187 14 36 24 82
24 112 0 29 9 77 20 109 28 79 47 164 60 268 6 48 14 94 19 101 4 8 20 -34 40
-109 19 -68 51 -166 71 -218 46 -115 60 -166 70 -245 4 -33 13 -81 21 -107 11
-42 11 -52 -4 -83 -15 -32 -15 -41 -2 -90 9 -36 12 -79 8 -124 -5 -58 -3 -75
13 -98 13 -20 17 -43 16 -78 -3 -62 20 -92 78 -101 37 -6 39 -9 52 -58 8 -31
13 -113 13 -206 0 -85 3 -160 8 -167 4 -6 21 -14 37 -18 20 -4 30 -13 30 -24
0 -37 118 -51 230 -28 l55 12 -2 40 c-4 69 -12 84 -53 105 -26 13 -40 27 -40
40 0 11 -13 34 -28 52 -39 46 -52 79 -39 100 8 12 8 23 0 40 -7 13 -15 51 -18
85 -6 55 -5 62 12 67 11 4 33 20 49 37 24 25 29 39 29 78 0 40 -6 54 -36 89
-27 32 -39 58 -48 105 -7 34 -20 91 -29 127 -9 36 -17 88 -17 115 -1 28 -7
103 -15 168 -11 92 -11 123 -2 138 7 10 12 34 12 53 0 28 5 35 24 40 14 3 32
13 41 22 20 21 36 8 59 -48 26 -63 63 -132 73 -135 5 -2 17 3 27 10 26 19 16
53 -30 108 -19 23 -42 55 -50 71 -14 27 -13 30 21 75 19 26 34 51 32 57 -2 6
-23 10 -46 9 -24 -1 -41 3 -41 9 0 6 -7 19 -15 28 -9 10 -21 51 -29 93 -14 84
-24 102 -62 111 -34 9 -84 119 -84 185 0 26 -7 71 -15 99 -9 29 -14 56 -11 61
3 5 20 11 38 15 31 6 132 99 187 171 22 28 23 29 34 10 20 -37 66 -75 96 -81
34 -7 37 -14 19 -32 -7 -7 -12 -47 -12 -105 0 -76 4 -100 20 -128 l20 -34 73
4 73 3 -16 -30 c-22 -42 -30 -146 -17 -221 12 -77 2 -95 -57 -105 -71 -11 -77
-22 -75 -133 5 -186 28 -253 88 -253 40 0 47 -15 56 -106 6 -65 4 -101 -5
-134 -8 -25 -21 -76 -29 -115 -9 -38 -25 -112 -37 -163 -12 -51 -19 -99 -16
-108 3 -9 1 -33 -5 -55 -15 -47 -3 -65 47 -75 19 -3 34 -11 34 -18 0 -6 7 -47
16 -91 8 -44 15 -84 15 -90 1 -21 -10 -113 -20 -170 -15 -86 -14 -134 4 -141
8 -4 15 -12 15 -20 0 -7 9 -18 19 -24 24 -12 171 -13 204 -1 44 17 44 30 -12
169 -37 93 -51 218 -37 324 5 40 12 58 22 58 8 0 23 9 33 19 25 25 28 134 5
190 -15 37 -13 48 31 272 54 276 63 309 64 227 1 -31 7 -81 15 -110 11 -43 12
-78 4 -173 -6 -66 -11 -154 -12 -195 -1 -41 -8 -85 -15 -98 -6 -12 -11 -42 -9
-65 3 -36 8 -44 35 -57 27 -13 32 -21 38 -67 8 -63 -4 -171 -21 -198 -7 -11
-16 -55 -20 -97 l-7 -77 27 -11 c36 -13 143 -13 148 1 2 7 26 3 68 -11 54 -18
80 -21 155 -18 57 3 102 11 123 22 30 16 32 19 26 54 -9 52 -20 62 -69 62 -44
0 -113 38 -178 98 -23 22 -25 27 -12 35 8 4 15 15 15 24 0 11 -7 14 -26 10
-25 -4 -25 -4 -19 47 16 133 15 131 47 149 21 12 29 23 27 39 -2 13 1 33 5 45
5 15 2 31 -8 45 -26 37 -22 196 9 297 23 79 25 97 26 340 0 210 -3 282 -20
400 -27 184 -27 180 4 151 14 -13 32 -48 41 -81 12 -43 27 -67 62 -102 26 -25
56 -47 67 -49 12 -2 42 -36 75 -86 30 -46 60 -86 66 -90 10 -7 38 -77 48 -124
5 -21 12 -28 31 -28 21 0 25 -5 25 -32 3 -135 19 -308 33 -335 14 -27 14 -41
2 -135 -7 -58 -21 -122 -29 -143 -23 -53 -20 -63 18 -81 30 -15 35 -22 40 -68
4 -28 10 -61 13 -74 4 -17 2 -21 -10 -16 -20 7 -34 -16 -16 -27 11 -7 2 -20
-37 -58 -39 -38 -62 -53 -100 -61 -56 -13 -64 -21 -64 -71 0 -33 3 -37 31 -43
56 -11 193 -6 219 7 14 8 56 14 94 15 38 0 73 5 79 11 10 10 6 45 -23 191 -13
67 -4 170 15 170 8 0 21 8 30 17 15 14 16 28 9 102 -4 47 -9 118 -9 156 -1 39
-6 114 -10 168 -6 79 -5 104 8 135 8 20 19 75 23 122 3 47 10 114 13 150 6 62
7 63 14 28 4 -21 33 -124 63 -230 30 -106 59 -220 64 -253 6 -33 15 -91 21
-130 7 -38 11 -96 11 -128 -1 -37 4 -67 13 -81 10 -15 13 -34 9 -55 -8 -40 17
-71 58 -71 43 0 52 -33 52 -195 0 -105 3 -143 13 -150 8 -6 19 -22 26 -35 9
-19 22 -26 50 -28 20 -2 37 1 37 7 0 17 -53 72 -79 82 l-26 10 33 16 c31 15
63 51 74 83 4 11 8 8 16 -10 10 -25 43 -59 72 -75 11 -6 10 -3 -2 12 -10 11
-18 25 -18 31 0 6 -10 30 -22 54 -16 31 -23 65 -26 129 l-4 88 36 34 c48 46
50 97 6 152 -16 21 -30 48 -30 60 0 12 -11 59 -25 106 -41 135 -47 169 -46
266 1 50 -3 103 -9 117 -10 27 8 56 35 56 8 0 22 11 31 25 14 21 16 45 12 140
l-4 115 21 -20 c12 -11 26 -20 31 -20 5 0 15 -13 21 -30 7 -20 18 -30 31 -30
13 0 34 -19 56 -49 45 -61 59 -73 80 -65 27 10 19 27 -39 84 -30 30 -55 58
-55 63 0 5 9 20 20 34 31 40 27 56 -15 49 -33 -7 -35 -5 -65 47 -16 29 -55 82
-86 118 -96 110 -95 97 -17 172 37 36 86 83 107 104 49 48 98 151 104 219 4
44 -2 66 -38 150 -111 261 -182 364 -275 400 -30 11 -45 23 -45 34 0 29 -27
43 -70 37 -33 -4 -42 -2 -50 14 -6 10 -20 19 -30 19 -24 0 -28 41 -5 60 8 7
15 21 15 32 0 11 14 27 35 39 19 12 35 28 35 36 0 33 -33 139 -48 158 -10 11
-26 37 -36 57 -36 72 -152 100 -243 58 -44 -20 -83 -69 -83 -105 0 -11 -6 -29
-13 -40 -8 -11 -19 -53 -26 -94 -13 -82 -8 -96 40 -106 16 -4 29 -10 29 -14 0
-4 14 -23 30 -41 33 -37 35 -43 20 -70 -8 -15 -17 -18 -45 -13 -21 3 -41 1
-50 -7 -14 -12 -14 -15 0 -36 14 -22 13 -24 -8 -35 -12 -6 -45 -29 -73 -50
-28 -22 -56 -39 -61 -39 -14 0 -137 -127 -141 -145 -2 -7 6 -16 17 -20 12 -3
21 -10 21 -14 0 -14 -58 -96 -87 -124 l-30 -28 -5 44 c-5 40 -37 121 -147 372
-33 75 -46 94 -77 112 -21 12 -45 30 -53 41 -9 11 -31 27 -49 37 -33 16 -33
16 -16 42 16 25 16 27 -2 40 -12 10 -34 13 -61 10 -43 -5 -43 -4 -43 29 0 23
7 38 24 52 14 10 28 31 32 45 5 21 12 27 34 27 46 0 53 18 39 110 -6 44 -20
97 -30 117 -11 21 -19 45 -19 54 0 27 -50 80 -95 100 -108 49 -258 -7 -289
-108 -4 -11 -13 -24 -21 -27 -8 -3 -15 -16 -15 -28 0 -13 -9 -50 -19 -83 -22
-70 -17 -86 37 -114 21 -11 44 -31 51 -45 12 -22 12 -28 -1 -43 -9 -10 -18
-27 -20 -38 -3 -16 -14 -21 -58 -26 -76 -8 -124 -34 -116 -63 4 -17 -2 -26
-28 -40 -57 -31 -94 -78 -130 -165 l-33 -84 -31 87 c-18 47 -40 103 -51 124
-11 21 -32 75 -46 119 -33 98 -82 166 -158 216 -47 32 -57 43 -57 67 0 52 -55
83 -110 60 -35 -14 -50 -7 -50 25 0 14 -11 31 -26 42 -22 17 -24 21 -13 34 8
8 23 31 33 51 15 27 28 38 53 43 45 8 57 34 44 96 -6 28 -11 65 -11 83 0 20
-8 40 -19 50 -10 10 -24 37 -30 61 -29 116 -161 173 -300 130z m-71 -456 c0
-5 -4 -9 -10 -9 -5 0 -10 7 -10 16 0 8 5 12 10 9 6 -3 10 -10 10 -16z m-310
-734 c0 -27 -20 -41 -46 -31 -12 5 -10 10 13 31 35 30 33 30 33 0z m894 -192
c4 -9 3 -20 -2 -25 -6 -6 -11 1 -14 16 -6 29 6 35 16 9z m1606 -323 c0 -5 -4
-10 -10 -10 -5 0 -10 5 -10 10 0 6 5 10 10 10 6 0 10 -4 10 -10z m760 -40 c0
-11 -4 -20 -10 -20 -5 0 -10 9 -10 20 0 11 5 20 10 20 6 0 10 -9 10 -20z
m-950 -158 c14 -5 36 -5 50 -1 57 16 60 13 60 -49 0 -77 16 -98 81 -107 46 -6
50 -9 45 -29 -3 -11 -11 -52 -17 -91 -6 -38 -15 -92 -20 -119 -7 -35 -6 -53 2
-63 7 -7 10 -15 8 -18 -9 -8 -26 11 -36 40 -15 47 -47 41 -53 -10 l-5 -40 -57
93 c-32 51 -58 103 -58 116 0 13 -6 29 -14 35 -7 6 -13 23 -13 37 0 14 -10 35
-21 47 -22 24 -26 62 -16 161 l6 59 16 -26 c9 -15 28 -30 42 -35z m890 -447
c28 -30 22 -41 -17 -28 -17 6 -29 18 -31 31 -5 30 19 28 48 -3z m-2100 -104
c0 -5 -7 -14 -15 -21 -8 -7 -15 -10 -15 -7 0 3 -3 12 -6 21 -4 12 0 16 15 16
12 0 21 -4 21 -9z m2320 -21 c0 -5 -4 -10 -10 -10 -5 0 -10 5 -10 10 0 6 5 10
10 10 6 0 10 -4 10 -10z"/>
<path d="M1498 3457 c-52 -24 -98 -82 -98 -125 0 -11 -6 -25 -13 -31 -8 -6
-20 -50 -27 -97 -13 -82 -13 -87 5 -100 10 -8 27 -14 37 -14 11 0 23 -11 29
-27 5 -16 20 -36 32 -45 l22 -17 -28 -25 c-15 -14 -27 -29 -27 -34 0 -5 -23
-7 -52 -4 -56 5 -78 -10 -78 -54 0 -16 -9 -25 -32 -33 -55 -18 -125 -88 -180
-178 -58 -95 -68 -105 -68 -69 0 64 -62 153 -136 192 -25 14 -32 23 -28 37 9
28 -13 45 -64 52 -26 4 -55 9 -65 12 -23 6 -49 57 -40 80 9 25 44 63 59 63 26
0 31 31 15 95 -9 34 -21 69 -27 76 -6 8 -18 32 -28 54 -22 51 -70 84 -134 92
-100 12 -169 -22 -193 -95 -6 -20 -17 -43 -23 -51 -6 -8 -16 -46 -23 -85 -10
-67 -10 -72 9 -88 11 -10 29 -18 39 -18 10 0 19 -5 19 -12 0 -7 14 -26 31 -44
29 -30 30 -33 19 -73 -10 -40 -13 -42 -40 -36 -39 9 -66 -8 -79 -48 -8 -24
-27 -44 -61 -66 -36 -24 -56 -46 -76 -87 -14 -30 -30 -57 -34 -59 -5 -3 -17
11 -29 30 -11 19 -24 35 -29 35 -19 0 -102 -115 -102 -140 0 -6 13 -16 30 -21
37 -14 37 -20 0 -62 -29 -34 -30 -37 -30 -139 0 -126 8 -138 87 -138 l51 0 4
-94 c5 -110 19 -139 84 -167 l44 -20 -7 -42 c-5 -23 -8 -84 -7 -135 1 -63 -3
-91 -10 -89 -6 2 -12 13 -14 25 -4 25 -27 46 -42 37 -5 -3 -10 -22 -10 -41 0
-19 -5 -34 -11 -34 -14 0 -6 -90 19 -225 17 -89 18 -90 49 -93 37 -4 43 -24
43 -139 0 -60 6 -90 30 -150 36 -88 37 -106 10 -169 -12 -27 -20 -64 -18 -83
3 -32 9 -39 48 -58 47 -22 56 -40 59 -112 1 -25 -2 -32 -14 -28 -19 8 -31 -13
-14 -24 15 -9 17 -8 -52 -62 -29 -24 -63 -40 -93 -46 -26 -5 -48 -10 -50 -12
-2 -2 -6 -20 -10 -40 -4 -25 -2 -40 7 -48 22 -17 156 -25 202 -11 22 6 78 13
123 15 125 6 124 6 117 73 -4 32 -16 74 -26 96 -14 26 -20 61 -21 107 -1 62 1
71 25 93 24 22 25 28 20 82 -3 33 -12 68 -19 79 -9 12 -14 47 -14 90 0 39 -7
92 -15 116 -12 34 -15 80 -13 190 3 144 3 144 16 84 7 -33 24 -97 38 -142 14
-45 27 -108 30 -140 2 -32 9 -103 15 -158 9 -76 8 -115 -1 -158 -16 -77 -9
-94 48 -110 47 -14 47 -14 55 -68 4 -30 3 -110 -2 -179 -10 -112 -9 -126 6
-137 23 -18 154 -17 178 1 18 13 18 17 5 72 -7 33 -20 72 -27 88 -17 32 -19
209 -4 214 6 2 22 13 36 24 24 18 26 26 22 67 -3 25 -12 71 -21 101 -10 30
-20 107 -25 170 -6 94 -12 124 -33 165 -21 41 -25 62 -23 115 l2 65 42 6 c62
8 66 17 64 129 -2 136 -13 165 -66 183 -42 14 -42 14 -48 73 -3 32 -9 74 -13
92 -7 31 -6 32 23 32 17 0 39 4 49 9 9 5 24 12 33 14 13 4 17 26 22 109 8 129
20 174 50 182 49 13 50 11 43 -63 -6 -70 4 -118 27 -133 7 -4 45 -8 85 -8 l72
0 -15 -23 c-14 -22 -30 -103 -42 -220 -5 -45 -2 -61 11 -75 9 -10 13 -22 10
-25 -11 -11 -44 34 -44 58 0 28 -22 47 -44 39 -11 -4 -16 -18 -16 -41 0 -22
-7 -41 -17 -48 -16 -12 -16 -24 -2 -180 16 -171 23 -191 61 -179 24 7 27 -12
29 -196 3 -190 -7 -240 -57 -299 -19 -21 -34 -46 -34 -55 0 -9 20 -31 45 -48
l45 -32 0 -72 c0 -40 -4 -76 -10 -79 -5 -3 -10 -16 -10 -28 0 -35 -88 -124
-131 -132 -50 -9 -59 -17 -69 -61 -12 -51 1 -60 96 -69 58 -6 84 -4 122 10 26
9 78 20 115 25 38 4 73 12 78 17 7 7 6 32 -2 74 -29 154 -21 271 19 277 30 4
45 37 39 81 -3 27 1 43 14 60 13 16 19 39 19 74 0 29 1 63 1 77 1 14 -2 54 -6
90 -7 60 -4 75 35 190 26 77 46 159 52 215 6 50 13 97 15 105 7 20 24 -34 68
-220 20 -85 50 -189 66 -230 16 -41 29 -84 29 -94 0 -11 11 -48 25 -83 18 -44
25 -79 24 -113 -2 -36 2 -55 15 -69 14 -15 16 -29 11 -63 -8 -51 4 -66 58 -77
30 -6 33 -10 45 -71 6 -36 13 -113 13 -172 1 -79 5 -110 15 -119 8 -6 14 -20
14 -30 0 -31 36 -42 114 -34 39 4 78 11 88 16 19 10 25 58 9 74 -6 6 -28 46
-49 90 -37 73 -40 88 -44 178 l-5 98 28 15 c56 29 62 67 20 133 -18 28 -34 72
-41 111 -15 85 -38 166 -60 210 -11 22 -19 65 -21 115 l-4 79 30 6 c49 9 57
40 47 175 -9 124 -23 155 -68 155 -50 0 -80 85 -72 210 l3 54 87 -81 c47 -45
98 -85 112 -89 15 -3 26 -14 28 -27 2 -13 14 -23 32 -28 17 -5 59 -39 98 -79
59 -61 71 -69 88 -60 11 6 20 15 20 20 0 5 -26 29 -57 53 -32 25 -69 57 -83
72 l-25 26 22 38 c28 48 19 65 -26 50 -32 -11 -35 -10 -59 22 -14 19 -66 76
-116 127 l-90 92 86 83 c106 102 148 180 148 275 0 131 -57 330 -125 437 -35
55 -88 105 -111 105 -8 0 -21 18 -30 40 -21 52 -61 63 -125 36 -11 -5 -20 3
-32 29 -9 19 -22 34 -29 33 -21 -5 -20 31 1 54 12 12 21 28 21 35 0 7 16 20
36 28 32 13 36 18 32 42 -9 50 -30 128 -39 143 -5 8 -20 38 -33 65 -13 28 -32
58 -43 67 -47 42 -158 60 -215 35z m-298 -1061 c0 -3 -4 -8 -10 -11 -5 -3 -10
-1 -10 4 0 6 5 11 10 11 6 0 10 -2 10 -4z m1007 -743 c-3 -3 -11 -2 -17 2 -9
6 -9 10 1 16 14 8 27 -7 16 -18z"/>
<path d="M5842 250 c-30 -19 -61 -64 -50 -75 2 -2 24 -1 49 3 41 7 44 10 47
41 5 46 -8 54 -46 31z"/>
</g>
</svg>
