<?xml version="1.0" standalone="no"?>
<!DOCTYPE svg PUBLIC "-//W3C//DTD SVG 20010904//EN"
 "http://www.w3.org/TR/2001/REC-SVG-20010904/DTD/svg10.dtd">
<svg version="1.0" xmlns="http://www.w3.org/2000/svg"
 width="512.000000pt" height="512.000000pt" viewBox="0 0 512.000000 512.000000"
 preserveAspectRatio="xMidYMid meet">

<g transform="translate(0.000000,512.000000) scale(0.100000,-0.100000)"
fill="#000000" stroke="none">
<path d="M2535 5106 c-55 -25 -60 -42 -63 -258 l-3 -197 -67 -6 c-495 -47
-920 -239 -1275 -575 -300 -284 -516 -672 -601 -1080 -14 -63 -27 -146 -31
-185 -11 -127 15 -113 -218 -117 -176 -3 -205 -5 -229 -21 -37 -25 -53 -77
-38 -121 21 -65 41 -71 267 -74 l202 -3 5 -57 c13 -127 49 -327 75 -419 100
-348 279 -650 536 -907 266 -267 591 -453 947 -545 119 -31 298 -61 364 -61
22 0 44 -4 51 -8 8 -5 12 -67 15 -202 3 -169 5 -199 21 -222 39 -58 135 -58
174 0 15 23 19 55 23 227 l5 200 110 12 c628 67 1198 429 1543 979 156 250
269 576 297 859 3 33 8 79 11 102 l5 41 192 4 c166 3 196 5 219 21 37 25 53
77 38 121 -21 64 -42 70 -260 76 l-195 5 -11 110 c-73 681 -505 1299 -1129
1618 -245 125 -449 183 -777 222 l-47 6 -3 197 c-3 219 -9 240 -70 261 -39 14
-46 13 -83 -3z m-65 -824 l0 -159 -94 -11 c-571 -71 -1064 -458 -1267 -997
-39 -103 -81 -270 -94 -377 l-6 -48 -156 0 -156 0 7 73 c18 188 89 436 176
612 99 201 209 355 364 511 307 307 676 486 1111 539 55 7 103 13 108 14 4 0
7 -70 7 -157z m495 114 c666 -144 1210 -649 1404 -1301 28 -94 57 -243 66
-332 l7 -73 -156 0 -155 0 -6 38 c-43 278 -101 448 -224 650 -247 405 -684
685 -1153 737 l-58 6 0 158 0 158 103 -13 c56 -7 134 -20 172 -28z m-493 -768
c3 -311 4 -314 66 -344 60 -28 132 10 146 77 3 18 6 148 6 290 l0 259 33 -6
c208 -35 278 -56 432 -129 315 -149 570 -433 685 -760 33 -93 70 -250 70 -297
l0 -27 -282 -3 c-311 -3 -314 -4 -344 -66 -28 -60 10 -132 77 -146 18 -3 150
-6 294 -6 l263 0 -5 -42 c-65 -590 -499 -1071 -1072 -1188 -55 -11 -111 -20
-124 -20 l-26 0 -3 278 c-3 305 -4 308 -66 338 -60 28 -132 -10 -146 -77 -3
-18 -6 -146 -6 -285 l0 -254 -36 0 c-62 0 -234 40 -334 77 -381 142 -688 461
-814 849 -25 76 -50 190 -60 277 l-6 47 254 0 c139 0 267 3 285 6 67 14 105
86 77 146 -30 62 -33 63 -335 66 l-274 3 7 62 c9 90 51 238 97 344 73 165 156
287 284 416 226 227 511 361 842 396 9 1 13 -70 15 -281z m-1457 -1225 c71
-682 590 -1250 1255 -1373 58 -11 126 -22 153 -25 l47 -6 0 -156 0 -155 -77 6
c-160 14 -359 62 -516 125 -440 176 -788 501 -997 933 -95 195 -150 386 -174
606 l-12 112 157 0 157 0 7 -67z m3421 -15 c-52 -642 -467 -1237 -1056 -1517
-193 -91 -427 -158 -617 -176 l-73 -6 0 154 c0 170 -1 167 63 167 18 0 75 9
127 20 480 101 878 409 1091 845 86 176 135 345 154 528 l7 67 155 0 156 0 -7
-82z"/>
<path d="M2500 3089 c-181 -23 -342 -162 -394 -338 -20 -67 -21 -200 -2 -262
64 -210 247 -349 459 -349 211 0 388 127 459 329 27 77 27 215 -1 293 -78 225
-290 358 -521 327z m170 -230 c179 -81 216 -317 70 -442 -109 -93 -260 -88
-361 13 -167 167 -50 450 186 450 39 0 76 -8 105 -21z"/>
</g>
</svg>
