<?xml version="1.0" standalone="no"?>
<!DOCTYPE svg PUBLIC "-//W3C//DTD SVG 20010904//EN"
 "http://www.w3.org/TR/2001/REC-SVG-20010904/DTD/svg10.dtd">
<svg version="1.0" xmlns="http://www.w3.org/2000/svg"
 width="2726.000000pt" height="1536.000000pt" viewBox="0 0 2726.000000 1536.000000"
 preserveAspectRatio="xMidYMid meet">

<g transform="translate(0.000000,1536.000000) scale(0.100000,-0.100000)"
fill="#000000" stroke="none">
<path d="M21118 14485 c-2 -3 -148 -55 -324 -115 -625 -217 -699 -244 -702
-261 -2 -13 15 -15 144 -11 130 3 147 2 159 -14 9 -13 32 -19 86 -23 l74 -6 3
-41 3 -41 207 -6 c239 -8 218 2 292 -131 24 -45 48 -76 57 -76 17 0 110 26
151 41 l22 9 0 254 0 254 110 74 c60 40 109 79 110 86 0 9 -45 12 -193 12
-107 0 -196 -2 -199 -5z"/>
<path d="M21539 14423 c-2 -16 -3 -234 -1 -486 2 -332 5 -458 14 -455 8 3 12
140 15 474 4 403 2 472 -10 482 -12 10 -15 8 -18 -15z"/>
<path d="M21403 14372 l-93 -67 0 -257 c0 -160 -4 -259 -10 -263 -6 -4 -10
-62 -10 -141 l0 -134 34 0 c19 0 45 -4 58 -9 13 -5 47 -12 76 -16 l52 -7 0
481 c0 265 -3 481 -7 480 -5 0 -50 -31 -100 -67z"/>
<path d="M19947 14123 c-4 -3 -7 -13 -7 -20 0 -11 15 -13 62 -11 50 2 63 6 66
21 3 15 -5 17 -56 17 -32 0 -62 -3 -65 -7z"/>
<path d="M19685 14056 c-122 -38 -209 -126 -288 -289 -185 -380 -236 -907
-137 -1418 63 -328 157 -527 307 -651 88 -74 125 -82 322 -75 91 4 218 7 281
8 63 0 108 3 100 6 -42 16 -113 81 -156 143 -26 39 -48 71 -48 72 -1 1 -129 4
-286 7 l-285 6 -34 70 c-42 88 -93 234 -87 250 3 9 80 14 283 19 153 4 279 8
280 9 0 1 -7 46 -17 99 -67 350 -65 755 4 1116 l14 73 -284 -7 -284 -7 0 22
c0 23 54 160 96 243 38 75 51 78 321 79 144 0 242 5 266 12 31 9 51 28 96 87
31 41 79 90 105 108 l48 32 -288 -1 c-203 0 -301 -4 -329 -13z"/>
<path d="M15171 14049 c-22 -9 -23 -12 -17 -72 4 -34 12 -66 17 -72 11 -11 98
-16 130 -8 18 5 19 11 13 77 -4 39 -12 74 -18 78 -15 11 -96 9 -125 -3z"/>
<path d="M20305 14045 c-52 -28 -90 -61 -133 -117 -23 -30 -42 -57 -42 -59 0
-3 91 18 203 46 l202 51 3 36 3 36 -73 5 c-40 3 -86 8 -103 11 -19 4 -41 1
-60 -9z"/>
<path d="M15579 14010 c-86 -10 -155 -74 -247 -227 -74 -121 -84 -157 -14 -50
52 78 124 152 176 180 30 15 65 22 134 25 l92 4 0 30 c0 16 -6 31 -12 33 -24
8 -83 11 -129 5z"/>
<path d="M15335 14001 c-3 -5 -1 -31 5 -57 14 -60 6 -69 -70 -70 -82 -1 -120
6 -120 22 0 8 -3 14 -6 14 -17 0 -133 -160 -174 -240 -27 -53 -90 -222 -90
-241 0 -5 58 -9 131 -9 121 0 131 -1 124 -17 -4 -10 -17 -63 -30 -119 -84
-371 -48 -889 87 -1224 25 -64 30 -87 29 -159 -1 -47 -4 -87 -7 -90 -3 -3 -58
-9 -122 -12 -147 -9 -152 -6 -152 93 0 55 -7 87 -35 159 -71 184 -108 357
-126 590 -18 231 0 494 47 697 16 70 92 280 125 345 27 53 114 179 139 202 23
20 26 36 8 31 -7 -3 -233 -7 -503 -10 -269 -3 -605 -8 -745 -11 -310 -6 -1396
-23 -1990 -30 -661 -8 -777 -13 -825 -37 -47 -25 -133 -112 -187 -191 -180
-265 -255 -826 -168 -1267 52 -259 146 -467 260 -574 99 -92 73 -89 634 -82
270 3 979 8 1576 11 597 3 1281 8 1520 11 l435 5 34 -25 c39 -29 35 -34 -11
-10 -22 11 -46 14 -87 10 -31 -3 -722 -8 -1536 -12 -814 -4 -1500 -8 -1525
-10 -25 -1 -216 -3 -426 -3 l-381 -1 -11 -25 c-7 -14 -12 -31 -12 -36 0 -7
231 -9 723 -5 397 3 1269 9 1937 12 668 4 1386 10 1594 13 l380 6 7 26 7 27
-137 -2 c-122 -1 -140 1 -176 21 -179 97 -311 370 -372 768 -21 139 -23 480
-4 615 38 274 112 516 208 680 68 116 104 170 112 170 3 1 20 12 36 25 l30 25
-77 0 c-42 0 -79 -4 -83 -9z"/>
<path d="M13939 13986 c-2 -2 -220 -6 -484 -10 -264 -3 -563 -8 -665 -11 -102
-3 -318 -7 -480 -11 -257 -4 -297 -7 -307 -21 -36 -47 -42 -46 430 -39 243 3
541 8 662 11 254 6 1319 19 1353 17 29 -2 28 19 -1 46 -23 21 -31 22 -263 22
-133 0 -243 -2 -245 -4z"/>
<path d="M10705 13923 c11 -96 8 -93 80 -93 92 0 97 3 90 59 -13 98 -6 91 -96
91 l-80 0 6 -57z"/>
<path d="M19377 13974 c-1 -1 -310 -4 -687 -8 -377 -4 -712 -9 -745 -11 -33
-2 -512 -9 -1065 -15 -553 -6 -1082 -15 -1176 -19 -159 -7 -174 -9 -216 -34
-105 -61 -219 -232 -281 -422 -123 -374 -124 -908 -2 -1281 83 -254 211 -427
332 -450 19 -4 177 -4 351 -1 175 4 376 7 448 7 l132 0 6 31 c9 45 43 97 74
113 22 11 216 14 992 19 924 6 967 6 1006 -12 43 -20 91 -73 120 -134 l18 -37
408 0 c224 0 408 3 408 6 0 4 -17 26 -38 48 -162 175 -276 640 -271 1103 3
357 61 643 178 888 26 55 67 123 89 152 23 29 42 54 42 55 0 3 -120 5 -123 2z"/>
<path d="M11110 13938 c-36 -10 -146 -84 -181 -121 -20 -22 -79 -121 -79 -134
0 -4 31 27 70 69 93 101 130 118 260 118 l100 0 0 28 c0 15 -5 33 -12 40 -14
14 -108 14 -158 0z"/>
<path d="M20440 13924 c-52 -14 -174 -46 -270 -71 -96 -25 -253 -67 -349 -94
-96 -27 -180 -49 -187 -49 -8 0 -18 -10 -25 -21 -11 -21 -10 -22 28 -16 22 4
130 33 239 66 109 32 300 87 424 121 l225 63 220 -10 c210 -8 251 -5 227 19
-4 4 -104 10 -222 13 -208 5 -218 4 -310 -21z"/>
<path d="M7200 13923 c-152 -53 -277 -202 -371 -443 -146 -373 -169 -811 -64
-1234 37 -152 98 -311 157 -410 56 -95 164 -205 240 -247 l63 -34 240 -3 240
-2 -40 18 c-275 129 -475 638 -475 1207 0 397 109 787 279 997 67 82 111 120
174 148 l42 20 -220 -1 c-174 0 -229 -3 -265 -16z"/>
<path d="M7705 13927 c-216 -72 -399 -393 -470 -827 -49 -297 -19 -690 75
-984 63 -196 131 -319 238 -430 120 -123 240 -157 360 -101 61 28 112 62 112
75 0 4 -62 10 -137 12 -127 3 -143 5 -195 31 -130 64 -242 224 -313 449 -147
463 -123 992 62 1362 54 110 59 117 131 190 99 101 173 125 392 126 l55 0 -25
21 c-44 36 -146 79 -196 84 -27 3 -67 -1 -89 -8z"/>
<path d="M10897 13881 l6 -59 -38 -11 c-49 -13 -157 -3 -168 16 -12 20 -44
-11 -112 -107 -56 -80 -97 -157 -139 -259 -40 -99 -45 -95 98 -88 68 3 126 3
129 1 2 -3 -2 -22 -9 -43 -25 -74 -53 -236 -66 -379 -26 -306 31 -677 143
-934 24 -54 29 -80 29 -141 0 -105 -3 -107 -146 -107 -111 0 -115 1 -124 24
-5 13 -9 48 -9 77 0 38 -11 85 -39 159 -96 254 -122 394 -129 686 -7 310 11
466 78 674 55 169 118 289 211 401 21 26 38 49 38 52 0 3 -35 4 -77 2 -43 -2
-346 -6 -673 -9 -327 -4 -658 -8 -735 -11 -77 -3 -390 -7 -695 -10 -627 -6
-709 -10 -765 -35 -102 -45 -174 -125 -249 -276 -102 -204 -150 -441 -150
-734 0 -247 26 -414 100 -635 71 -213 194 -377 319 -425 l60 -22 1420 8 c781
4 1445 7 1475 6 51 -2 58 -5 91 -42 l37 -40 156 0 156 0 13 33 14 32 -55 7
c-71 10 -126 43 -193 116 -69 75 -114 151 -155 261 -84 222 -119 429 -118 701
0 329 57 610 168 829 18 36 51 101 72 144 37 76 76 118 164 179 24 17 23 17
-57 17 l-81 1 5 -59z"/>
<path d="M20270 13831 c-508 -142 -664 -189 -668 -201 -3 -9 39 -10 181 -5
177 7 187 7 219 -13 18 -11 44 -32 57 -46 l24 -26 220 0 219 0 41 -34 c23 -18
67 -50 98 -70 l56 -37 114 3 c94 3 114 6 112 18 0 8 -31 80 -68 160 -37 80
-74 162 -83 183 -19 46 -20 44 81 83 38 15 65 30 60 34 -4 5 -100 11 -213 14
l-205 5 -245 -68z"/>
<path d="M20987 13887 c-4 -12 179 -393 289 -601 31 -58 38 -66 47 -51 8 14
-23 83 -154 341 -90 178 -167 324 -170 324 -4 0 -9 -6 -12 -13z"/>
<path d="M20930 13848 c-14 -6 -48 -21 -77 -34 l-52 -23 59 -128 c33 -70 78
-163 100 -205 22 -42 40 -81 40 -88 0 -6 14 -44 32 -85 l32 -75 76 -1 c41 -1
89 -2 105 -3 17 0 32 3 34 7 4 9 -311 647 -319 646 -3 0 -16 -5 -30 -11z"/>
<path d="M21608 13853 c-16 -4 -18 -21 -18 -165 0 -89 2 -159 5 -156 3 3 34
59 69 124 l63 119 96 35 c53 19 98 38 102 41 7 7 -292 9 -317 2z"/>
<path d="M21845 13798 l-100 -39 -46 -87 c-179 -335 -181 -342 -155 -342 8 0
32 -20 54 -45 31 -35 46 -45 70 -45 35 0 23 -21 169 305 47 105 96 214 109
243 16 34 20 52 11 51 -6 -1 -57 -19 -112 -41z"/>
<path d="M21980 13815 c-12 -33 -98 -226 -197 -440 -44 -96 -62 -147 -58 -163
3 -13 9 -20 14 -18 8 5 111 211 111 221 0 2 36 81 80 175 77 165 90 209 70
240 -7 11 -11 8 -20 -15z"/>
<path d="M19610 13802 c-37 -3 -41 -9 -91 -134 l-19 -48 33 0 c31 0 34 3 45
47 17 61 28 73 66 73 31 0 245 56 256 66 5 5 -221 2 -290 -4z"/>
<path d="M19497 13763 c-23 -37 -88 -185 -102 -232 l-7 -24 263 6 c145 4 270
7 277 7 12 0 42 57 42 81 0 8 -21 10 -72 5 -40 -3 -152 -6 -248 -6 -202 -2
-189 -13 -134 114 40 92 38 86 19 86 -8 0 -25 -17 -38 -37z"/>
<path d="M21185 13747 c-33 -12 -61 -23 -63 -24 -2 0 3 -14 11 -29 l15 -28 53
52 c30 28 52 51 49 51 -3 0 -32 -10 -65 -22z"/>
<path d="M21213 13698 l-52 -53 41 -87 c23 -49 45 -88 49 -88 4 0 9 63 11 140
2 77 3 140 3 140 -1 0 -24 -24 -52 -52z"/>
<path d="M19970 13523 c-79 -266 -101 -728 -50 -1068 23 -158 54 -294 73 -331
l13 -24 44 45 44 45 214 0 c167 0 213 3 208 13 -16 40 -57 183 -70 247 -31
152 -39 270 -33 489 5 218 19 329 66 511 l17 70 -212 0 c-179 0 -214 2 -224
15 -7 9 -26 25 -41 36 l-28 20 -21 -68z"/>
<path d="M20506 13458 c-102 -357 -99 -853 6 -1178 27 -84 27 -84 46 -67 10 9
55 40 100 71 75 50 89 56 135 56 51 0 53 1 95 55 l43 55 -15 48 c-44 131 -62
322 -47 477 11 104 31 220 46 256 4 11 -11 37 -45 78 -50 58 -54 61 -98 61
-38 0 -58 8 -123 51 -42 27 -85 59 -95 70 -26 28 -32 24 -48 -33z"/>
<path d="M21277 13483 c-13 -12 -7 -53 15 -98 21 -43 24 -45 65 -45 l43 0 0
65 c0 61 -2 66 -26 75 -29 11 -87 13 -97 3z"/>
<path d="M21430 13400 l0 -60 35 0 c31 0 37 5 65 52 34 61 30 66 -52 67 l-48
1 0 -60z"/>
<path d="M14852 13353 c-94 -439 -75 -871 55 -1233 48 -134 61 -190 62 -258
l1 -43 113 3 112 3 3 76 c2 66 -1 86 -29 155 -130 323 -166 818 -89 1214 10
52 21 103 25 113 7 16 -3 17 -118 17 l-125 0 -10 -47z"/>
<path d="M20903 13383 c-29 -2 -53 -6 -53 -9 0 -5 92 -115 165 -199 l27 -30
-6 40 c-5 41 -67 206 -76 203 -3 -1 -29 -3 -57 -5z"/>
<path d="M10396 13298 c-38 -132 -50 -249 -50 -498 -1 -154 4 -276 12 -330 20
-130 69 -313 114 -428 27 -70 42 -127 47 -175 l6 -72 102 1 c57 0 105 3 108 6
3 3 6 39 7 79 0 60 -5 87 -27 139 -64 150 -112 352 -136 569 -23 213 2 539 55
714 l14 47 -119 0 -118 0 -15 -52z"/>
<path d="M21367 13321 l-48 -6 20 -22 c19 -20 19 -23 4 -62 -9 -23 -22 -42
-30 -42 -7 -1 -19 -2 -25 -3 -7 0 -15 -12 -16 -26 -5 -33 -22 -51 -22 -23 0
34 -11 53 -31 53 -17 0 -16 -5 11 -49 31 -50 38 -85 19 -96 -6 -4 -40 -7 -77
-6 -51 1 -70 5 -87 21 l-22 21 -6 -31 c-16 -77 -19 -223 -7 -318 7 -56 14
-102 16 -102 2 0 14 11 28 25 22 21 34 25 88 25 35 0 68 -4 75 -8 6 -4 11 -28
11 -54 0 -70 9 -88 41 -88 34 0 64 -54 55 -100 l-6 -30 57 0 58 0 -36 37 c-80
80 -119 216 -120 418 -1 197 26 324 88 413 29 43 35 66 16 60 -3 0 -28 -4 -54
-7z"/>
<path d="M21468 13310 c-26 -16 -75 -102 -97 -173 -26 -86 -44 -255 -36 -342
27 -288 141 -449 242 -342 80 84 108 190 107 417 0 163 -2 180 -27 256 -51
152 -123 222 -189 184z"/>
<path d="M20931 13198 c-20 -54 -41 -220 -41 -332 0 -154 35 -376 59 -376 5 0
28 25 51 57 l43 56 -11 87 c-15 109 -15 250 -1 341 l11 70 -43 55 c-52 68 -57
71 -68 42z"/>
<path d="M21650 13214 c0 -20 24 -44 46 -44 24 0 24 1 8 25 -14 22 -54 36 -54
19z"/>
<path d="M21052 13166 c-10 -22 -7 -29 26 -65 33 -37 43 -41 94 -45 32 -2 60
-1 62 3 3 4 -8 35 -25 69 l-29 62 -58 0 c-53 0 -60 -3 -70 -24z"/>
<path d="M21068 12592 c-72 -86 -188 -237 -188 -246 0 -4 25 -6 57 -4 l56 3
35 92 35 92 60 3 61 3 33 55 c18 30 33 58 33 63 0 4 -28 7 -62 7 l-63 0 -57
-68z"/>
<path d="M21225 12561 c-15 -31 -15 -31 10 -31 23 0 25 3 19 28 -9 38 -10 38
-29 3z"/>
<path d="M21666 12554 c-10 -26 -7 -34 14 -34 16 0 40 26 40 44 0 14 -48 5
-54 -10z"/>
<path d="M21732 12537 c-10 -11 13 -66 117 -284 163 -341 149 -317 166 -303
20 16 8 44 -142 343 -105 211 -131 256 -141 244z"/>
<path d="M21073 12488 c-4 -13 -8 -27 -8 -33 -1 -5 -16 -41 -34 -80 -18 -38
-59 -131 -91 -205 -32 -74 -72 -166 -90 -204 -17 -38 -28 -72 -23 -76 14 -12
130 -60 144 -60 8 0 62 99 128 238 63 130 137 281 163 335 26 54 48 100 48
103 0 2 -51 4 -114 4 -110 0 -115 -1 -123 -22z"/>
<path d="M21635 12491 c-3 -10 -26 -38 -50 -60 l-44 -41 50 -87 c28 -49 73
-131 99 -183 l48 -95 113 -42 c62 -23 114 -41 116 -40 1 2 -20 50 -48 107 -27
58 -87 184 -132 280 -80 168 -84 175 -114 178 -24 2 -33 -2 -38 -17z"/>
<path d="M21240 12312 c-46 -97 -116 -243 -157 -324 -74 -149 -81 -172 -63
-183 9 -6 307 583 324 641 4 13 1 26 -7 32 -11 9 -30 -23 -97 -166z"/>
<path d="M21475 12379 c-4 -6 3 -21 16 -35 12 -13 19 -27 16 -31 -9 -9 -68 48
-61 59 3 4 -2 8 -10 8 -13 0 -16 -13 -16 -65 0 -64 6 -75 27 -54 6 6 36 9 72
7 34 -1 61 -2 61 -1 0 1 -13 25 -30 53 -16 28 -30 55 -30 60 0 14 -37 13 -45
-1z"/>
<path d="M21313 12315 c-18 -35 -29 -66 -25 -69 8 -5 93 2 99 8 2 2 6 31 9 65
l6 61 -28 0 c-26 0 -33 -8 -61 -65z"/>
<path d="M20635 12245 l-110 -74 -212 -1 -211 0 -49 -50 -48 -49 -200 -3
c-160 -2 -200 -6 -200 -17 0 -9 63 -28 200 -62 110 -27 328 -81 485 -119 308
-76 340 -79 568 -62 l84 7 -69 29 c-37 16 -72 32 -76 36 -4 4 6 38 24 76 26
58 83 189 145 332 l14 32 -117 0 -118 -1 -110 -74z"/>
<path d="M21540 11774 c0 -376 3 -475 13 -471 9 3 12 100 13 438 2 436 -1 509
-17 509 -5 0 -9 -204 -9 -476z"/>
<path d="M21588 12080 l3 -170 172 0 c95 0 182 -3 195 -6 12 -4 22 -2 22 3 0
6 -57 30 -127 55 l-128 44 -65 122 c-36 67 -67 122 -70 122 -3 0 -4 -76 -2
-170z"/>
<path d="M21415 12232 c-1 -1 -29 -5 -61 -8 -33 -4 -60 -7 -60 -8 -1 0 -4 -58
-8 -127 -5 -106 -3 -129 9 -139 13 -10 15 -53 15 -266 l0 -254 93 -68 c126
-93 119 -90 113 -45 -2 21 -5 237 -5 481 l-1 443 -46 -3 c-25 -2 -47 -4 -49
-6z"/>
<path d="M21216 12123 c-53 -107 -53 -102 17 -139 l27 -15 1 98 c0 54 3 110 5
126 3 15 3 27 2 27 -2 0 -25 -44 -52 -97z"/>
<path d="M19588 12182 c-220 -3 -208 8 -154 -131 42 -109 73 -171 86 -171 16
0 12 23 -20 100 -49 120 -70 110 225 110 140 0 255 2 255 4 0 2 -9 25 -20 51
l-20 46 -82 -3 c-46 -2 -167 -4 -270 -6z"/>
<path d="M19490 12066 c0 -2 15 -44 34 -93 l34 -88 164 -3 c100 -2 159 0 153
6 -5 5 -69 24 -141 41 -129 32 -131 33 -148 68 -9 19 -14 44 -11 54 6 17 1 19
-39 19 -25 0 -46 -2 -46 -4z"/>
<path d="M19610 11995 c14 -14 178 -56 735 -191 l240 -57 165 2 c185 2 221 6
214 25 -4 11 -44 13 -197 9 l-192 -5 -474 116 c-261 64 -482 116 -490 116 -13
0 -14 -2 -1 -15z"/>
<path d="M21146 11985 c-3 -10 14 -25 60 -51 64 -36 82 -38 71 -11 -4 12 -107
77 -121 77 -2 0 -6 -7 -10 -15z"/>
<path d="M21085 11859 c-25 -49 -57 -96 -70 -105 -21 -13 -234 -32 -387 -34
-34 0 -37 -2 -40 -32 l-3 -33 -61 0 c-41 -1 -78 -9 -115 -25 -47 -20 -71 -24
-182 -25 -70 -1 -130 -5 -133 -8 -6 -5 140 -53 747 -246 l286 -91 186 0 c103
0 187 3 186 8 0 4 -47 38 -105 76 l-104 68 0 227 0 227 -79 42 -79 41 -47 -90z"/>
<path d="M18040 11883 c-14 -1 -349 -4 -745 -6 -533 -2 -726 -6 -742 -15 -25
-14 -57 -77 -74 -145 -9 -39 -9 -53 1 -73 22 -39 38 -29 50 34 15 79 26 101
55 112 14 5 238 10 522 11 274 0 521 2 548 4 28 2 208 3 402 4 l351 1 11 31
c6 18 11 36 11 41 0 8 -302 8 -390 1z"/>
<path d="M18451 11871 c-22 -40 -14 -51 34 -51 25 0 46 0 48 0 1 -1 19 -5 40
-10 38 -8 38 -8 24 13 -18 27 -61 53 -104 62 -25 5 -34 2 -42 -14z"/>
<path d="M20121 11808 c55 -80 85 -111 133 -138 60 -35 88 -37 155 -11 34 12
64 17 99 13 28 -2 52 0 56 6 11 19 -12 62 -34 62 -11 0 -110 23 -220 50 -110
28 -202 50 -205 50 -4 0 4 -15 16 -32z"/>
<path d="M18290 11791 c-80 -4 -354 -7 -610 -9 -256 -1 -608 -5 -783 -8 -355
-8 -329 -1 -342 -84 -3 -25 -8 -52 -11 -61 -4 -14 22 -17 233 -23 131 -4 248
-10 259 -12 16 -4 38 9 83 50 49 43 71 56 104 60 69 9 504 16 980 16 479 0
471 -1 430 49 -15 17 -32 21 -108 24 -49 3 -155 1 -235 -2z"/>
<path d="M20977 11793 c-3 -5 -2 -15 2 -22 5 -7 11 -9 14 -4 3 5 2 15 -2 22
-5 7 -11 9 -14 4z"/>
<path d="M16220 11663 c-131 -3 -146 -6 -167 -25 -27 -25 -283 -361 -283 -371
0 -4 101 -7 225 -7 206 0 226 2 232 18 3 9 38 91 76 182 71 170 86 212 71 208
-5 -1 -74 -4 -154 -5z"/>
<path d="M15830 11653 c-13 -5 -459 -261 -469 -269 -2 -2 -2 -6 1 -9 7 -7 370
-117 373 -113 1 2 60 80 130 173 70 94 136 179 146 191 11 11 19 23 19 27 0 8
-178 8 -200 0z"/>
<path d="M16401 11633 c-7 -16 -46 -108 -87 -205 l-74 -177 1 -188 1 -188 14
80 c43 236 107 390 210 505 72 80 122 94 319 91 134 -2 156 -5 203 -26 28 -13
52 -21 52 -17 0 4 -9 21 -19 38 l-19 32 -259 7 -259 7 -22 34 c-27 41 -45 43
-61 7z"/>
<path d="M15250 11620 l-425 -5 65 -29 c36 -16 146 -68 245 -116 l181 -86 79
46 c44 26 135 78 202 116 68 38 123 72 123 76 0 4 -10 6 -22 5 -13 -1 -214 -4
-448 -7z"/>
<path d="M14238 11615 c-2 -2 -892 -6 -1978 -10 -2206 -8 -2019 -1 -2086 -77
-67 -77 -65 -38 -62 -913 l3 -791 84 -134 c82 -131 173 -280 369 -600 52 -85
110 -170 128 -187 l34 -33 522 -1 c288 0 534 -2 548 -3 14 -2 419 -6 900 -10
1407 -10 2738 -24 3145 -32 l301 -7 29 26 30 25 3 551 3 551 -93 0 c-199 0
-706 11 -755 16 l-53 5 -2 197 c-1 108 -2 417 -3 687 l-2 489 -89 43 c-49 23
-168 81 -265 128 l-177 86 -265 -2 c-146 0 -267 -2 -269 -4z m-347 -258 c37
-28 39 -50 39 -357 l0 -302 -29 -29 -29 -29 -1495 0 c-1409 0 -1496 1 -1516
18 -33 26 -37 62 -40 349 -2 227 -1 266 14 296 9 20 24 39 33 44 19 9 836 17
2122 20 686 2 889 0 901 -10z m-3330 -220 c136 -90 76 -307 -84 -307 -41 0
-93 33 -125 80 -32 47 -28 141 7 185 53 69 136 86 202 42z m4425 -353 c15 -11
37 -33 48 -48 21 -27 21 -39 24 -650 l2 -622 -22 -34 c-42 -61 -69 -74 -172
-80 -82 -4 -98 -8 -120 -29 -14 -14 -26 -30 -26 -36 0 -7 -13 -30 -29 -52 -48
-67 -147 -92 -228 -58 -48 20 -71 41 -95 89 -37 73 -60 86 -151 86 -68 0 -87
4 -124 25 -82 49 -78 11 -78 705 l0 615 24 39 c15 23 40 46 65 57 38 18 68 19
448 17 393 -3 407 -4 434 -24z m-1112 -224 c52 -19 53 -34 55 -447 1 -248 -2
-390 -9 -402 -27 -51 -28 -51 -255 -51 -212 0 -214 0 -242 24 l-28 24 0 407 0
407 28 24 c28 24 31 24 227 24 109 0 210 -4 224 -10z m-704 -46 c89 -83 90
-88 90 -414 0 -323 -1 -328 -87 -417 l-45 -46 -887 6 c-487 4 -988 7 -1113 7
l-226 0 -44 33 c-67 51 -88 96 -88 193 0 68 3 84 20 99 18 16 20 31 20 135 0
111 -1 118 -21 123 -20 5 -21 11 -17 105 3 95 5 102 34 139 17 21 46 48 64 61
l33 22 1109 0 1109 0 49 -46z m13 -944 l689 0 29 -29 29 -29 0 -252 c0 -275
-5 -303 -57 -316 -28 -7 -2140 3 -2663 12 -179 4 -333 10 -342 15 -10 5 -22
17 -27 27 -5 10 -11 131 -12 268 -2 257 1 280 39 304 12 8 244 10 822 6 443
-3 1115 -6 1493 -6z"/>
<path d="M11489 11340 c-569 -5 -598 -6 -618 -24 -20 -19 -21 -27 -21 -315 0
-252 2 -300 16 -319 l15 -22 1490 0 1490 0 24 25 25 24 0 301 c0 288 -1 301
-20 320 -20 20 -27 21 -913 18 -491 -2 -1160 -5 -1488 -8z m989 -110 c-14 -25
-15 -30 -3 -30 8 0 15 -4 15 -10 0 -5 -11 -10 -25 -10 -30 0 -32 13 -5 47 21
27 19 46 -5 36 -8 -3 -15 -1 -15 5 0 17 24 20 40 5 13 -12 13 -17 -2 -43z
m426 37 c8 -12 7 -23 -2 -38 -11 -18 -12 -23 -1 -30 19 -12 5 -21 -26 -17
l-26 3 25 34 c26 35 26 54 1 44 -15 -5 -21 8 -8 21 10 9 25 3 37 -17z m-996 1
c19 -19 14 -37 -13 -50 -14 -6 -25 -17 -25 -25 0 -7 -4 -13 -10 -13 -5 0 -10
23 -10 50 0 46 2 50 23 50 13 0 28 -5 35 -12z m259 -20 l17 -33 7 35 c6 31 7
30 8 -17 1 -59 -9 -67 -29 -25 l-14 27 -4 -27 c-6 -47 -22 -31 -22 22 0 58 12
64 37 18z m243 -18 c0 -27 -4 -50 -10 -50 -5 0 -10 16 -10 36 0 21 -4 33 -10
29 -14 -9 -13 8 2 23 22 22 28 13 28 -38z m148 21 c6 -39 -7 -71 -28 -71 -11
0 -20 5 -20 10 0 6 8 10 18 10 14 0 13 4 -7 19 -17 13 -22 23 -16 40 9 30 49
25 53 -8z m70 -17 c4 -50 -17 -74 -42 -49 -29 29 -12 99 22 93 12 -2 18 -15
20 -44z m67 6 c4 -26 3 -46 -5 -55 -14 -16 -40 -9 -40 12 0 8 5 11 10 8 6 -3
14 -4 20 0 11 7 -8 55 -22 55 -4 0 -8 5 -8 10 0 6 9 10 19 10 15 0 21 -10 26
-40z m71 -6 c4 -43 -14 -72 -36 -59 -15 10 -12 25 6 25 13 0 15 6 9 28 -3 15
-11 29 -16 30 -18 7 -8 23 12 20 17 -2 22 -11 25 -44z m69 -4 c0 -39 -3 -45
-22 -48 -13 -2 -23 1 -23 7 0 6 7 11 15 11 10 0 14 9 12 30 -1 19 -6 28 -14
25 -7 -2 -13 -1 -13 4 0 13 13 22 30 19 11 -2 15 -16 15 -48z m-765 11 c0 -16
3 -37 7 -47 4 -12 2 -15 -8 -12 -8 2 -15 17 -17 32 -3 22 -6 25 -18 15 -8 -6
-14 -20 -14 -30 0 -11 -4 -19 -10 -19 -5 0 -10 16 -10 35 0 31 3 35 25 35 14
0 25 5 25 10 0 6 5 10 10 10 6 0 10 -13 10 -29z m-90 -10 c0 -11 3 -26 6 -34
5 -15 -21 -27 -43 -20 -18 6 -16 32 2 39 8 4 15 10 15 16 0 5 -4 6 -10 3 -5
-3 -10 -1 -10 4 0 6 9 11 20 11 13 0 20 -7 20 -19z m300 0 c7 -15 5 -25 -9
-42 -16 -20 -21 -21 -35 -10 -16 14 -22 52 -9 64 13 14 43 7 53 -12z m35 -41
c3 -5 1 -10 -4 -10 -6 0 -11 5 -11 10 0 6 2 10 4 10 3 0 8 -4 11 -10z m-1074
-90 c10 -6 19 -17 19 -25 0 -17 -16 -20 -25 -5 -10 16 -52 12 -59 -6 -22 -57
11 -108 50 -79 24 18 34 19 34 0 0 -33 -77 -47 -101 -18 -8 9 -14 35 -14 58 0
68 44 102 96 75z m159 -10 c25 -25 27 -95 3 -122 -20 -22 -70 -23 -95 -1 -26
23 -25 96 2 123 11 11 31 20 45 20 14 0 34 -9 45 -20z m105 -35 l11 -50 12 40
c7 22 12 46 12 53 0 6 11 12 25 12 25 0 25 -1 25 -80 0 -64 -3 -80 -15 -80
-11 0 -15 13 -16 53 l-1 52 -12 -50 c-17 -72 -39 -71 -57 2 l-14 58 -3 -57
c-5 -88 -22 -69 -22 23 0 77 1 80 22 77 17 -2 24 -13 33 -53z m161 28 c10 -45
22 -79 23 -63 1 8 6 32 12 53 8 31 14 38 32 35 20 -3 22 -9 22 -77 0 -51 -4
-76 -12 -78 -9 -3 -13 11 -14 49 l-1 53 -16 -52 c-16 -58 -38 -69 -48 -25 -15
71 -22 78 -23 24 -1 -38 -5 -52 -13 -49 -13 4 -20 101 -11 138 8 30 42 24 49
-8z m216 -56 c25 -72 23 -99 -6 -63 -6 7 -23 16 -38 20 -21 5 -28 2 -33 -14
-3 -11 -13 -20 -20 -20 -11 0 -9 16 10 70 13 38 27 75 30 81 14 22 31 0 57
-74z m93 46 c11 -17 25 -39 32 -49 10 -16 12 -11 12 34 1 28 6 52 11 52 6 0
10 -33 10 -80 0 -94 -13 -103 -50 -35 -14 25 -28 45 -33 45 -5 0 -7 -19 -6
-42 2 -26 -1 -43 -9 -46 -9 -3 -12 18 -12 78 0 90 9 98 45 43z m198 19 c34
-37 30 -110 -7 -134 -18 -13 -84 -9 -88 5 -4 10 -4 57 1 130 1 24 72 24 94 -1z
m127 -47 l0 -65 40 0 c29 0 40 -4 40 -15 0 -11 -12 -15 -50 -15 l-50 0 0 80
c0 47 4 80 10 80 6 0 10 -28 10 -65z m198 -13 c24 -74 22 -105 -5 -64 -20 28
-63 30 -70 2 -4 -16 -33 -30 -33 -16 0 7 42 141 47 149 14 24 38 -4 61 -71z
m72 18 c0 -46 4 -61 18 -68 33 -17 42 -3 42 64 0 50 3 64 15 64 12 0 15 -14
15 -68 0 -77 -9 -92 -56 -92 -43 0 -56 20 -61 95 -4 55 -2 65 11 65 13 0 16
-12 16 -60z m177 8 l28 -52 3 52 c2 38 7 52 18 52 12 0 14 -14 12 -77 -4 -99
-21 -108 -60 -31 l-27 53 0 -52 c-1 -40 -5 -53 -16 -53 -12 0 -15 16 -15 80 0
98 15 105 57 28z m197 30 c15 -24 1 -33 -25 -14 -32 22 -59 5 -59 -39 0 -36
24 -69 43 -59 7 4 20 14 30 22 15 14 17 13 17 -4 0 -49 -65 -61 -99 -18 -30
39 -24 101 13 127 18 12 68 3 80 -15z m66 -8 c0 -27 3 -30 30 -30 27 0 30 3
30 30 0 20 5 30 15 30 13 0 15 -13 13 -77 -2 -50 -7 -78 -15 -81 -9 -2 -13 8
-13 32 0 33 -2 36 -30 36 -28 0 -30 -3 -30 -35 0 -24 -5 -35 -15 -35 -12 0
-15 16 -15 80 0 64 3 80 15 80 10 0 15 -10 15 -30z m200 -30 c0 -47 4 -61 18
-69 29 -16 42 6 42 71 0 45 3 58 15 58 22 0 21 -122 -1 -144 -23 -24 -70 -20
-88 6 -22 31 -22 138 -1 138 12 0 15 -13 15 -60z m171 15 c13 -25 27 -45 31
-45 5 0 8 20 8 45 0 25 5 45 10 45 6 0 10 -33 10 -80 0 -92 -15 -106 -45 -40
-10 22 -24 45 -32 51 -11 9 -13 2 -13 -40 0 -28 -4 -51 -10 -51 -6 0 -10 33
-10 80 0 95 14 105 51 35z m119 -36 c0 -60 -3 -80 -12 -77 -9 3 -14 31 -16 81
-2 64 0 77 13 77 12 0 15 -15 15 -81z m130 72 c0 -5 -9 -11 -20 -14 -17 -4
-20 -14 -20 -71 0 -87 -18 -85 -22 2 -3 61 -5 67 -25 70 -45 7 -22 22 32 22
30 0 55 -4 55 -9z m-2012 -228 c2 -9 -8 -13 -32 -13 -29 0 -36 -4 -36 -20 0
-16 7 -20 30 -20 20 0 30 -5 30 -15 0 -10 -10 -15 -30 -15 -28 0 -30 -3 -30
-36 0 -24 -4 -34 -12 -32 -13 5 -24 128 -14 153 6 17 88 14 94 -2z m136 1 c31
-30 14 -45 -24 -22 -28 18 -54 -1 -58 -41 -4 -40 14 -63 46 -59 33 4 39 24 10
31 -30 8 -10 30 23 25 52 -7 18 -88 -36 -88 -38 0 -75 42 -75 85 0 65 74 110
114 69z m102 -35 c9 -56 19 -55 33 2 10 37 17 49 30 47 13 -3 17 -18 19 -77 2
-42 -2 -79 -8 -85 -7 -7 -10 7 -10 48 0 66 -15 67 -24 1 -12 -74 -37 -69 -53
10 l-11 50 -1 -52 c-1 -40 -5 -53 -16 -53 -12 0 -15 15 -15 73 0 41 3 76 6 79
3 3 14 4 25 1 13 -4 21 -17 25 -44z m244 -29 c0 -47 -4 -80 -10 -80 -5 0 -10
25 -10 56 0 51 -2 55 -20 49 -11 -3 -20 -3 -20 0 0 10 43 55 53 55 4 0 7 -36
7 -80z m129 26 c-2 -23 0 -46 4 -52 10 -16 -4 -54 -19 -54 -8 0 -14 7 -14 15
0 10 -10 15 -30 15 -18 0 -30 5 -30 13 0 21 70 118 81 111 6 -3 9 -25 8 -48z
m105 38 c19 -18 21 -40 5 -50 -8 -4 -8 -9 0 -17 6 -6 11 -23 11 -39 0 -35 -32
-55 -66 -40 -20 10 -22 17 -22 77 1 49 6 68 17 75 23 14 38 12 55 -6z m186
-52 c0 -90 -47 -134 -84 -80 -20 28 -3 51 17 23 22 -30 37 -8 37 54 0 32 3 61
6 64 15 15 24 -8 24 -61z m124 -9 c16 -46 22 -81 17 -86 -6 -6 -14 -1 -20 12
-14 25 -71 30 -71 6 0 -8 -7 -15 -15 -15 -8 0 -15 4 -15 8 0 7 26 89 45 140
12 32 35 8 59 -65z m66 27 c7 -28 15 -52 19 -55 4 -2 15 20 25 50 11 36 23 55
33 55 8 0 13 -6 11 -12 -3 -7 -15 -43 -27 -80 -33 -100 -46 -99 -79 1 -26 76
-27 91 -8 91 9 0 19 -20 26 -50z m210 35 c0 -10 -11 -15 -35 -15 -28 0 -35 -4
-35 -20 0 -16 7 -20 35 -20 47 0 45 -18 -2 -22 -30 -2 -38 -7 -38 -23 0 -16 8
-21 38 -23 44 -4 50 -21 7 -23 -16 -1 -38 -2 -47 -3 -16 -1 -18 10 -21 82 l-3
82 51 0 c38 0 50 -4 50 -15z m60 -61 l0 -64 40 0 c22 0 40 -4 40 -9 0 -9 -98
-20 -106 -12 -7 7 -5 147 2 154 16 15 24 -9 24 -69z m120 -4 c0 -64 -3 -80
-15 -80 -12 0 -15 15 -15 73 0 41 3 77 7 80 17 18 23 0 23 -73z m93 16 l22
-41 5 48 c8 73 25 56 28 -28 3 -67 1 -75 -15 -75 -11 0 -28 17 -43 45 -14 25
-27 45 -30 45 -3 0 -5 -20 -5 -45 0 -73 -20 -57 -23 19 -4 85 2 104 24 85 8
-7 25 -31 37 -53z m-1173 -42 c0 -9 -11 -14 -30 -14 -28 0 -38 9 -25 22 12 12
55 5 55 -8z"/>
<path d="M11870 11245 c0 -9 5 -15 11 -13 6 2 11 8 11 13 0 5 -5 11 -11 13 -6
2 -11 -4 -11 -13z"/>
<path d="M12520 11256 c0 -8 5 -18 10 -21 6 -3 10 3 10 14 0 12 -4 21 -10 21
-5 0 -10 -6 -10 -14z"/>
<path d="M12597 11254 c-4 -4 -7 -18 -7 -31 0 -28 23 -27 28 1 4 20 -11 40
-21 30z"/>
<path d="M11950 11199 c0 -5 5 -7 10 -4 6 3 10 8 10 11 0 2 -4 4 -10 4 -5 0
-10 -5 -10 -11z"/>
<path d="M12240 11221 c0 -12 6 -21 16 -21 9 0 14 7 12 17 -5 25 -28 28 -28 4z"/>
<path d="M11318 11054 c-15 -32 7 -79 37 -79 11 0 26 12 34 27 21 36 2 78 -34
78 -18 0 -29 -8 -37 -26z"/>
<path d="M11830 11051 c0 -5 -3 -16 -6 -25 -4 -12 0 -16 16 -16 16 0 20 4 16
16 -3 9 -6 20 -6 25 0 5 -4 9 -10 9 -5 0 -10 -4 -10 -9z"/>
<path d="M12102 11028 c3 -50 5 -53 28 -50 29 3 40 18 40 53 0 31 -17 49 -48
49 -22 0 -23 -3 -20 -52z"/>
<path d="M12447 11049 c-10 -35 -9 -39 8 -39 16 0 18 14 6 44 -7 18 -8 18 -14
-5z"/>
<path d="M12182 10810 c-10 -17 -10 -20 3 -20 8 0 15 9 15 20 0 11 -1 20 -3
20 -1 0 -8 -9 -15 -20z"/>
<path d="M12292 10844 c4 -21 22 -23 26 -1 2 10 -3 17 -13 17 -10 0 -15 -6
-13 -16z"/>
<path d="M12286 10785 c-8 -21 1 -35 20 -35 10 0 14 8 12 22 -4 27 -23 34 -32
13z"/>
<path d="M12597 10826 c-11 -27 -8 -36 8 -36 16 0 17 5 6 34 -7 18 -8 18 -14
2z"/>
<path d="M10415 11120 c-63 -41 -84 -134 -45 -198 59 -97 184 -91 230 10 57
127 -75 261 -185 188z"/>
<path d="M14110 10774 c-15 -7 -36 -25 -47 -40 -20 -28 -21 -44 -24 -644 -4
-604 -4 -616 16 -650 30 -52 75 -70 170 -70 95 0 115 -10 149 -78 40 -78 89
-112 163 -112 63 0 120 36 154 95 47 83 57 89 168 96 107 6 130 16 160 70 21
36 21 48 21 639 0 659 1 647 -58 687 -25 16 -61 17 -436 18 -284 0 -417 -3
-436 -11z m44 -57 c26 -19 18 -71 -12 -75 -46 -7 -69 40 -36 72 19 19 25 20
48 3z m824 -28 c4 -31 -18 -52 -50 -47 -15 2 -24 11 -26 26 -5 32 16 54 47 50
20 -2 27 -9 29 -29z m-306 -368 c144 -55 258 -230 258 -396 0 -152 -95 -322
-217 -387 -268 -143 -573 59 -573 382 0 207 126 376 315 424 43 11 162 -2 217
-23z m-514 -803 c17 -17 15 -53 -3 -68 -20 -17 -61 -5 -68 19 -11 42 42 78 71
49z m806 -1 c38 -27 -2 -95 -41 -71 -22 14 -29 50 -13 70 15 17 31 18 54 1z"/>
<path d="M14120 10695 c-14 -16 -5 -35 16 -35 15 0 20 35 5 44 -5 3 -14 -1
-21 -9z"/>
<path d="M14933 10703 c-22 -8 -15 -43 7 -43 13 0 20 7 20 19 0 22 -9 30 -27
24z"/>
<path d="M14455 10315 c-115 -27 -206 -102 -258 -213 -30 -63 -32 -73 -32
-182 0 -108 2 -119 32 -182 73 -155 220 -238 387 -216 160 21 285 155 316 340
14 83 2 163 -36 244 -74 157 -250 247 -409 209z m208 -48 c77 -35 131 -88 171
-168 98 -196 23 -431 -170 -525 -80 -39 -185 -40 -266 -2 -178 83 -261 298
-189 490 74 194 277 286 454 205z"/>
<path d="M14467 10269 c-123 -28 -235 -153 -256 -287 -34 -217 116 -412 319
-412 196 0 350 189 324 396 -9 72 -64 183 -111 225 -75 65 -188 97 -276 78z
m23 -93 c29 -36 -13 -92 -57 -75 -26 9 -32 56 -11 77 16 16 53 15 68 -2z m155
-10 c30 -45 -16 -91 -61 -61 -28 18 -30 32 -8 63 20 29 50 28 69 -2z m-287
-138 c30 -30 -7 -95 -47 -80 -49 18 -38 92 14 92 12 0 26 -5 33 -12z m136 -7
c21 -23 14 -56 -15 -71 -28 -16 -59 4 -59 38 0 51 42 69 74 33z m139 -2 c18
-25 11 -56 -14 -70 -28 -15 -59 6 -59 39 0 51 46 70 73 31z m141 5 c21 -21 20
-40 -4 -64 -25 -25 -35 -25 -61 1 -14 14 -18 27 -13 42 12 39 50 49 78 21z
m-389 -158 c18 -26 11 -52 -16 -67 -22 -12 -53 2 -63 27 -9 23 20 64 44 64 11
0 26 -11 35 -24z m175 4 c24 -24 25 -38 3 -62 -22 -24 -48 -23 -67 3 -16 23
-12 47 12 67 21 16 29 15 52 -8z m181 10 c26 -15 26 -66 -1 -80 -48 -26 -91
30 -55 70 21 23 29 24 56 10z m-260 -150 c23 -13 25 -47 2 -72 -20 -22 -37
-23 -57 -2 -29 28 -14 84 22 84 7 0 22 -5 33 -10z m157 -2 c22 -22 14 -67 -13
-80 -46 -21 -86 40 -49 76 18 19 45 21 62 4z"/>
<path d="M14441 10156 c-14 -17 -7 -36 14 -36 22 0 29 20 13 36 -13 13 -16 13
-27 0z"/>
<path d="M14590 10140 c0 -15 5 -20 18 -18 9 2 17 10 17 18 0 8 -8 16 -17 18
-13 2 -18 -3 -18 -18z"/>
<path d="M14310 10005 c-14 -16 -5 -35 16 -35 15 0 20 35 5 44 -5 3 -14 -1
-21 -9z"/>
<path d="M14444 9999 c-8 -14 11 -33 25 -25 6 4 11 14 11 22 0 16 -26 19 -36
3z"/>
<path d="M14582 9993 c2 -10 10 -18 18 -18 8 0 16 8 18 18 2 12 -3 17 -18 17
-15 0 -20 -5 -18 -17z"/>
<path d="M14723 10004 c-8 -21 13 -42 28 -27 13 13 5 43 -11 43 -6 0 -13 -7
-17 -16z"/>
<path d="M14332 9843 c2 -10 10 -18 18 -18 8 0 16 8 18 18 2 12 -3 17 -18 17
-15 0 -20 -5 -18 -17z"/>
<path d="M14515 9850 c-8 -14 3 -30 21 -30 8 0 14 9 14 20 0 21 -24 28 -35 10z"/>
<path d="M14695 9850 c-4 -7 -3 -16 3 -22 14 -14 45 -2 40 15 -6 16 -34 21
-43 7z"/>
<path d="M14441 9711 c-17 -11 -7 -41 13 -41 22 0 30 20 15 36 -9 8 -19 10
-28 5z"/>
<path d="M14591 9706 c-14 -17 -7 -36 14 -36 22 0 29 20 13 36 -13 13 -16 13
-27 0z"/>
<path d="M14113 9494 c-8 -21 13 -42 28 -27 13 13 5 43 -11 43 -6 0 -13 -7
-17 -16z"/>
<path d="M14924 9495 c-7 -18 3 -35 21 -35 18 0 26 25 12 39 -15 15 -27 14
-33 -4z"/>
<path d="M13472 10543 c-64 -8 -64 -8 -59 -439 l4 -387 23 -19 c20 -16 43 -18
225 -18 183 0 203 2 218 18 15 17 17 60 17 413 0 325 -3 399 -14 415 -13 17
-29 19 -198 20 -100 1 -198 -1 -216 -3z m32 -49 c7 -19 -10 -44 -31 -44 -17 0
-27 24 -19 45 7 20 42 19 50 -1z m360 -1 c4 -9 0 -23 -9 -32 -13 -14 -17 -14
-31 1 -9 9 -14 24 -11 32 8 21 43 20 51 -1z m-361 -737 c3 -8 -1 -22 -8 -33
-13 -17 -15 -17 -31 -1 -9 9 -14 24 -11 32 8 20 43 21 50 2z m357 -1 c10 -12
10 -18 0 -30 -25 -30 -61 -7 -46 30 3 8 12 15 19 15 8 0 20 -7 27 -15z"/>
<path d="M10895 10528 c-27 -14 -65 -49 -75 -68 -7 -14 107 -16 1061 -19 745
-2 1069 0 1069 8 0 6 14 26 30 44 17 19 30 37 30 41 0 12 -2093 6 -2115 -6z"/>
<path d="M13065 10533 c-29 -7 -75 -53 -91 -90 -8 -18 -14 -66 -14 -107 0 -65
3 -77 20 -86 19 -10 20 -21 20 -149 0 -125 -2 -140 -20 -156 -17 -15 -20 -31
-20 -104 0 -81 2 -89 30 -122 16 -20 43 -42 59 -49 64 -26 61 -44 61 435 0
342 -3 435 -12 434 -7 -1 -22 -3 -33 -6z"/>
<path d="M13130 10101 c0 -334 3 -422 13 -419 6 2 31 32 55 67 l42 63 0 287 0
287 -29 45 c-15 24 -40 55 -55 68 l-26 24 0 -422z"/>
<path d="M10800 10338 l0 -83 1068 0 1067 0 3 83 3 82 -1071 0 -1070 0 0 -82z"/>
<path d="M10832 10123 c1 -60 -1 -118 -6 -130 l-7 -23 898 0 c494 0 979 -1
1078 -3 l180 -2 0 130 0 130 -1072 3 -1073 2 2 -107z"/>
<path d="M10796 9873 c4 -43 9 -80 11 -83 3 -3 484 -6 1069 -8 l1065 -4 -3 81
-3 80 -265 3 c-146 2 -629 4 -1073 6 l-808 3 7 -78z"/>
<path d="M10820 9752 c0 -15 67 -71 93 -76 12 -3 491 -7 1063 -10 l1042 -6
-33 33 c-17 17 -34 38 -36 46 -4 12 -167 15 -1067 19 -729 3 -1062 2 -1062 -6z"/>
<path d="M10883 9546 c-10 -5 -21 -14 -25 -20 -4 -6 -8 -122 -8 -258 0 -235 1
-249 20 -268 19 -19 33 -20 288 -20 147 0 456 -2 687 -5 231 -3 780 -7 1219
-10 l800 -5 23 22 c23 21 23 24 23 269 0 222 -2 249 -18 269 l-18 22 -1069 4
c-589 3 -1258 6 -1487 7 -252 2 -425 -1 -435 -7z m122 -95 c3 -5 -5 -11 -17
-13 -27 -4 -37 -28 -11 -28 24 0 43 -19 43 -41 0 -19 -20 -29 -56 -29 -22 0
-24 4 -24 53 0 30 3 57 7 60 10 10 51 8 58 -2z m76 -1 c14 -8 19 -21 19 -55 0
-24 -4 -47 -10 -50 -6 -4 -10 12 -10 40 0 32 -4 45 -12 43 -7 -3 -12 -21 -13
-40 0 -33 -10 -57 -19 -47 -8 9 7 119 16 119 5 0 18 -5 29 -10z m99 -10 c23
-23 25 -39 8 -75 -22 -49 -78 -23 -78 36 0 22 26 59 42 59 4 0 17 -9 28 -20z
m50 -7 c1 -16 2 -16 15 1 8 11 18 17 21 13 4 -4 1 -13 -6 -22 -12 -14 -11 -29
5 -67 11 -26 -10 -22 -23 5 l-11 22 0 -22 c-1 -13 -5 -23 -11 -23 -5 0 -10 25
-10 55 0 30 5 55 10 55 6 0 10 -8 10 -17z m106 -5 l6 -21 19 24 c10 13 19 19
19 12 0 -21 -39 -103 -50 -103 -13 0 -13 13 1 27 8 8 6 19 -5 41 -18 36 -19
42 -7 42 5 0 13 -10 17 -22z m123 -35 c0 -48 -2 -54 -10 -34 -5 14 -8 34 -7
45 2 13 -3 22 -14 24 -15 3 -18 -4 -18 -42 0 -25 -4 -46 -10 -46 -5 0 -10 25
-10 55 l0 55 35 0 35 0 -1 -57z m86 37 c7 -23 -10 -50 -31 -50 -8 0 -14 -9
-14 -20 0 -11 -4 -20 -10 -20 -5 0 -10 25 -10 55 0 54 0 55 29 55 21 0 32 -6
36 -20z m76 -38 c10 -29 14 -52 9 -52 -5 0 -12 5 -15 10 -3 6 -15 10 -26 10
-10 0 -19 -4 -19 -10 0 -5 -4 -10 -9 -10 -4 0 -1 25 8 55 9 30 20 54 25 52 5
-2 17 -27 27 -55z m89 43 c17 -21 8 -50 -18 -53 -12 -2 -22 -10 -22 -19 0 -10
5 -13 18 -8 9 4 25 10 35 12 12 4 17 16 17 44 0 37 2 39 30 39 30 0 30 0 30
-57 0 -41 -3 -54 -10 -43 -5 8 -10 30 -10 48 0 17 -4 32 -10 32 -5 0 -10 -18
-10 -39 0 -38 -19 -68 -28 -43 -2 8 -10 7 -26 -3 -39 -26 -56 -10 -56 51 0 50
2 54 24 54 13 0 29 -7 36 -15z m170 5 c0 -5 -9 -10 -20 -10 -27 0 -25 -16 3
-24 l22 -7 -22 -9 c-28 -11 -30 -30 -4 -30 11 0 23 -4 26 -10 4 -6 -8 -10 -29
-10 l-36 0 0 55 c0 54 0 55 30 55 17 0 30 -4 30 -10z m40 -16 c0 -22 27 -16
35 9 7 20 8 19 12 -11 2 -18 3 -45 1 -60 l-4 -27 -12 28 c-14 34 -32 35 -32 2
0 -14 -4 -25 -10 -25 -5 0 -10 25 -10 56 0 34 4 53 10 49 6 -3 10 -13 10 -21z
m90 -19 c1 -15 5 -13 17 13 9 17 20 32 25 32 4 0 8 -27 8 -61 0 -37 -4 -58
-10 -54 -5 3 -10 18 -10 33 l-1 27 -15 -27 c-23 -43 -34 -33 -34 30 0 40 3 53
10 42 5 -8 10 -24 10 -35z m138 -12 c2 -32 -1 -53 -7 -53 -6 0 -11 9 -11 20 0
11 -3 20 -8 20 -4 0 -13 -9 -20 -20 -7 -11 -17 -20 -23 -20 -7 0 -6 8 3 23 11
16 12 27 5 38 -17 27 -1 51 30 47 26 -3 28 -7 31 -55z m120 0 c2 -32 -1 -53
-7 -53 -6 0 -11 20 -11 45 0 38 -3 45 -19 45 -17 0 -21 -8 -24 -52 l-3 -53 -2
63 -2 63 33 -3 c31 -3 32 -4 35 -55z m58 35 c6 21 24 31 24 13 0 -18 -43 -111
-51 -111 -12 0 -11 14 2 27 8 8 6 19 -5 41 -22 43 -20 62 4 32 l20 -25 6 23z
m105 6 c11 -13 9 -15 -17 -12 -25 3 -29 -1 -32 -26 -5 -37 12 -54 34 -35 15
12 17 12 13 0 -16 -48 -69 -31 -69 21 0 59 40 89 71 52z m69 -14 c-9 -17 -9
-29 1 -51 16 -39 5 -48 -15 -12 -14 25 -15 26 -16 6 0 -12 -4 -25 -10 -28 -6
-4 -10 15 -10 49 0 31 5 56 10 56 6 0 10 -8 10 -17 0 -14 3 -13 16 5 20 28 30
22 14 -8z m92 13 c22 -20 23 -61 1 -85 -20 -22 -37 -23 -57 -2 -21 20 -20 63
1 86 20 22 31 23 55 1z m58 -12 c0 -32 13 -32 27 1 11 26 16 30 23 18 13 -20
12 -81 0 -100 -7 -12 -10 -8 -10 15 l-1 30 -13 -30 c-12 -28 -13 -29 -24 -10
-10 18 -11 18 -12 3 0 -10 -4 -18 -10 -18 -11 0 -14 103 -4 113 10 10 24 -2
24 -22z m160 20 c0 -5 -9 -11 -20 -14 -11 -3 -20 -10 -20 -16 0 -6 9 -11 20
-11 11 0 20 -4 20 -9 0 -5 -9 -11 -20 -14 -12 -3 -20 -14 -21 -29 -1 -19 -2
-18 -8 7 -3 17 -5 45 -3 63 4 26 9 32 28 32 13 0 24 -4 24 -9z m91 -7 c11 -13
9 -14 -13 -9 -33 9 -55 -23 -38 -55 11 -21 40 -28 40 -10 0 6 -4 10 -10 10 -5
0 -10 5 -10 10 0 6 9 10 21 10 31 0 23 -54 -9 -58 -33 -5 -52 15 -52 54 0 53
42 82 71 48z m60 -16 l13 -33 3 28 c3 15 11 27 19 27 11 0 14 -14 13 -57 -1
-45 -3 -51 -8 -28 l-7 30 -11 -30 -11 -30 -12 30 -13 30 -7 -30 c-6 -23 -8
-16 -9 33 -1 68 10 80 30 30z m297 -34 c1 -49 -16 -66 -43 -44 -11 9 -18 10
-29 1 -10 -9 -15 -8 -20 4 -3 8 -12 15 -21 15 -19 0 -19 2 6 44 27 46 39 46
39 0 0 -21 4 -33 10 -29 6 3 10 16 10 29 0 12 5 27 12 34 19 19 35 -4 36 -54z
m-148 0 c0 -34 -4 -53 -10 -49 -5 3 -10 16 -10 28 0 12 -4 29 -10 37 -5 9 -5
19 2 27 20 25 28 13 28 -43z m256 4 c-2 -22 -9 -45 -14 -50 -13 -13 -42 -3
-42 13 0 6 6 9 14 6 17 -7 26 13 26 54 0 18 4 28 10 24 5 -3 8 -24 6 -47z m78
5 c21 -60 20 -66 -4 -51 -16 10 -24 10 -41 -1 -21 -12 -22 -12 -16 16 9 44 26
83 36 83 5 0 16 -21 25 -47z m40 15 l14 -33 12 33 c20 53 29 36 12 -23 -8 -30
-19 -55 -23 -55 -7 0 -39 84 -39 102 0 17 11 7 24 -24z m126 22 c0 -5 -9 -10
-20 -10 -27 0 -25 -16 3 -25 l22 -8 -22 -4 c-28 -5 -31 -33 -4 -33 11 0 23 -4
26 -10 4 -6 -8 -10 -29 -10 l-36 0 0 55 c0 54 0 55 30 55 17 0 30 -4 30 -10z
m40 -35 c0 -38 3 -45 20 -45 11 0 20 -4 20 -10 0 -5 -13 -10 -30 -10 -30 0
-30 1 -30 55 0 30 5 55 10 55 6 0 10 -20 10 -45z m80 -10 c0 -24 -4 -47 -10
-50 -6 -4 -10 15 -10 50 0 35 4 54 10 50 6 -3 10 -26 10 -50z m49 23 l21 -33
0 33 c0 17 4 32 9 32 13 0 8 -103 -5 -107 -5 -2 -18 11 -26 29 l-17 33 0 -32
c-1 -57 -21 -36 -21 22 0 30 4 55 9 55 5 0 18 -15 30 -32z m-719 -38 c0 -5 -7
-10 -15 -10 -8 0 -15 5 -15 10 0 6 7 10 15 10 8 0 15 -4 15 -10z m-460 -156
c0 -21 4 -25 23 -22 12 2 22 9 22 16 0 18 16 13 49 -15 25 -21 28 -28 20 -50
-5 -15 -15 -28 -23 -31 -11 -4 -13 3 -7 28 9 47 -25 85 -37 40 -3 -12 -14 -20
-29 -21 l-23 -1 24 -7 c44 -12 37 -31 -13 -31 -40 0 -75 19 -50 27 32 11 37
21 25 53 -11 33 -7 55 10 45 5 -4 9 -17 9 -31z m-54 -60 c-5 -20 -39 -41 -58
-36 -4 1 -9 -7 -13 -17 -7 -24 -49 -35 -75 -21 -21 11 -26 46 -10 70 8 11 10
8 8 -15 -3 -25 1 -31 20 -33 13 -2 31 -1 39 2 14 6 14 8 -1 19 -11 8 -17 23
-14 38 4 33 32 31 36 -3 4 -32 10 -34 38 -14 18 14 18 15 -10 45 -35 37 -27
55 9 21 l25 -23 2 29 c1 27 1 27 5 -5 3 -19 2 -44 -1 -57z m593 21 l0 -55
-134 0 -135 0 -1 -27 c0 -27 -1 -27 -9 -6 -6 15 -4 34 6 58 15 37 31 45 40 20
4 -11 21 -15 55 -15 50 0 58 7 37 28 -9 9 -8 12 5 12 9 0 22 -9 29 -20 14 -22
48 -26 66 -8 9 9 12 9 12 0 0 -7 5 -12 11 -12 9 0 8 22 -1 65 -4 18 0 26 9 21
5 -3 9 -31 10 -61z m-1809 45 c0 -5 -9 -10 -20 -10 -27 0 -25 -28 3 -33 l22
-4 -22 -8 c-13 -4 -23 -16 -23 -26 0 -11 -4 -19 -10 -19 -11 0 -14 93 -3 103
10 11 53 8 53 -3z m87 -7 c3 -8 -6 -11 -24 -10 -23 2 -29 -2 -31 -24 -4 -31
17 -52 38 -38 13 8 13 10 0 18 -18 12 -7 26 15 18 24 -10 18 -46 -10 -59 -43
-19 -76 32 -55 87 8 21 16 26 37 23 14 -2 28 -8 30 -15z m61 -15 l8 -33 12 33
c17 49 32 39 32 -23 0 -52 -18 -80 -21 -32 l-2 22 -4 -22 c-6 -33 -21 -28 -32
10 l-9 32 -1 -35 c-1 -28 -4 -32 -12 -18 -11 19 -1 98 12 98 5 0 12 -15 17
-32z m152 -22 c0 -30 -4 -58 -10 -61 -6 -4 -10 10 -10 34 0 23 -5 41 -10 41
-6 0 -5 8 2 20 21 33 28 23 28 -34z m85 -17 c6 0 11 13 13 28 8 63 44 51 49
-16 3 -49 -16 -68 -47 -49 -17 11 -22 11 -29 0 -7 -11 -9 -11 -14 2 -4 9 -13
16 -22 16 -21 0 -19 12 8 57 l22 38 5 -38 c3 -21 10 -38 15 -38z m251 -23 c5
-28 4 -29 -9 -13 -8 9 -20 17 -27 17 -7 0 -19 -8 -27 -17 -13 -16 -14 -15 -8
11 3 17 13 46 22 65 l15 36 15 -34 c7 -18 16 -47 19 -65z m31 57 l16 -38 11
32 c6 17 15 35 20 40 11 10 -2 -52 -19 -92 l-13 -30 -15 36 c-20 45 -31 89
-23 89 4 0 14 -17 23 -37z m128 27 c4 -6 -5 -10 -20 -10 -32 0 -29 -23 3 -28
27 -4 19 -22 -9 -22 -10 0 -19 -7 -19 -15 0 -9 9 -15 25 -15 14 0 25 -4 25
-10 0 -5 -16 -10 -35 -10 l-35 0 0 53 c0 30 3 57 7 60 10 11 51 8 58 -3z m155
-14 c0 -8 7 -19 15 -26 13 -11 15 -8 15 14 0 14 5 26 10 26 6 0 10 -25 10 -55
0 -30 -4 -55 -9 -55 -5 0 -18 15 -30 33 l-21 32 0 -32 c0 -18 -4 -33 -10 -33
-11 0 -14 103 -4 113 9 9 24 -2 24 -17z m441 12 c0 -10 2 -10 6 0 9 24 23 11
23 -22 0 -40 27 -57 47 -30 12 16 13 16 13 -7 0 -36 -11 -69 -22 -69 -6 0 -8
7 -4 15 3 10 -3 17 -19 21 -17 4 -25 13 -25 29 0 12 -9 32 -20 45 -23 26 -24
30 -10 30 6 0 10 -6 11 -12z m240 -2 c-9 -11 -10 -20 -1 -35 13 -25 -2 -28
-24 -5 -21 20 -20 31 2 43 25 15 36 13 23 -3z m139 5 c0 -14 -18 -23 -31 -15
-8 4 -7 9 2 15 18 11 29 11 29 0z m158 -3 c-6 -18 -28 -21 -28 -4 0 9 7 16 16
16 9 0 14 -5 12 -12z m-1378 -41 c0 -43 -13 -67 -36 -67 -6 0 -15 7 -18 15 -4
11 0 15 12 13 13 -2 18 6 20 40 4 55 22 55 22 -1z m280 2 c0 -32 4 -42 20 -46
30 -8 24 -25 -7 -21 -26 3 -28 7 -31 56 -2 31 1 52 7 52 6 0 11 -18 11 -41z
m80 -8 c0 -28 -4 -53 -10 -56 -6 -4 -10 15 -10 49 0 31 5 56 10 56 6 0 10 -22
10 -49z m230 40 c0 -5 -7 -11 -15 -15 -9 -3 -15 0 -15 9 0 8 7 15 15 15 8 0
15 -4 15 -9z m697 -68 c-2 -16 -4 -5 -4 22 0 28 2 40 4 28 2 -13 2 -35 0 -50z
m169 29 c-9 -8 -26 10 -26 26 1 15 2 15 15 -2 8 -11 13 -21 11 -24z m61 -4
c40 -38 30 -49 -39 -46 -38 2 -63 8 -66 16 -2 8 9 12 36 12 35 0 39 2 35 20
-7 26 5 25 34 -2z m-129 -1 c7 -8 7 -17 -2 -30 -25 -33 -46 -15 -30 27 7 19
18 20 32 3z m222 -26 c0 -42 -18 -65 -44 -55 -21 8 -21 22 2 20 12 -1 16 5 14
24 -3 30 4 50 18 50 5 0 10 -17 10 -39z m-1910 8 c0 -5 -7 -9 -15 -9 -15 0
-20 12 -9 23 8 8 24 -1 24 -14z m1120 -59 c0 -5 -5 -10 -11 -10 -5 0 -7 5 -4
10 3 6 8 10 11 10 2 0 4 -4 4 -10z"/>
<path d="M10960 9376 c0 -10 9 -16 21 -16 24 0 21 23 -4 28 -10 2 -17 -3 -17
-12z"/>
<path d="M11134 9416 c-10 -26 0 -51 21 -51 16 0 20 7 20 30 0 33 -30 49 -41
21z"/>
<path d="M11500 9414 c0 -9 5 -14 12 -12 18 6 21 28 4 28 -9 0 -16 -7 -16 -16z"/>
<path d="M11670 9415 c0 -9 5 -15 11 -13 6 2 11 8 11 13 0 5 -5 11 -11 13 -6
2 -11 -4 -11 -13z"/>
<path d="M12100 9414 c0 -9 5 -14 12 -12 18 6 21 28 4 28 -9 0 -16 -7 -16 -16z"/>
<path d="M12547 9424 c-11 -11 -8 -62 3 -69 18 -11 41 17 38 44 -3 25 -27 39
-41 25z"/>
<path d="M13225 9369 c-4 -6 -5 -13 -2 -16 7 -7 27 6 27 18 0 12 -17 12 -25
-2z"/>
<path d="M13410 9390 c0 -5 5 -10 11 -10 5 0 7 5 4 10 -3 6 -8 10 -11 10 -2 0
-4 -4 -4 -10z"/>
<path d="M11740 9145 c0 -8 5 -15 10 -15 6 0 10 7 10 15 0 8 -4 15 -10 15 -5
0 -10 -7 -10 -15z"/>
<path d="M11925 9170 c-3 -5 -1 -10 4 -10 6 0 11 5 11 10 0 6 -2 10 -4 10 -3
0 -8 -4 -11 -10z"/>
<path d="M19950 11603 c1 -23 22 -36 56 -35 36 1 58 17 48 34 -7 10 -104 11
-104 1z"/>
<path d="M16580 11513 c-130 -46 -253 -275 -306 -573 -25 -136 -25 -458 0
-595 43 -236 121 -421 218 -517 39 -39 71 -61 100 -69 27 -8 36 -14 26 -16
-15 -4 -18 -16 -18 -68 0 -68 14 -95 50 -95 17 0 18 2 4 28 -24 46 -15 142 13
142 10 0 13 -6 8 -17 -24 -60 -9 -134 29 -141 30 -6 38 12 21 51 -23 55 -19
74 15 85 25 9 32 8 44 -10 14 -20 14 -20 25 0 9 17 6 22 -21 33 -18 7 -62 43
-98 79 -101 100 -176 260 -221 475 -29 135 -36 407 -15 555 45 313 158 544
316 652 24 17 23 17 -60 17 -51 0 -103 -7 -130 -16z"/>
<path d="M16840 11521 c-157 -51 -287 -270 -352 -593 -30 -149 -32 -432 -5
-577 52 -272 160 -485 283 -557 70 -41 107 -48 169 -30 193 57 346 405 362
821 11 306 -46 583 -159 761 -41 67 -107 133 -157 158 -37 20 -107 28 -141 17z
m141 -112 c55 -27 125 -113 169 -203 51 -108 87 -260 101 -433 28 -338 -59
-693 -207 -847 -54 -57 -96 -76 -167 -76 -213 0 -390 393 -374 830 10 279 85
513 210 655 86 99 172 123 268 74z"/>
<path d="M16803 11384 c-49 -29 -55 -44 -17 -44 120 0 233 -182 279 -450 21
-121 21 -356 0 -475 -46 -263 -162 -452 -293 -475 l-37 -6 49 -32 c149 -96
288 16 385 307 48 147 65 284 58 496 -9 273 -53 442 -152 580 -86 121 -180
155 -272 99z"/>
<path d="M16697 11282 c-167 -253 -219 -674 -125 -1022 41 -151 119 -300 158
-300 11 0 20 5 20 11 0 6 24 37 53 68 249 270 247 951 -4 1225 -28 31 -57 56
-64 56 -7 0 -24 -17 -38 -38z"/>
<path d="M16825 11268 c93 -106 159 -285 186 -506 14 -118 2 -275 -32 -413
-30 -122 -106 -272 -170 -336 -81 -82 -18 -66 67 17 221 214 247 910 44 1193
-40 56 -93 97 -124 97 -13 0 -5 -14 29 -52z"/>
<path d="M9975 11390 c-6 -9 -4 -58 10 -260 3 -36 12 -173 20 -305 8 -132 19
-298 24 -370 6 -71 13 -187 16 -256 6 -101 11 -130 26 -150 19 -24 19 -13 17
661 l-3 685 -52 3 c-29 2 -54 -2 -58 -8z"/>
<path d="M15330 10685 c0 -366 2 -665 4 -665 5 0 332 221 367 249 l26 20 -1
469 c-1 259 -4 473 -7 477 -7 7 -363 115 -379 115 -6 0 -10 -244 -10 -665z"/>
<path d="M15750 10765 l0 -475 230 0 230 0 2 460 c0 253 1 466 2 473 1 9 -53
13 -231 15 l-233 2 0 -475z"/>
<path d="M9665 11003 c-379 -13 -671 -85 -800 -196 -178 -153 -122 -469 119
-675 169 -145 519 -234 921 -236 l180 -1 -4 50 c-4 65 -27 105 -61 105 -85 1
-264 13 -383 26 -367 40 -579 149 -677 347 -41 85 -48 142 -22 199 59 134 308
199 818 214 l224 7 0 46 c0 25 -3 63 -6 84 l-7 38 -116 -3 c-64 -2 -147 -4
-186 -5z"/>
<path d="M16234 10335 c4 -86 12 -133 36 -215 17 -58 36 -121 42 -140 36 -122
121 -217 228 -255 52 -18 55 2 5 29 -119 64 -237 289 -280 531 -28 161 -35
172 -31 50z"/>
<path d="M15560 10144 c-102 -68 -186 -129 -188 -134 -2 -6 76 -10 215 -10
325 0 665 -11 687 -22 16 -9 18 -7 14 8 -3 11 -23 79 -44 152 l-38 132 -230 0
-231 -1 -185 -125z"/>
<path d="M16240 9968 c-1 -2 -3 -246 -6 -543 -6 -507 -7 -542 -25 -573 -10
-18 -19 -36 -19 -39 0 -3 37 -3 83 1 45 3 210 9 367 12 271 6 314 11 332 38 4
6 8 208 8 450 l0 438 -22 -7 c-13 -3 -44 -9 -70 -12 -51 -6 -70 -24 -82 -79
-12 -56 -69 -94 -140 -94 -55 0 -86 32 -86 90 0 37 -1 38 -60 60 -76 28 -141
85 -196 171 -24 38 -52 73 -64 79 -11 6 -20 9 -20 8z m612 -580 c16 -11 18
-34 19 -182 0 -143 -2 -171 -16 -185 -22 -22 -398 -35 -432 -14 -22 13 -23 18
-23 181 0 119 4 173 13 185 13 18 34 19 287 25 99 2 140 0 152 -10z"/>
<path d="M16585 9370 l-160 -5 0 -170 0 -170 195 0 c107 0 203 3 213 7 15 7
17 25 17 173 0 91 -3 165 -7 166 -26 4 -118 3 -258 -1z m223 -72 c-6 -16 -338
-25 -338 -9 0 10 39 13 239 19 82 3 102 1 99 -10z m12 -96 c0 -13 -51 -18
-212 -21 -89 -2 -138 1 -138 8 0 10 41 14 238 19 67 2 112 -1 112 -6z m-80
-102 c0 -6 -52 -10 -135 -10 -83 0 -135 4 -135 10 0 6 52 10 135 10 83 0 135
-4 135 -10z"/>
<path d="M17038 9796 l-38 -33 0 -239 0 -239 55 -118 c30 -64 68 -134 85 -155
101 -126 333 -169 493 -93 198 95 283 360 180 564 -77 155 -201 227 -387 227
-126 0 -205 25 -331 106 -18 11 -25 8 -57 -20z"/>
<path d="M16747 9703 c-4 -6 -2 -25 4 -43 9 -23 14 -28 20 -18 12 18 11 31 -4
53 -9 11 -16 14 -20 8z"/>
<path d="M10130 9590 l-55 -5 -27 -55 c-56 -112 -56 -269 0 -380 l28 -55 57
-3 57 -3 -30 62 c-51 109 -49 269 6 386 14 30 24 55 23 56 -2 1 -29 0 -59 -3z"/>
<path d="M9878 9575 c-15 -9 -38 -39 -55 -72 -25 -51 -28 -69 -28 -153 0 -82
4 -103 27 -152 34 -73 63 -92 155 -98 40 -3 72 -3 70 0 -76 127 -86 310 -23
432 14 27 26 52 26 54 0 11 -148 2 -172 -11z"/>
<path d="M10207 9566 c-81 -124 -73 -383 14 -477 24 -26 33 -29 93 -29 60 0
66 2 57 18 -5 9 -19 58 -31 107 -18 73 -21 106 -17 174 l6 83 -47 74 c-26 41
-50 74 -53 74 -4 0 -14 -11 -22 -24z"/>
<path d="M10343 9308 c6 -101 43 -245 74 -287 17 -22 28 -25 101 -29 45 -2 82
-2 82 1 0 3 -28 50 -62 106 -35 55 -90 146 -123 200 -33 55 -64 100 -69 101
-5 0 -6 -41 -3 -92z"/>
<path d="M11260 8803 c0 -28 6 -55 13 -61 13 -11 450 -19 1567 -27 371 -3 971
-8 1333 -11 l657 -7 0 62 0 61 -417 1 c-230 0 -445 2 -478 4 -33 1 -548 6
-1145 9 -597 4 -1185 9 -1307 13 l-223 6 0 -50z"/>
<path d="M14850 8721 c0 -96 1 -100 26 -120 23 -18 41 -21 132 -21 103 0 104
0 98 23 -3 12 -6 66 -6 120 l0 97 -125 0 -125 0 0 -99z"/>
<path d="M15124 8808 c-10 -16 0 -218 10 -218 6 0 36 9 66 21 51 19 66 20 302
13 l247 -6 31 30 c27 27 30 37 30 92 0 39 -4 62 -12 65 -21 7 -670 11 -674 3z"/>
<path d="M11918 8613 c-2 -49 -5 -164 -6 -256 l-3 -168 35 6 c19 4 58 2 87 -4
29 -6 56 -8 61 -3 4 4 10 71 13 148 3 76 7 190 10 252 l5 112 -99 0 -100 0 -3
-87z"/>
<path d="M12137 8548 c-4 -83 -7 -195 -7 -249 l0 -97 73 20 c39 11 73 21 74
22 1 0 5 103 9 229 l7 227 -75 0 -75 0 -6 -152z"/>
<path d="M12309 8513 c0 -104 -2 -203 -4 -220 -2 -19 1 -33 7 -33 6 0 85 23
175 52 l163 51 0 169 0 168 -170 0 -170 0 -1 -187z"/>
<path d="M13150 8631 c0 -33 4 -63 10 -66 13 -8 916 -9 929 0 6 3 11 30 11 60
l0 53 -42 5 c-24 2 -238 5 -475 6 l-433 2 0 -60z"/>
<path d="M12925 8429 c-187 -61 -441 -142 -565 -182 -124 -39 -227 -72 -229
-74 -13 -9 16 -14 105 -17 98 -3 102 -2 294 59 107 34 372 118 588 186 215 68
392 126 392 129 0 3 -55 7 -122 8 l-123 1 -340 -110z"/>
<path d="M13390 8466 c-118 -39 -285 -93 -370 -120 -233 -73 -391 -123 -529
-168 l-123 -40 46 -40 c56 -48 90 -112 106 -197 11 -64 3 -138 -21 -183 -6
-11 -9 -21 -7 -24 5 -4 73 16 428 128 453 143 701 218 720 218 10 0 169 -41
352 -91 183 -49 365 -98 403 -109 78 -20 415 -114 486 -135 l46 -13 -14 41
c-19 54 -19 170 0 224 19 57 73 126 119 155 21 13 38 25 38 28 0 3 -87 29
-192 58 -247 68 -545 152 -920 258 -163 46 -309 84 -325 83 -15 0 -125 -33
-243 -73z"/>
<path d="M13790 8531 c0 -3 152 -48 338 -100 185 -52 479 -134 652 -182 305
-86 317 -89 390 -82 77 6 139 21 94 22 -12 1 -91 21 -175 45 -85 24 -199 56
-254 71 -55 15 -257 72 -450 127 l-350 101 -122 2 c-68 1 -123 0 -123 -4z"/>
<path d="M11339 8310 c-114 -68 -239 -198 -225 -235 2 -7 33 -50 68 -94 l62
-80 71 76 c67 73 175 154 244 183 18 7 30 18 27 25 -2 6 -30 46 -63 88 -70 93
-85 96 -184 37z"/>
<path d="M11635 8166 c-145 -46 -319 -187 -389 -317 -23 -41 -26 -55 -18 -73
14 -32 122 -158 132 -154 5 2 77 102 160 223 84 121 170 239 192 261 l40 42
-23 16 c-27 19 -40 19 -94 2z"/>
<path d="M11922 8167 c-54 -17 -119 -81 -136 -135 -19 -62 -27 -285 -9 -270 7
6 50 65 95 132 114 170 134 193 189 225 l49 27 -54 17 c-59 19 -86 20 -134 4z"/>
<path d="M15340 8171 l-35 -7 45 -13 c25 -7 59 -17 77 -22 37 -12 112 -90 180
-188 67 -96 66 -95 61 -6 -11 189 -129 274 -328 236z"/>
<path d="M15631 8121 c51 -45 239 -305 239 -330 0 -10 -30 -17 -113 -24 -44
-4 -49 -2 -71 27 -12 17 -53 74 -91 126 -82 114 -130 166 -169 187 -29 15 -29
14 10 -29 21 -25 95 -126 164 -224 68 -99 232 -332 364 -519 132 -187 304
-430 381 -540 78 -110 260 -369 406 -575 146 -206 379 -538 519 -737 140 -200
318 -452 395 -561 77 -110 198 -282 269 -383 345 -490 491 -696 868 -1229 160
-226 550 -778 863 -1220 111 -157 264 -373 340 -480 76 -107 214 -304 308
-437 93 -134 174 -243 179 -243 12 0 109 48 121 59 4 4 -122 194 -280 422
-158 228 -335 483 -393 566 -94 138 -106 151 -120 138 -9 -8 -32 -15 -51 -15
-27 0 -43 8 -71 38 -65 68 -70 91 -33 146 l26 38 -223 321 c-122 177 -263 381
-313 452 -51 72 -227 326 -392 565 -164 239 -366 532 -448 650 -303 438 -349
506 -695 1010 -194 283 -392 571 -440 640 -47 69 -138 200 -201 292 l-114 167
-90 37 c-49 21 -100 44 -112 52 -31 20 -67 97 -59 128 7 26 35 59 57 66 9 3 0
23 -31 69 -68 100 -404 581 -495 709 -45 63 -159 226 -253 362 -170 244 -217
297 -276 318 -27 9 -23 4 25 -39z"/>
<path d="M11764 8121 c-47 -34 -67 -56 -126 -141 -142 -204 -1007 -1485 -2481
-3675 -181 -269 -372 -553 -424 -630 -52 -77 -177 -264 -279 -415 -102 -151
-316 -468 -475 -705 -160 -236 -448 -666 -641 -955 -193 -289 -375 -560 -404
-602 -30 -42 -54 -81 -54 -85 0 -4 43 -21 96 -37 81 -24 98 -26 109 -15 7 8
75 106 152 219 129 191 583 851 964 1402 90 131 254 368 364 528 110 160 245
355 299 433 54 78 217 313 361 522 144 209 332 481 418 605 86 124 185 268
221 320 36 52 193 280 349 505 156 226 343 496 415 600 72 105 170 246 218
315 104 150 649 941 922 1340 275 401 278 405 319 439 44 36 34 40 -22 8 -28
-16 -63 -55 -118 -132 -153 -217 -172 -240 -192 -238 -118 13 -196 28 -204 37
-15 18 164 281 230 339 59 52 46 65 -17 18z"/>
<path d="M15113 8134 c-57 -21 -133 -91 -163 -150 -18 -36 -26 -69 -28 -124
-5 -108 16 -157 145 -327 60 -78 260 -341 445 -585 186 -243 399 -524 474
-623 76 -99 203 -265 284 -370 81 -104 266 -347 412 -540 145 -192 334 -440
418 -550 329 -430 710 -928 1361 -1783 68 -90 193 -255 278 -365 84 -111 213
-281 286 -377 73 -96 199 -260 279 -365 80 -104 214 -280 298 -390 336 -444
489 -635 511 -639 12 -3 94 -8 181 -11 l159 -7 -69 99 c-142 204 -548 781
-954 1353 -92 129 -221 312 -287 405 -66 94 -196 278 -290 410 -93 132 -257
364 -363 515 -106 151 -226 320 -265 375 -39 55 -95 134 -124 175 -28 41 -98
140 -155 220 -56 80 -203 289 -327 465 -124 176 -265 376 -314 445 -49 69
-112 159 -140 200 -28 41 -118 170 -200 285 -82 116 -228 323 -325 460 -215
305 -271 384 -420 595 -64 91 -237 336 -384 545 -424 605 -423 604 -485 638
-65 37 -170 46 -238 21z m136 -178 c110 -58 67 -229 -58 -229 -93 0 -146 91
-105 179 28 59 102 81 163 50z"/>
<path d="M15165 7943 c-59 -14 -91 -92 -59 -141 26 -40 45 -51 87 -52 50 0 97
43 97 90 0 42 -23 84 -55 98 -27 12 -36 13 -70 5z"/>
<path d="M12162 8114 c-66 -33 -104 -77 -250 -294 -65 -96 -188 -276 -273
-400 -85 -124 -210 -306 -278 -405 -67 -99 -146 -214 -175 -255 -104 -148
-374 -537 -461 -665 -49 -71 -130 -188 -180 -260 -50 -71 -111 -159 -136 -195
-65 -93 -922 -1335 -1191 -1725 -125 -181 -264 -384 -310 -449 -98 -141 -244
-354 -383 -556 -54 -80 -113 -165 -130 -190 -68 -98 -787 -1140 -939 -1360
-314 -458 -347 -510 -329 -510 10 1 89 7 177 14 129 11 162 17 176 32 17 18
133 173 405 541 60 81 180 243 265 358 86 116 282 381 435 590 154 209 389
529 524 710 134 182 267 362 294 400 28 39 101 138 162 220 201 271 316 426
557 755 131 179 309 421 396 538 242 329 400 544 606 828 105 142 258 351 341
464 527 714 999 1381 1020 1439 50 146 -14 319 -140 377 -66 31 -118 30 -183
-2z m213 -94 c46 -28 75 -95 75 -170 0 -110 -72 -200 -159 -200 -36 0 -3 42
-331 -428 -171 -245 -261 -367 -278 -373 -35 -13 -58 -3 -82 36 -26 41 -44 4
172 348 321 511 336 537 347 606 15 94 66 170 131 194 34 12 94 6 125 -13z"/>
<path d="M12232 7999 c-45 -29 -81 -95 -93 -169 -11 -68 -16 -78 -273 -487
-188 -302 -256 -415 -256 -430 0 -23 37 -52 59 -46 12 3 45 40 74 82 29 42
121 173 204 291 82 118 181 260 220 315 66 96 71 101 118 112 73 18 123 62
140 123 l7 25 -21 -27 c-24 -30 -81 -53 -110 -43 -34 11 -71 63 -71 101 0 102
93 159 165 102 25 -19 27 -20 17 -2 -36 67 -120 92 -180 53z"/>
<path d="M12300 7937 c-29 -15 -50 -51 -50 -90 0 -34 48 -87 80 -87 34 0 90
62 90 98 0 60 -69 104 -120 79z"/>
<path d="M11732 8018 c-60 -82 -164 -239 -160 -243 6 -6 163 -24 167 -19 3 3
8 64 11 137 3 76 11 142 18 155 22 39 4 24 -36 -30z"/>
<path d="M15689 7927 c4 -130 8 -137 74 -137 29 0 57 4 64 8 8 5 -12 42 -62
116 -41 59 -75 110 -77 111 -2 2 -1 -42 1 -98z"/>
<path d="M13420 7956 l-205 -62 -3 -37 c-4 -45 -26 -42 270 -38 l136 1 61 85
61 85 -27 11 c-57 22 -91 17 -293 -45z"/>
<path d="M13706 7904 c-48 -65 -56 -83 -57 -123 -1 -25 -6 -75 -13 -111 l-11
-65 -230 0 -230 0 1 45 c0 25 4 86 9 136 l8 92 -27 -5 c-14 -3 -28 -9 -31 -13
-5 -8 -74 -648 -175 -1630 -12 -107 -36 -339 -55 -515 -20 -176 -48 -446 -64
-600 -16 -154 -73 -689 -126 -1190 -53 -500 -123 -1166 -156 -1480 -33 -313
-62 -594 -66 -623 l-6 -53 169 7 c93 4 170 7 171 8 3 2 106 687 218 1451 30
204 66 444 79 535 14 91 39 257 56 370 17 113 44 291 60 395 16 105 45 294 64
420 99 653 139 914 176 1160 22 149 47 315 55 370 9 55 24 159 35 230 11 72
29 189 40 260 10 72 29 191 40 265 11 74 38 253 59 396 34 236 41 265 65 296
24 32 25 48 5 48 -4 0 -33 -34 -63 -76z"/>
<path d="M13031 7834 c-25 -8 -48 -17 -53 -22 -4 -4 -14 -75 -23 -157 -32
-323 -46 -474 -80 -840 -19 -209 -50 -542 -69 -740 -19 -198 -49 -504 -65
-680 -17 -176 -35 -367 -41 -425 -60 -614 -84 -864 -105 -1085 -14 -143 -45
-471 -70 -730 -25 -258 -54 -567 -65 -685 -11 -118 -29 -309 -40 -425 -29
-305 -29 -281 0 -276 14 1 27 7 30 12 3 5 16 109 29 231 12 123 29 282 37 353
8 72 21 195 29 275 17 171 39 386 95 910 92 876 123 1169 175 1645 30 275 75
700 100 945 25 245 52 506 60 580 8 74 33 306 55 515 22 209 44 418 50 465 12
102 13 150 3 149 -5 -1 -28 -7 -52 -15z"/>
<path d="M13196 7760 c-3 -19 -8 -56 -12 -82 l-6 -48 215 0 215 0 6 28 c2 15
7 52 11 82 l6 55 -215 0 -215 0 -5 -35z"/>
<path d="M12550 7686 l-75 -23 -81 -111 -81 -112 -6 -192 c-4 -106 -10 -358
-14 -560 l-6 -368 34 0 c44 1 289 26 294 31 2 2 8 292 14 644 6 352 13 657 15
678 5 43 6 43 -94 13z"/>
<path d="M12238 7330 c-21 -27 -40 -54 -43 -61 -3 -8 14 -43 37 -79 l43 -65 3
62 c2 34 2 91 0 126 l-3 64 -37 -47z"/>
<path d="M12143 7197 l-31 -43 31 -59 32 -60 45 2 45 2 -48 -16 c-42 -15 -55
-27 -107 -100 -33 -46 -60 -87 -60 -92 0 -10 72 4 101 19 27 15 129 174 129
202 0 18 -79 161 -103 184 -2 2 -18 -15 -34 -39z"/>
<path d="M12017 7023 c-41 -60 -93 -133 -116 -164 -22 -31 -37 -59 -34 -63 20
-20 135 12 160 43 7 9 38 53 69 99 l57 82 -23 51 c-13 28 -27 52 -31 55 -4 2
-41 -44 -82 -103z"/>
<path d="M12241 6927 c-56 -83 -86 -101 -215 -131 -76 -18 -130 -26 -151 -22
-59 11 -65 -10 -76 -256 -13 -327 -15 -408 -6 -408 4 0 53 7 108 17 l100 16
95 84 c91 79 123 98 155 91 11 -2 14 12 16 67 4 118 9 585 6 585 -1 0 -15 -20
-32 -43z"/>
<path d="M16675 6682 c-28 -6 -44 -32 -45 -70 0 -69 27 -87 260 -181 189 -75
258 -118 320 -198 30 -39 123 -158 206 -264 83 -107 218 -282 302 -389 83
-107 237 -305 343 -440 267 -341 274 -350 824 -1055 270 -346 574 -736 675
-865 246 -315 373 -479 394 -512 28 -43 37 -97 22 -132 -7 -17 -75 -89 -150
-160 -75 -71 -144 -142 -152 -158 -14 -27 -13 -32 6 -63 27 -43 66 -75 93 -75
13 0 81 60 188 167 193 191 212 222 213 339 1 60 -4 79 -29 128 -25 48 -323
436 -964 1256 -62 80 -348 447 -634 815 -482 620 -630 809 -1077 1380 -91 115
-179 223 -196 240 -35 35 -77 57 -239 122 -239 97 -321 123 -360 115z"/>
<path d="M12540 6320 c-74 -10 -163 -21 -197 -25 l-63 -7 -1 -41 -2 -42 -6 40
c-5 34 -10 40 -33 43 -31 4 -49 -7 -116 -70 -71 -66 -536 -463 -618 -526 -24
-19 -44 -37 -44 -41 1 -3 19 -19 42 -34 l40 -28 42 32 c81 65 424 352 599 502
38 32 79 62 91 67 13 4 112 18 222 30 109 11 209 25 222 30 18 8 22 18 22 50
0 39 -1 40 -32 39 -18 -1 -94 -10 -168 -19z"/>
<path d="M12469 6194 l-187 -21 -173 -145 c-96 -79 -181 -151 -189 -159 -8 -8
-88 -74 -178 -148 -90 -73 -162 -135 -160 -136 2 -2 107 9 233 24 l230 26 61
50 c47 38 486 411 609 518 20 17 19 17 -20 15 -22 -1 -124 -12 -226 -24z"/>
<path d="M11805 6089 c-60 -10 -124 -25 -142 -33 -44 -21 -314 -217 -320 -233
-8 -20 13 -64 56 -113 36 -42 40 -44 57 -29 11 9 87 73 169 142 289 242 339
287 313 286 -13 0 -72 -9 -133 -20z"/>
<path d="M12218 1753 c-38 -2 -68 -8 -68 -13 0 -5 28 -28 61 -51 l61 -41 57
56 56 56 -50 -2 c-28 -1 -80 -3 -117 -5z"/>
<path d="M12579 1750 c-167 -7 -167 -7 -205 -37 -22 -17 -50 -43 -63 -57 -32
-34 -46 -33 -108 9 -29 19 -55 35 -58 35 -3 0 -5 -22 -5 -50 0 -48 1 -51 56
-93 117 -93 114 -92 409 -89 143 2 282 8 309 13 56 10 86 33 127 98 39 60 39
108 0 150 l-29 31 -134 -2 c-73 -1 -208 -4 -299 -8z"/>
<path d="M19628 1106 c-53 -11 -99 -24 -103 -28 -4 -3 61 -47 143 -96 l151
-89 133 -6 c73 -4 293 -12 488 -19 l355 -11 145 48 c139 45 169 59 159 69 -3
3 -101 10 -219 15 -183 9 -217 8 -226 -4 -6 -8 -42 -29 -80 -47 -76 -36 -71
-36 -352 -23 l-142 7 -45 58 c-45 59 -73 77 -199 126 -70 28 -81 28 -208 0z"/>
<path d="M7662 1033 c-56 -23 -70 -34 -119 -100 -31 -40 -65 -75 -77 -78 -37
-8 -268 -26 -346 -27 -60 -1 -95 5 -172 30 -53 18 -98 38 -100 44 -5 14 -409
-12 -408 -27 1 -5 88 -31 193 -58 228 -56 217 -56 657 -22 179 13 362 27 407
30 l81 7 137 89 c78 50 132 91 124 93 -22 8 -267 46 -292 46 -12 -1 -50 -13
-85 -27z"/>
<path d="M19490 990 l0 -60 118 -79 c191 -128 192 -128 367 -135 310 -12 633
-21 725 -20 97 2 202 24 271 59 68 34 139 118 139 164 0 17 -13 14 -157 -36
l-158 -54 -492 19 -493 19 -151 91 c-83 51 -155 92 -160 92 -5 0 -9 -27 -9
-60z"/>
<path d="M7939 905 c-70 -46 -144 -88 -165 -94 -32 -9 -375 -37 -839 -68 -73
-5 -98 -1 -284 46 -113 28 -208 51 -213 51 -37 0 39 -124 98 -160 49 -31 308
-92 384 -91 72 0 360 18 430 26 25 3 135 12 244 20 227 17 201 7 379 143 l97
75 0 68 c0 38 -1 69 -2 69 -2 0 -60 -38 -129 -85z"/>
</g>
</svg>
