<?xml version="1.0" standalone="no"?>
<!DOCTYPE svg PUBLIC "-//W3C//DTD SVG 20010904//EN"
 "http://www.w3.org/TR/2001/REC-SVG-20010904/DTD/svg10.dtd">
<svg version="1.0" xmlns="http://www.w3.org/2000/svg"
 width="1408.000000pt" height="768.000000pt" viewBox="0 0 1408.000000 768.000000"
 preserveAspectRatio="xMidYMid meet">

<g transform="translate(0.000000,768.000000) scale(0.100000,-0.100000)"
fill="#000000" stroke="none">
<path d="M5550 7252 c-74 -28 -1040 -517 -1110 -562 -36 -23 -90 -65 -120 -94
-30 -28 -99 -92 -153 -143 l-98 -92 43 -43 c46 -46 68 -99 68 -165 l0 -41 183
63 c234 81 296 107 381 162 58 37 466 328 931 662 140 101 147 121 66 192 -81
71 -125 86 -191 61z"/>
<path d="M2245 7244 c-37 -19 -113 -92 -121 -116 -9 -29 12 -53 103 -119 737
-530 982 -700 1061 -735 70 -31 421 -154 439 -154 9 0 13 15 13 50 0 62 27
117 76 158 l37 31 -99 94 c-170 160 -236 218 -289 248 -27 16 -287 149 -577
294 -566 284 -572 286 -643 249z"/>
<path d="M8444 7234 c-66 -44 -104 -86 -104 -114 0 -17 12 -37 33 -56 49 -47
945 -686 1052 -752 28 -17 86 -45 130 -62 105 -42 364 -130 381 -130 10 0 14
14 14 50 0 67 18 107 68 152 l41 37 -142 136 c-78 75 -174 158 -214 184 -39
26 -310 168 -601 314 -588 296 -580 293 -658 241z"/>
<path d="M3823 6645 c-60 -17 -133 -51 -133 -63 0 -5 47 -52 104 -105 l104
-97 64 0 63 0 104 102 c117 115 116 109 12 150 -72 28 -241 35 -318 13z"/>
<path d="M10020 6641 c-30 -10 -72 -26 -93 -37 l-38 -20 109 -102 c109 -101
111 -102 160 -102 27 0 69 -7 93 -15 44 -16 58 -14 332 62 25 7 22 15 -30 69
-109 113 -230 164 -385 163 -60 0 -112 -6 -148 -18z"/>
<path d="M10584 6529 c31 -33 56 -64 56 -70 0 -12 34 -11 103 2 68 14 64 25
-23 69 -47 24 -159 60 -185 60 -4 0 18 -27 49 -61z"/>
<path d="M10735 6411 c-85 -16 -383 -89 -394 -97 -2 -2 6 -23 18 -48 30 -61
35 -104 20 -156 -7 -25 -13 -49 -14 -55 0 -5 27 -15 60 -22 33 -7 119 -25 190
-40 220 -47 336 -41 1329 72 235 27 256 34 256 84 0 35 -45 129 -77 163 -32
34 -26 33 -448 63 -192 14 -438 32 -545 40 -240 18 -270 18 -395 -4z"/>
<path d="M3907 6325 c-76 -27 -120 -89 -118 -167 2 -93 62 -158 155 -166 122
-10 205 88 182 212 -17 92 -129 154 -219 121z"/>
<path d="M10081 6310 c-98 -61 -117 -174 -44 -261 100 -119 303 -44 303 112 0
44 -37 117 -73 143 -42 31 -142 34 -186 6z"/>
<path d="M3314 6183 c7 -28 62 -153 68 -153 2 0 2 36 0 79 -3 79 -4 80 -34 90
-41 15 -41 15 -34 -16z"/>
<path d="M3430 6106 c0 -84 30 -179 80 -254 195 -292 576 -335 819 -93 102
101 161 233 161 357 l0 53 -27 -8 c-16 -5 -89 -30 -163 -56 -116 -41 -141 -54
-176 -90 -97 -100 -238 -98 -334 5 -30 33 -57 45 -197 94 l-163 55 0 -63z"/>
<path d="M9640 6106 c0 -122 47 -231 147 -336 202 -215 528 -225 744 -22 40
37 79 86 98 122 18 34 31 63 29 64 -1 2 -63 16 -137 31 -74 15 -146 31 -162
35 -22 6 -35 3 -61 -16 -91 -68 -229 -50 -305 39 -24 29 -53 42 -190 90 l-163
56 0 -63z"/>
<path d="M4536 6049 c-38 -287 -325 -517 -618 -495 -43 3 -78 3 -78 1 0 -3 19
-14 42 -26 37 -19 50 -20 127 -13 118 11 185 6 261 -20 39 -14 213 -112 435
-246 204 -123 398 -239 431 -259 413 -242 532 -319 603 -389 l73 -72 59 21
c33 12 59 28 59 36 0 34 -98 148 -155 180 -17 10 -15 16 30 93 26 45 54 84 61
87 27 10 169 -106 230 -189 23 -32 50 -80 59 -107 9 -27 26 -56 38 -64 13 -8
31 -31 42 -51 24 -45 41 -46 59 -2 8 19 23 39 34 45 14 7 144 11 386 11 249 0
366 3 366 11 0 5 16 17 36 25 29 12 73 15 214 12 170 -3 180 -4 203 -26 23
-22 27 -22 236 -20 l213 3 24 63 c30 79 70 137 136 197 57 51 131 105 145 105
7 0 87 -128 102 -163 2 -5 -20 -30 -49 -55 -48 -42 -110 -123 -110 -144 0 -4
34 -8 76 -8 75 0 77 1 122 41 26 23 144 100 262 171 809 488 1133 679 1186
697 70 23 129 28 241 17 85 -8 140 2 163 29 10 12 1 14 -66 9 -166 -12 -329
49 -450 170 -39 39 -83 92 -98 119 -34 58 -76 178 -77 220 0 21 -8 2 -22 -54
-37 -145 -94 -209 -278 -315 -68 -39 -198 -113 -289 -166 -186 -107 -460 -262
-535 -303 -27 -15 -54 -31 -60 -35 -33 -25 -704 -404 -752 -425 -32 -15 -82
-33 -112 -41 -51 -13 -55 -13 -68 6 -14 19 -26 20 -383 20 l-369 0 -18 -24
c-18 -22 -20 -23 -71 -10 -107 28 -217 84 -662 337 -250 143 -477 272 -505
287 -27 15 -203 114 -390 220 -431 245 -474 284 -511 463 -9 40 -17 73 -18 75
-2 1 -6 -20 -10 -49z m439 -559 c247 -131 317 -170 520 -295 88 -54 179 -110
203 -124 23 -14 42 -29 42 -34 0 -4 -25 -46 -55 -93 l-55 -85 -58 32 c-382
218 -807 484 -926 582 l-29 24 49 65 49 66 80 -43 c44 -23 125 -66 180 -95z
m4482 88 c21 -29 44 -60 50 -70 11 -14 -1 -28 -100 -106 -121 -97 -256 -187
-410 -276 -154 -88 -464 -256 -474 -256 -4 0 -30 39 -57 87 l-49 86 24 18 c13
10 27 19 31 19 3 0 88 49 188 110 100 60 286 169 413 241 128 73 257 147 287
165 30 18 56 33 57 33 0 1 18 -23 40 -51z"/>
<path d="M11068 5368 c-8 -7 -82 -98 -164 -203 -81 -104 -202 -260 -269 -345
-67 -85 -163 -210 -214 -277 -52 -68 -99 -123 -106 -123 -12 0 -135 -131 -200
-214 -37 -46 -96 -65 -227 -73 -84 -5 -88 -5 -88 14 0 23 24 33 83 33 21 0 70
7 108 16 65 15 73 19 110 67 45 56 47 87 10 137 -30 42 -58 50 -181 50 l-115
0 -69 45 -69 45 -251 0 c-251 0 -251 0 -261 23 -10 22 -13 22 -195 22 -182 0
-185 0 -195 -23 l-10 -22 -630 2 c-411 2 -630 6 -630 13 -1 32 -17 35 -200 35
l-183 0 -6 -25 -6 -24 -377 -1 c-258 0 -381 -4 -390 -11 -7 -6 -13 -27 -13
-45 l0 -34 -106 0 -106 0 -192 -89 c-433 -202 -512 -242 -533 -266 -22 -25
-23 -32 -23 -255 0 -223 1 -230 23 -254 13 -16 140 -81 322 -167 422 -199 396
-189 515 -189 l100 0 0 -33 c0 -18 5 -38 12 -45 9 -9 109 -12 390 -12 l378 0
10 -25 10 -25 182 2 c179 3 183 4 193 26 l10 22 626 0 c618 0 627 0 632 -20 5
-19 14 -20 197 -20 183 0 192 1 197 20 5 19 14 20 257 20 l251 0 75 45 75 45
112 0 c130 0 156 7 183 52 34 55 27 91 -27 147 -47 48 -49 48 -138 60 -49 6
-103 12 -120 14 -23 1 -30 7 -30 22 0 29 66 32 184 9 91 -18 95 -20 130 -63
77 -94 185 -211 195 -212 6 0 75 -78 152 -172 323 -393 599 -723 613 -734 20
-15 56 -16 82 -2 24 12 42 55 34 80 -3 10 -49 69 -101 131 -491 582 -641 765
-656 798 -22 50 -224 317 -251 332 -12 6 -65 14 -117 17 -95 6 -95 6 -98 34
l-3 27 410 0 c400 0 411 0 421 -20 9 -16 21 -20 65 -20 52 0 54 -1 60 -32 14
-79 29 -120 51 -143 l23 -25 234 0 c262 0 251 -3 280 75 48 126 48 321 1 467
-25 77 -27 78 -280 78 -122 0 -230 -3 -239 -6 -22 -9 -50 -68 -64 -136 l-12
-57 -49 6 c-44 5 -49 3 -65 -21 l-17 -26 -409 0 -409 0 0 29 0 29 98 4 c69 2
106 8 124 20 34 22 248 308 248 332 0 10 40 68 88 130 550 694 643 817 649
849 9 58 -63 101 -109 65z"/>
<path d="M5995 4545 c-33 -13 -98 -38 -145 -57 l-85 -33 -740 -6 c-767 -6
-882 -11 -953 -48 -81 -42 -130 -115 -139 -207 l-6 -54 -87 0 c-77 0 -89 -3
-108 -22 -81 -87 -102 -331 -42 -492 31 -81 55 -96 155 -96 l82 0 6 -54 c9
-94 62 -168 142 -202 75 -31 199 -37 945 -43 l745 -6 150 -58 c165 -65 205
-69 251 -26 33 31 30 39 -13 39 -25 0 -80 20 -158 56 -66 31 -199 92 -295 136
-348 160 -364 170 -375 256 -10 73 -14 82 -63 134 -52 56 -58 92 -23 136 64
80 79 106 85 145 15 100 7 95 502 326 221 103 291 131 324 131 49 0 50 14 0
48 -42 28 -79 27 -155 -3z m-1607 -224 c3 -25 -2 -33 -22 -42 -60 -28 -106 58
-46 88 34 17 64 -3 68 -46z m1096 -46 c-1 -9 -102 -86 -238 -178 -101 -70
-116 -67 -262 39 -184 134 -185 135 -179 145 9 13 680 7 679 -6z m-1234 -50
c13 -14 49 -33 79 -42 31 -9 68 -28 83 -44 l28 -27 0 -267 c0 -329 3 -321
-123 -354 -20 -5 -52 -22 -69 -36 -29 -25 -38 -27 -99 -23 -90 5 -99 14 -99
99 0 55 3 69 15 69 9 0 20 -11 25 -25 9 -25 10 -25 142 -25 73 0 139 4 146 8
9 7 12 70 10 283 l-3 274 -147 3 c-140 2 -147 2 -153 -18 -3 -11 -13 -20 -21
-20 -11 0 -14 15 -14 67 0 92 12 103 105 103 64 0 74 -3 95 -25z m555 -156
c224 -169 205 -148 205 -223 0 -35 -3 -72 -6 -80 -3 -9 -86 -75 -184 -146
-145 -106 -185 -130 -212 -130 -19 0 -39 5 -46 12 -17 17 -17 659 0 676 7 7
28 12 48 12 29 0 61 -19 195 -121z m-1002 -27 c62 -69 58 -344 -6 -412 -17
-19 -21 -20 -40 -7 -38 24 -51 81 -51 217 -1 108 2 131 21 173 24 51 48 60 76
29z m1520 -515 c83 -57 153 -111 155 -120 3 -16 -26 -17 -332 -17 -267 0 -336
3 -336 13 0 12 267 207 300 220 39 14 69 1 213 -96z m-941 -141 c14 -21 8 -55
-13 -70 -23 -16 -47 -12 -66 12 -18 22 -16 39 8 63 21 21 56 19 71 -5z"/>
<path d="M6250 3153 c-1 -43 -43 -184 -75 -249 -37 -76 -126 -180 -198 -232
l-46 -32 -51 85 -52 85 65 63 c48 47 69 76 85 120 12 32 22 64 22 71 0 10
-129 71 -136 63 -1 -1 -13 -24 -27 -52 -39 -76 -58 -93 -257 -236 -102 -73
-266 -191 -365 -263 -99 -71 -261 -188 -360 -259 -99 -72 -221 -160 -270 -197
-120 -88 -214 -144 -269 -160 -26 -7 -46 -17 -46 -21 0 -5 4 -9 9 -9 4 0 29
-16 55 -36 l47 -36 130 82 c75 47 134 79 139 74 5 -5 31 -43 58 -86 l50 -76
-86 -61 -86 -61 101 0 c55 0 113 -3 129 -6 24 -5 51 9 164 81 154 99 820 524
1045 667 83 52 240 152 350 223 347 221 327 215 732 215 278 0 304 -2 364 -21
73 -24 118 -46 192 -93 67 -43 224 -139 457 -281 102 -62 280 -170 395 -240
116 -70 275 -167 355 -215 80 -48 230 -140 334 -204 104 -65 201 -123 215
-130 21 -10 56 -11 176 -2 l150 12 -72 47 -73 48 31 52 c16 29 38 67 46 85 9
17 22 32 28 32 5 0 42 -18 80 -41 39 -22 103 -58 143 -80 l73 -39 55 44 55 45
-43 11 c-71 18 -111 32 -143 48 -57 29 -1454 955 -1503 997 -18 15 -42 45 -53
66 l-19 39 -80 0 -80 0 6 -27 c17 -79 76 -166 151 -223 l32 -25 -55 -87 -55
-87 -48 34 c-119 86 -216 225 -245 353 l-13 57 -208 3 c-198 2 -209 1 -227
-18 -18 -19 -31 -20 -212 -20 -178 0 -195 2 -219 20 -24 19 -40 20 -390 20
-353 0 -365 1 -391 21 -14 11 -26 29 -26 40 0 12 -7 19 -20 19 -12 0 -20 -7
-20 -17z m2610 -631 c297 -184 359 -222 522 -330 98 -64 177 -120 178 -125 0
-17 -86 -156 -97 -157 -14 0 -251 129 -393 213 -72 43 -610 385 -662 422 -16
10 -12 20 38 102 l55 91 127 -75 c70 -42 174 -105 232 -141z m-3102 120 c29
-49 52 -91 52 -94 0 -22 -922 -621 -934 -607 -7 9 -74 116 -84 136 -11 20 -1
29 136 130 81 60 207 150 280 199 220 148 487 323 492 323 3 1 29 -39 58 -87z"/>
<path d="M3810 1964 c-126 -33 -251 -119 -321 -220 -16 -23 -29 -45 -29 -47 0
-3 17 -8 38 -12 40 -7 271 -73 284 -81 4 -3 20 4 35 15 67 49 180 52 246 7
l35 -24 151 44 c84 24 158 44 166 44 23 0 18 14 -24 70 -75 100 -207 184 -329
209 -72 15 -185 13 -252 -5z"/>
<path d="M10290 1957 c-99 -30 -207 -102 -270 -180 -28 -34 -50 -67 -50 -72 0
-6 24 -17 53 -24 28 -8 101 -28 160 -46 l109 -33 41 24 c23 13 61 26 84 30 50
7 128 -10 161 -35 23 -17 28 -16 188 28 90 25 164 51 164 56 0 25 -105 137
-169 179 -100 67 -165 87 -291 92 -88 4 -117 1 -180 -19z"/>
<path d="M2700 1650 c-617 -53 -783 -70 -799 -83 -32 -27 24 -187 81 -230 26
-19 191 -40 668 -82 102 -9 276 -25 386 -36 189 -19 207 -19 300 -4 55 9 169
34 256 56 l156 41 -14 34 c-19 45 -18 124 2 174 9 23 15 43 13 45 -9 9 -321
95 -398 109 -109 21 -129 20 -651 -24z"/>
<path d="M4585 1680 c-88 -14 -424 -102 -444 -116 -2 -2 4 -21 13 -44 20 -50
21 -129 2 -175 -8 -19 -13 -35 -11 -35 2 0 73 -18 157 -40 260 -67 313 -73
523 -54 1097 96 1138 100 1158 125 23 28 19 53 -22 143 -21 46 -38 69 -60 80
-38 20 -250 44 -803 91 -442 37 -435 37 -513 25z"/>
<path d="M9240 1650 c-582 -51 -719 -67 -747 -86 -30 -19 -55 -60 -78 -127
-33 -99 -12 -120 135 -131 41 -3 197 -17 345 -30 149 -14 340 -30 425 -36 85
-6 217 -18 292 -25 176 -17 253 -8 526 67 93 25 112 34 107 47 -24 61 -26 117
-7 174 10 32 16 59 13 61 -15 9 -216 68 -311 91 -159 38 -220 38 -700 -5z"/>
<path d="M11050 1674 c-72 -13 -147 -33 -328 -85 -65 -19 -81 -27 -76 -39 31
-70 37 -104 27 -153 -6 -29 -13 -59 -17 -68 -6 -14 12 -21 106 -47 144 -40
191 -50 306 -67 87 -13 114 -12 365 10 546 50 903 86 939 96 46 12 85 58 117
138 25 65 23 106 -7 115 -44 14 -1210 117 -1301 115 -31 -1 -90 -7 -131 -15z"/>
<path d="M3875 1593 c-74 -39 -105 -88 -105 -165 0 -92 68 -167 159 -176 154
-14 251 177 149 294 -54 61 -139 81 -203 47z"/>
<path d="M10373 1591 c-93 -43 -128 -171 -70 -259 31 -47 97 -82 153 -82 81 1
157 70 170 155 21 142 -120 246 -253 186z"/>
<path d="M3603 1227 c-129 -33 -163 -45 -163 -58 0 -27 77 -134 134 -186 104
-95 228 -143 371 -143 169 0 323 72 431 201 41 49 88 136 76 142 -4 2 -32 10
-62 17 -30 6 -106 26 -168 42 -101 28 -114 29 -130 16 -63 -56 -174 -69 -249
-30 -23 12 -44 26 -48 32 -8 14 -8 14 -192 -33z"/>
<path d="M10110 1227 c-91 -23 -167 -43 -169 -44 -3 -2 6 -27 20 -56 36 -79
148 -186 240 -230 94 -45 143 -56 251 -57 160 0 325 77 424 198 45 55 93 138
83 145 -2 1 -80 22 -173 45 -145 36 -172 40 -185 28 -37 -32 -88 -49 -146 -50
-50 -1 -69 4 -117 32 -32 17 -59 32 -60 31 -2 0 -77 -19 -168 -42z"/>
<path d="M3356 946 c-10 -118 -15 -232 -11 -254 9 -55 57 -116 110 -142 41
-20 57 -21 212 -18 l168 3 195 99 c221 112 263 138 315 198 38 44 87 133 110
198 12 34 7 31 -73 -50 -67 -67 -104 -95 -162 -123 -185 -90 -363 -90 -549 0
-91 44 -211 158 -256 245 -17 32 -32 58 -35 58 -3 0 -14 -96 -24 -214z"/>
<path d="M10981 1105 c-47 -84 -94 -138 -165 -191 -241 -182 -571 -163 -785
45 -37 36 -78 80 -90 96 -20 29 -20 27 3 -37 73 -199 134 -250 521 -435 l110
-53 163 0 c181 0 214 9 265 70 48 56 52 92 38 298 -7 103 -16 205 -20 227 l-6
40 -34 -60z"/>
</g>
</svg>
